<ttFont>
<head>
    <!-- Most of this table will be recalculated by the compiler -->
    <tableVersion value="1.0"/>
    <fontRevision value="1.0"/>
    <checkSumAdjustment value="0x1adf1c1c"/>
    <magicNumber value="0x5f0f3cf5"/>
    <flags value="00000000 00000011"/>
    <unitsPerEm value="1000"/>
    <created value="Tue Aug  7 16:46:49 2018"/>
    <modified value="Mon Jun 15 15:43:04 2026"/>
    <xMin value="-190"/>
    <yMin value="-337"/>
    <xMax value="1171"/>
    <yMax value="935"/>
    <macStyle value="00000000 00000010"/>
    <lowestRecPPEM value="3"/>
    <fontDirectionHint value="2"/>
    <indexToLocFormat value="0"/>
    <glyphDataFormat value="0"/>
  </head>
          <CharString index="0">
            0 callgsubr
            -17 -107 callgsubr
            return
          </CharString>
          <CharString index="1">
            vstem
            528 629 rmoveto
            103 -13 -61 -318 rlineto
            -190 -36 -56 -53 -139 hhcurveto
            -73 -61 46 84 47 6 24 5 26 hvcurveto
            62 336 87 78 callsubr
            -8 -41 92 -93 callgsubr
            -14 -74 rlineto
            -7 -37 -6 -37 -33 vvcurveto
            -125 73 -69 135 146 105 77 212 40 vhcurveto
            65 343 86 64 callgsubr
            -242 hlineto
            return
          </CharString>
          <CharString index="2">
            293 444 rmoveto
            33 23 -22 -37 -54 -59 -69 -166 -48 hvcurveto
            125 10 97 105 62 hhcurveto
            -88 -457 rmoveto
            73 65 56 68 42 hvcurveto
            -23 18 rlineto
            -34 -27 -45 -39 -63 hhcurveto
            -61 -38 34 85 -4 hvcurveto
            228 66 63 90 64 vvcurveto
            59 -35 33 -65 -140 -121 -153 -161 -128 63 -58 88 vhcurveto
            return
          </CharString>
          <CharString index="3">
            -85 callsubr
            hstemhm
            398.5 3 callgsubr
            79 50 hintmask 1001001110000000
            -80 callsubr
            hintmask 0101010110000000
            -18 callsubr
            499 hlineto
            hintmask 0011010110000000
            7 callsubr
            hintmask 0101010110000000
            -100 callgsubr
            hintmask 0101100110000000
            -127 50 vlineto
            hintmask 0101010110000000
            6 callsubr
            return
          </CharString>
          <CharString index="4">
            rmoveto
            13 -22 50 22 51 21 50 22 rlinecurve
            48 22 6 16 17 vvcurveto
            21 -17 13 -20 -25 -10 -10 -27 -33 vhcurveto
            -38 -32 -37 -31 -38 -32 rrcurveto
            endchar
          </CharString>
          <CharString index="5">
            302 -14 rmoveto
            202 150 193 230 162 -93 113 -146 -197 -152 -193 -232 -169 94 -104 142 hvcurveto
            14 50 rmoveto
            -111 -50 89 132 214 110 163 138 113 49 -87 -136 -213 -110 -162 -139 hvcurveto
            return
          </CharString>
          <CharString index="6">
            -104 callgsubr
            193 -107 callsubr
            return
          </CharString>
          <CharString index="7">
            90 38 rmoveto
            -34 27 -17 27 71 52 62 60 45 vhcurveto
            -25 19 rlineto
            -48 -40 -32 59 callsubr
            71 342 -13 10 -170 -51 -4 -29 99 -6 -60 -290 rlineto
            -9 -41 -2 -17 -15 vvcurveto
            return
          </CharString>
          <CharString index="8">
            58 -21 30 -60 45 vhcurveto
            -57 42 -17 20 42 vvcurveto
            45 26 37 69 5 5 0 -1 4 vhcurveto
            9 -29 rlineto
            -30 10 18 -17 23 hhcurveto
            18 14 9 19 6 hvcurveto
            65 -15 -45 23 -59 hhcurveto
            -96 -63 -62 -78 -63 38 -36 50 -38 hvcurveto
            57 -41 8 -26 -32 vvcurveto
            -52 -41 -33 -69 -5 -5 0 1 -4 vhcurveto
            -11 43 rlineto
            28 -7 -12 16 -29 hhcurveto
            -16 -16 -11 -17 -5 hvcurveto
            return
          </CharString>
          <CharString index="9">
            -46 -37 rlineto
            17 -16 -18 10 -23 hhcurveto
            -129 -180 -208 -174 -83 47 -35 48 54 63 45 66 58 hvcurveto
            -3 -18 -1 -16 -19 vvcurveto
            -40 25 -18 27 vhcurveto
            return
          </CharString>
          <CharString index="10">
            67 17 39 42 52 vvcurveto
            52 -36 41 -76 -71 -46 -35 -61 -8 vhcurveto
            -12 4 13 -9 13 hhcurveto
            19 13 14 26 4 hvcurveto
            6 41 rlineto
            4 12 13 2 12 hhcurveto
            36 26 -20 -46 -63 -47 -31 -70 hvcurveto
            return
          </CharString>
          <CharString index="11">
            -22 callgsubr
            hintmask 11110100
            -97 callsubr
            hintmask 11111000
            -73 callgsubr
          </CharString>
          <CharString index="12">
            rmoveto
            97 89 115 159 93 -45 47 -69 -100 -86 -120 -158 -89 44 -47 70 hvcurveto
            4 29 rmoveto
            -28 -20 22 79 142 59 111 53 27 22 -21 -74 -132 -57 -127 -56 hvcurveto
            return
          </CharString>
          <CharString index="13">
            -3 -23 69 -31 -21 27 -21 487 -20 hstemhm
            362 83 hintmask 00111000
            68 283 rmoveto
            41 -6 42 136 80 -18 57 -15 69 -22 rlinecurve
            -88 -89 -94 -78 -86 -84 -42 -41 -20 -31 -20 -35 8 -6 rcurveline
            hintmask 01011000
            58 6 38 79 rlineto
            hintmask 10011000
            25 -30 rlineto
            -46 37 62 -26 50 hhcurveto
            77 83 72 73 24 -12 27 -21 8 hvcurveto
            -28 -3 -22 -19 -32 vvcurveto
            -19 9 -15 21 -25 vhcurveto
            -14 -22 -24 -8 -28 hhcurveto
            -44 -53 18 34 -47 hvcurveto
            -27 20 83 78 89 71 84 86 rlinecurve
            52 53 33 45 10 25 -12 10 rcurveline
            -55 -12 -34 -66 -82 35 -72 22 -83 22 rlinecurve
            -69 -55 rlineto
            return
          </CharString>
          <CharString index="14">
            34 30 rmoveto
            -28 42 75 -17 60 hhcurveto
            134 89 76 116 61 -25 52 -113 88 hvcurveto
            -71 54 -27 39 53 vvcurveto
            74 56 37 98 20 19 -2 -10 27 vhcurveto
            6 -123 rlineto
            59 hlineto
            23 140 rlineto
            33 -56 -56 12 -54 hhcurveto
            -127 -91 -77 -106 -62 26 -57 103 -78 hvcurveto
            89 -69 14 -36 -45 vvcurveto
            -69 -47 -51 -100 -29 -29 4 8 -27 vhcurveto
            -12 125 rlineto
            -57 hlineto
            return
          </CharString>
          <CharString index="15">
            -46.5 46.5 return
          </CharString>
          <CharString index="16">
            252 hlineto
            13 62 rlineto
            -199 hlineto
            179 147 54 38 64 vvcurveto
            54 -34 40 -75 -73 -51 -28 -77 -18 vhcurveto
            -20 2 12 -12 17 hhcurveto
            22 14 12 42 3 hvcurveto
            3 42 rlineto
            6 13 15 3 15 hhcurveto
            41 23 -22 -43 -49 -31 -43 -188 -169 hvcurveto
            endchar
          </CharString>
          <CharString index="17">
            47 -12 27 -16 -37 vvcurveto
            -30 -23 -17 -35 -25 -19 6 10 -22 vhcurveto
            -11 -25 rlineto
            -13 21 34 -10 34 hhcurveto
            64 39 34 40 45 -31 21 -61 22 hvcurveto
            return
          </CharString>
          <CharString index="18">
            -29 -26 -21 -44 -17 10 -18 15 -21 hvcurveto
            18 -25 -31 -46 -27 -26 -46 -36 rlinecurve
            20 -29 rlineto
            95 61 60 78 87 vvcurveto
            14 -2 12 -3 10 vhcurveto
            17 -18 -16 4 -20 hhcurveto
            return
          </CharString>
          <CharString index="19">
            rmoveto
            67 63 64 58 39 hvcurveto
            16 callgsubr
            -43 -35 -38 -29 -25 hhcurveto
            -13 -19 callgsubr
            3 21 6 25 hvcurveto
            80 353 rlineto
            return
          </CharString>
          <CharString index="20">
            rmoveto
            24 -9 rlineto
            58 13 28 26 26 hhcurveto
            32 20 -25 -23 20 hvcurveto
            -19 17 20 -19 38 hhcurveto
            51 40 42 86 17 hvcurveto
            -25 9 rlineto
            -58 -13 -28 -26 -26 hhcurveto
            -31 -19 26 23 -22 hvcurveto
            18 -17 -19 19 -38 hhcurveto
            -50 -43 -42 -86 -15 hvcurveto
            endchar
          </CharString>
          <CharString index="21">
            -5 -31 rlineto
            68 29 -23 -49 -61 -43 -30 -48 -15 -13 2 4 -12 hvcurveto
            -1 46 rlineto
            33 -1 -12 13 -20 hhcurveto
            -13 -11 -7 -16 -7 hvcurveto
            return
          </CharString>
          <CharString index="22">
            122 -51 callgsubr
            141 -58 callsubr
            return
          </CharString>
          <CharString index="23">
            rmoveto
            62 39 49 41 40 20 -31 -63 -30 -4 -27 -7 -25 vhcurveto
            -11 -22 -19 -4 -19 hhcurveto
            -43 -26 28 52 hvcurveto
            -78 -247 rmoveto
            6 -27 rlineto
            167 36 112 106 134 vvcurveto
            87 -43 51 -78 -82 -70 -65 -83 -64 40 -43 65 27 28 8 16 26 vhcurveto
            -30 -73 -66 -52 -102 -31 rrcurveto
            endchar
          </CharString>
          <CharString index="24">
            -160 -13 69 348 32 51 -20 hstem
            90 79 vstem
            -100 callsubr
            return
          </CharString>
          <CharString index="25">
            rmoveto
            2 callsubr
            -28 -28 -23 -35 -28 22 -17 24 hvcurveto
            218 hmoveto
            31 26 24 35 25 -20 19 -26 -28 -26 -23 -35 -28 21 -17 22 hvcurveto
            endchar
          </CharString>
          <CharString index="26">
            57 22 23 53 hvcurveto
            28 145 rlineto
            -60 hlineto
            -41 -125 rlineto
            -9 -29 -29 -6 -31 hhcurveto
            -115 -99 82 168 189 121 161 161 33 35 -7 -13 30 hvcurveto
            -123 57 vlineto
            23 140 rlineto
            40 -62 -54 13 -53 hhcurveto
            -209 -173 -183 -221 return
          </CharString>
          <CharString index="27">
            -92 callgsubr
            -58 -309 -86 -11 rlineto
            return
          </CharString>
          <CharString index="28">
            -99 12 rlineto
            -40 5 -12 23 17 vvcurveto
            14 3 14 22 26 vhcurveto
            -10 21 26 -5 30 hhcurveto
            80 71 58 129 30 hvcurveto
            5 23 5 19 7 17 rrcurveto
            64 18 35 12 40 vvcurveto
            8 -4 7 -5 6 vhcurveto
            4 -7 -10 2 -13 hhcurveto
            -37 -37 -26 -79 -19 hvcurveto
            return
          </CharString>
          <CharString index="29">
            11 -240 103 555 69 0 -20 26 -20 hstemhm
            -82 586 -305 55 hintmask 10011000
            -82 -182 rmoveto
            -34 3 24 -24 44 hhcurveto
            58 58 43 71 66 hvcurveto
            41 45 27 42 26 39 55 83 42 77 37 66 38 68 21 41 21 43 rrcurveto
            20 40 5 15 26 vvcurveto
            20 -14 14 -23 -28 -15 -21 -115 -33 vhcurveto
            hintmask 10100100
            -33 -114 -34 -73 -70 -127 -4 93 -7 102 -12 116 rrcurveto
            112 -12 -21 21 -38 hhcurveto
            -42 -45 -34 -85 -40 hvcurveto
            hintmask 11000100
            23 -16 rlineto
            54 36 14 12 17 hhcurveto
            18 6 -14 -127 15 hvcurveto
            17 -133 12 -68 8 -117 -17 -21 -17 -20 -19 -19 -28 -29 -30 -24 -32 -20 -3 2 rcurveline
            21 -29 -23 14 -29 hhcurveto
            hintmask 10011000
            -28 -21 -16 -29 -5 hvcurveto
            return
          </CharString>
          <CharString index="30">
            -291 524 rlineto
            -153 hlineto
            -9 -41 85 -10 4 -7 -105 -560 -82 -12 -9 -40 rlineto
            233 hlineto
            6 40 -100 13 94 494 rlineto
            return
          </CharString>
          <CharString index="31">
            -43 -176 rlineto
            -10 -41 -6 -17 -23 vvcurveto
            -26 19 -17 31 69 65 63 59 44 callgsubr
            -45 -36 -38 -27 return
          </CharString>
          <CharString index="32">
            -76 callsubr
            -25 hhcurveto
            -11 -8 7 14 10 6 20 7 28 hvcurveto
            return
          </CharString>
          <CharString index="33">
            rmoveto
            24 -18 114 107 rlineto
            24 22 7 21 16 vvcurveto
            19 -15 12 -19 -16 -20 -11 -32 -18 vhcurveto
            58 -136 rmoveto
            24 -18 113 107 rlineto
            25 22 7 21 16 vvcurveto
            19 -15 12 -19 -16 -20 -11 -32 -18 vhcurveto
            endchar
          </CharString>
          <CharString index="34">
            -15 rmoveto
            496 655 -33 26 -497 -656 rlineto
            return
          </CharString>
          <CharString index="35">
            46 -13 40 282 43 -21 21 267 41 hstemhm
            61 82 241 82 -47 77 hintmask 11011100
            234 -13 rmoveto
            122 110 66 127 hvcurveto
            hintmask 10111100
            79 -45 53 -86 19 vhcurveto
            hintmask 10111010
            93 24 68 60 97 vvcurveto
            85 -58 63 -106 -110 -64 -55 -94 -20 vhcurveto
            -19 2 21 -15 19 hhcurveto
            30 13 24 35 4 hvcurveto
            7 66 rlineto
            12 26 27 5 31 hhcurveto
            55 46 -34 -75 hvcurveto
            hintmask 11011010
            -107 -75 -51 -78 vhcurveto
            -37 hlineto
            -9 -43 rlineto
            34 hlineto
            hintmask 11011100
            89 41 -44 -80 -105 -65 -53 -84 -32 -31 7 15 -29 hvcurveto
            76 vlineto
            38 -12 21 -29 1 vhcurveto
            -20 1 -11 -8 -10 -18 rrcurveto
            -130 75 -43 98 vhcurveto
            endchar
          </CharString>
          <CharString index="36">
            rmoveto
            22 15 -12 -24 -36 -37 -47 -110 -32 hvcurveto
            82 5 64 69 41 hhcurveto
            -60 -302 rmoveto
            55 47 43 48 29 hvcurveto
            -17 13 rlineto
            hintmask 11011000
            -24 -20 -30 -24 -42 hhcurveto
            -40 -26 20 49 -5 hvcurveto
            151 37 47 56 50 vvcurveto
            41 -27 25 -47 vhcurveto
            hintmask 11101000
            -100 -82 -101 -110 -81 45 -42 62 hvcurveto
            endchar
          </CharString>
          <CharString index="37">
            211 -20 callgsubr
            197.5 46 381 -20 return
          </CharString>
          <CharString index="38">
            hintmask 10011000
            548 629 rmoveto
            107 -13 -86 -470 rlineto
            hintmask 10101000
            -77 callsubr
            hintmask 01101000
            -42 callgsubr
            return
          </CharString>
          <CharString index="39">
            rmoveto
            37 25 25 42 34 21 -25 -36 -34 -11 -28 -46 -28 vhcurveto
            -48 35 -17 20 34 vvcurveto
            return
          </CharString>
          <CharString index="40">
            -8 -41 -2 -17 -15 vvcurveto
            -34 26 -17 29 68 61 62 60 42 vhcurveto
            -25 19 rlineto
            -48 -40 -31 -24 -27 hhcurveto
            -12 -48 callsubr
            return
          </CharString>
          <CharString index="41">
            -97 416 52 -52 55 29 -20 224 46 -19 -20 hstemhm
            111 62 124 59 hintmask 01110110
            173 530 rmoveto
            99 72 75 54 15 14 -4 -7 13 vhcurveto
            -37 -171 rlineto
            -36 -40 -27 -15 -23 hhcurveto
            -24 -17 18 41 hvcurveto
            162 -114 rmoveto
            hintmask 10101110
            47 43 44 40 27 hvcurveto
            -18 13 rlineto
            -27 -23 -23 -18 -16 hhcurveto
            -9 -7 5 9 7 1 12 4 15 hvcurveto
            53 231 -12 8 -33 -24 rlineto
            hintmask 01110110
            12 -12 -15 7 -18 hhcurveto
            -90 -123 -134 -116 -61 33 -23 34 37 44 27 41 39 hvcurveto
            -1 -7 0 -6 -7 vvcurveto
            -33 16 -15 22 vhcurveto
            endchar
          </CharString>
          <CharString index="42">
            67 27 25 30 50 vvcurveto
            43 -39 42 -68 -74 -56 -47 -63 -38 20 -31 40 -32 vhcurveto
            return
          </CharString>
          <CharString index="43">
            -19 callgsubr
            4 10 callgsubr
            return
          </CharString>
          <CharString index="44">
            -133 rmoveto
            123 110 67 123 hvcurveto
            hintmask 10111000
            78 -48 57 -80 20 vhcurveto
            hintmask 10110100
            99 23 73 56 101 vvcurveto
            80 -55 68 -102 -113 -64 -55 -88 -22 vhcurveto
            -25 4 22 -15 18 hhcurveto
            31 16 23 35 3 hvcurveto
            7 67 rlineto
            12 26 26 6 32 hhcurveto
            53 43 -38 -77 hvcurveto
            hintmask 11010100
            -105 -79 -49 -83 vhcurveto
            -41 hlineto
            -8 -41 rlineto
            35 hlineto
            hintmask 11011000
            81 47 -51 -84 -94 -68 -54 -83 -20 -17 2 5 -16 hvcurveto
            -15 44 rlineto
            41 -14 -19 21 -31 hhcurveto
            -21 -17 -10 -30 -8 hvcurveto
            12 -73 79 -41 84 1 rrcurveto
            endchar
          </CharString>
          <CharString index="45">
            rmoveto
            27 21 -100 176 rlineto
            -32 hlineto
            -156 -176 20 -21 138 121 rlineto
            endchar
          </CharString>
          <CharString index="46">
            0 callgsubr
            -18 -107 callgsubr
            rrcurveto
            return
          </CharString>
          <CharString index="47">
            rmoveto
            26 18 rlineto
            -41 69 -21 63 81 vvcurveto
            122 50 107 112 87 vhcurveto
            -18 26 rlineto
            -136 -85 -69 -120 -130 vvcurveto
            -95 39 -78 58 -65 vhcurveto
            endchar
          </CharString>
          <CharString index="48">
            rmoveto
            -26 -19 rlineto
            40 -69 21 -62 -82 vvcurveto
            -122 -49 -107 -112 -87 vhcurveto
            18 -25 rlineto
            136 84 69 120 130 vvcurveto
            96 -39 77 -58 66 vhcurveto
            endchar
          </CharString>
          <CharString index="49">
            46 127 178 -51 51 -92 callsubr
            return
          </CharString>
          <CharString index="50">
            hintmask 01100100
            484 629 rmoveto
            65 -11 -300 -277 rlineto
            hintmask 01001100
            52 278 86 10 rlineto
            hintmask 10010100
            -52 callsubr
            -8 -41 -91 callgsubr
            39 callsubr
            hintmask 01010100
            -9 -40 rlineto
            265 hlineto
            8 40 -90 11 12 76 13 75 14 75 rlinecurve
            81 74 rlineto
            hintmask 10010100
            160 -301 -77 -10 rlineto
            hintmask 01010100
            -5 -40 rlineto
            250 hlineto
            6 40 -82 11 -191 356 227 209 99 13 8 41 rlineto
            -220 hlineto
            return
          </CharString>
          <CharString index="51">
            499 rmoveto
            71 46 54 63 59 38 -40 -65 -57 -23 -52 -84 -61 vhcurveto
            -59 51 -40 45 54 vvcurveto
            hintmask 11101000
            29 -511 rmoveto
            126 78 70 99 62 -43 52 -69 60 hvcurveto
            hintmask 11010100
            101 52 53 56 83 vvcurveto
            79 -63 59 -100 -96 -91 -67 -108 -58 35 -52 68 -61 vhcurveto
            hintmask 11100100
            -73 -29 -95 -63 -103 vvcurveto
            hintmask 11101000
            -78 59 -53 110 vhcurveto
            -94 133 rmoveto
            69 44 63 71 41 vhcurveto
            78 -68 26 -27 -55 vvcurveto
            -80 -54 -42 -68 -62 -35 40 59 vhcurveto
            endchar
          </CharString>
          <CharString index="52">
            rmoveto
            9 48 rlineto
            -66 hlineto
            52 255 rlineto
            -50 hlineto
            -238 -257 -9 -46 rlineto
            174 hlineto
            return
          </CharString>
          <CharString index="53">
            rmoveto
            24 -20 112 88 rlineto
            23 18 8 14 19 vvcurveto
            18 -15 9 -20 -16 -20 -9 -27 -19 vhcurveto
            75 -110 rmoveto
            22 -20 113 88 rlineto
            23 18 8 14 19 vvcurveto
            18 -16 9 -19 -16 -20 -9 -27 -19 vhcurveto
            endchar
          </CharString>
          <CharString index="54">
            505 hlineto
            hintmask 00110100
            36 188 rlineto
            -56 hlineto
            hintmask 01010100
            -48 -138 rlineto
            -255 hlineto
            14 87 18 callgsubr
            return
          </CharString>
          <CharString index="55">
            8 41 rlineto
            -265 hlineto
            return
          </CharString>
          <CharString index="56">
            -23 callsubr
            hintmask 10110000
            -63 -314 -81 -9 rlineto
            hintmask 01110000
            -6 -26 rlineto
            endchar
          </CharString>
          <CharString index="57">
            -91 42 -35 48 55 70 48 70 60 hvcurveto
            -7 -35 -1 -17 1 -14 rrcurveto
            -35 25 -17 31 67 62 64 58 44 callgsubr
            -43 -34 -38 -29 -26 hhcurveto
            -12 -19 callgsubr
            3 10 callgsubr
            endchar
          </CharString>
          <CharString index="58">
            -88 callgsubr
            rrcurveto
            return
          </CharString>
          <CharString index="59">
            -12 8 15 10 3 21 6 27 hvcurveto
            return
          </CharString>
          <CharString index="60">
            rmoveto
            28 28 -132 175 184 171 -22 31 -226 -176 -9 -53 rlineto
            return
          </CharString>
          <CharString index="61">
            128 56 callsubr
            hstem
            58 91 380 57 vstem
            330 -15 rmoveto
            85 -81 callsubr
            -178 105 -118 167 hvcurveto
            return
          </CharString>
          <CharString index="62">
            49 callgsubr
            hstemhm
            62 601 hintmask 10011000
            62 629 rmoveto
            80 -10 117 -339 -43 -230 -96 -10 rlineto
            hintmask 01101000
            -18 callsubr
            285 hlineto
            8 40 -101 12 12 75 13 76 14 75 rlinecurve
            222 338 90 13 8 41 rlineto
            -223 hlineto
            -8 -41 84 -13 -186 -287 -91 289 88 78 callsubr
            return
          </CharString>
          <CharString index="63">
            rmoveto
            96 53 75 73 22 hvcurveto
            -33 12 rlineto
            -53 -27 -42 -43 -62 hhcurveto
            -61 -30 44 52 -18 hvcurveto
            -33 -16 rlineto
            -70 6 32 -74 97 hhcurveto
            return
          </CharString>
          <CharString index="64">
            rmoveto
            -32 hlineto
            -152 -120 14 -24 144 82 121 -82 24 24 rlineto
            endchar
          </CharString>
          <CharString index="65">
            -133 rmoveto
            139 111 95 132 102 -67 72 -119 -31 -27 -5 -9 -25 hvcurveto
            46 192 rlineto
            263 hlineto
            17 81 rlineto
            -303 hlineto
            -74 -311 26 -7 rlineto
            11 25 29 6 37 hhcurveto
            73 50 -49 -90 -122 -68 -58 -101 -1 hvcurveto
            -11 -11 1 2 -11 hvcurveto
            -21 52 rlineto
            35 -15 -18 24 -33 hhcurveto
            -21 -20 -13 -30 -6 hvcurveto
            -72 17 74 -38 75 hhcurveto
            endchar
          </CharString>
          <CharString index="66">
            57 274 21 89 -7 6 -148 -35 -6 -26 78 5 return
          </CharString>
          <CharString index="67">
            207 rmoveto
            26 2 26 5 26 vhcurveto
            37 47 45 14 45 hhcurveto
            66 40 -34 -91 -122 -61 -63 -87 -65 -37 59 122 hvcurveto
            100 -220 rmoveto
            109 118 89 149 93 -55 69 -92 -57 -55 -19 -42 -51 hvcurveto
            45 152 129 127 197 21 -1 32 rcurveline
            -269 -8 -200 -210 -238 vvcurveto
            -130 67 -85 115 vhcurveto
            endchar
          </CharString>
          <CharString index="68">
            211 rmoveto
            29 2 28 5 27 vhcurveto
            28 40 45 7 38 hhcurveto
            73 38 -33 -90 -118 -61 -63 -63 -77 -40 59 126 hvcurveto
            102 -224 rmoveto
            103 115 84 149 100 -58 67 -91 -59 -49 -18 -38 -49 hvcurveto
            40 157 122 117 199 21 -2 32 rcurveline
            -281 -8 -172 -207 -230 vvcurveto
            -143 68 -83 114 vhcurveto
            endchar
          </CharString>
          <CharString index="69">
            -89 callsubr
            endchar
          </CharString>
          <CharString index="70">
            8 53 rlineto
            -129 -89 callgsubr
            return
          </CharString>
          <CharString index="71">
            25 126 9 callsubr
            127 129 -4 rcurveline
            return
          </CharString>
          <CharString index="72">
            -26 -21 hhcurveto
            -13 -48 callsubr
            return
          </CharString>
          <CharString index="73">
            rmoveto
            30 26 24 31 hvcurveto
            25 -1 -19 20 -27 hhcurveto
            -31 -25 -23 -31 -25 19 -21 28 hvcurveto
            return
          </CharString>
          <CharString index="74">
            319 rmoveto
            101 57 80 80 78 36 -64 -101 -34 -4 -32 -7 -31 vhcurveto
            -40 -55 -38 -11 -43 hhcurveto
            -56 -48 55 77 hvcurveto
            -125 -452 rmoveto
            273 64 178 180 220 vvcurveto
            123 -63 86 -110 -131 -97 -104 -128 -99 60 -66 87 49 48 14 39 59 vhcurveto
            -49 -136 -124 -100 -187 -55 rrcurveto
            endchar
          </CharString>
          <CharString index="75">
            -18 callsubr
            274 hlineto
            203 191 129 265 1 hvcurveto
            171 -110 105 -171 vhcurveto
            -274 hlineto
            return
          </CharString>
          <CharString index="76">
            hmoveto
            379 hlineto
            16 77 rlineto
            -311 hlineto
            116 105 rlineto
            163 146 98 65 113 vvcurveto
            87 -54 67 -121 -107 -65 -47 -112 -24 vhcurveto
            -20 3 16 -17 21 hhcurveto
            27 18 14 60 6 hvcurveto
            7 61 rlineto
            14 23 25 6 30 hhcurveto
            74 42 -40 -77 -76 -47 -58 -175 -165 hvcurveto
            -147 -139 rlineto
            endchar
          </CharString>
          <CharString index="77">
            392 24 rmoveto
            -155 -112 101 174 215 158 131 175 154 112 -102 -172 -218 -157 -129 -175 hvcurveto
            4 -39 rmoveto
            196 183 145 245 195 -135 115 -186 -197 -182 -146 -245 -195 134 -114 187 hvcurveto
            return
          </CharString>
          <CharString index="78">
            rmoveto
            -52 -1 -27 38 71 vvcurveto
            93 34 65 70 2 vhcurveto
            42 1 35 -39 -64 vvcurveto
            -106 -39 -59 -63 -1 vhcurveto
            return
          </CharString>
          <CharString index="79">
            hlineto
            -50 -48 -51 -54 -60 vvcurveto
            -23 callgsubr
            52 34 46 39 39 hvcurveto
            return
          </CharString>
          <CharString index="80">
            -170 -51 -4 -29 99 -6 -85 -401 10 -8 rlineto
            return
          </CharString>
          <CharString index="81">
            -67 callgsubr
            256 -47 -3 callgsubr
            return
          </CharString>
          <CharString index="82">
            rmoveto
            66 -8 -95 -466 -68 -8 -7 -33 rlineto
            122 hlineto
            112 548 rlineto
            -123 hlineto
            endchar
          </CharString>
          <CharString index="83">
            -47 42.5 return
          </CharString>
          <CharString index="84">
            5 26 -85 10 -41 callsubr
            rlineto
            return
          </CharString>
          <CharString index="85">
            rmoveto
            85 58 68 59 20 hvcurveto
            -30 12 rlineto
            -45 -26 -42 -35 -54 hhcurveto
            -55 -41 32 47 -19 hvcurveto
            -28 -14 rlineto
            -75 14 45 -49 73 hhcurveto
            endchar
          </CharString>
          <CharString index="86">
            -69 -33 -57 -58 -60 vvcurveto
            -72 70 -34 93 166 123 86 105 57 -40 38 -107 14 vhcurveto
            return
          </CharString>
          <CharString index="87">
            25 24 35 25 -19 19 return
          </CharString>
          <CharString index="88">
            rmoveto
            -189 hlineto
            hintmask 10110000
            -18 callsubr
            hintmask 11010000
            111 -13 -15 -88 -18 -89 -17 -87 rlinecurve
            -46 -240 -17 -89 -18 -89 -18 -86 rlinecurve
            -116 -13 -18 callsubr
            189 hlineto
            18 105 20 107 21 105 46 240 rcurveline
            21 107 21 107 23 103 rrcurveto
            endchar
          </CharString>
          <CharString index="89">
            -8 -40 rlineto
            return
          </CharString>
          <CharString index="90">
            -9 rmoveto
            148 137 197 235 158 -70 75 -102 -155 -129 -195 -249 -140 61 -81 110 hvcurveto
            7 42 rmoveto
            -62 -37 46 139 221 107 174 93 54 43 -43 -134 -226 -105 -177 -93 hvcurveto
            endchar
          </CharString>
          <CharString index="91">
            -190 717 -20 hstem
            191 114 vstem
            246 4 callgsubr
            endchar
          </CharString>
          <CharString index="92">
            rmoveto
            123 hlineto
            6 33 -65 8 95 466 69 8 6 33 rlineto
            -122 hlineto
            endchar
          </CharString>
          <CharString index="93">
            190 -15 50 237 46 -44.5 44.5 317 50 return
          </CharString>
          <CharString index="94">
            16 callsubr
            -9 -57 -11 -64 -10 -50 -97 -477 rcurveline
            10 -8 67 8 11 70 13 70 14 70 rlinecurve
            return
          </CharString>
          <CharString index="95">
            -19 -104 -17 -56 -26 -37 -13 -20 -14 -13 -13 -10 -13 12 rcurveline
            22 -22 -21 19 -29 hhcurveto
            -22 -20 -15 -21 -4 hvcurveto
            -38 9 38 -24 46 hhcurveto
            32 33 12 37 41 hvcurveto
            56 50 26 79 21 107 29 146 22 160 25 144 return
          </CharString>
          <CharString index="96">
            54 callsubr
            212 -4 rcurveline
            -66 -311 rlineto
            -9 -41 -1 -17 -15 vvcurveto
            -34 26 -17 28 71 51 62 60 45 63 callsubr
            -48 -41 -31 59 callsubr
            return
          </CharString>
          <CharString index="97">
            16 86 rlinecurve
            58 309 86 10 rlineto
            return
          </CharString>
          <CharString index="98">
            51 callgsubr
            -4 hlineto
            return
          </CharString>
          <CharString index="99">
            58 277 rmoveto
            -173 109 -119 180 75 61 17 28 62 vhcurveto
            return
          </CharString>
          <CharString index="100">
            57 -13 17 callsubr
            return
          </CharString>
          <CharString index="101">
            114 vstem
            209 476 rmoveto
            -61 callgsubr
            return
          </CharString>
          <CharString index="102">
            181 0 45 -45 46 -35 -21 320 45 268 47 -92 callsubr
            hstemhm
            return
          </CharString>
          <CharString index="103">
            rmoveto
            34 21 rlineto
            -74 124 -34 103 135 vvcurveto
            211 90 154 182 146 vhcurveto
            -23 31 rlineto
            -218 -145 -109 -187 -207 vvcurveto
            -144 55 -123 97 -119 vhcurveto
            endchar
          </CharString>
          <CharString index="104">
            21 -241 47 187 72 -51 -21 162 32 268 32 11 -20 return
          </CharString>
          <CharString index="105">
            71.5 108.5 71 return
          </CharString>
          <CharString index="106">
            rmoveto
            35 6 34 16 32 27 63 53 39 76 19 93 88 454 rcurveline
            -13 10 -169 -51 -3 -29 98 -6 -68 -353 -22 -121 -26 -50 -34 -43 rlinecurve
            -20 -25 -25 -14 -36 -15 rrcurveto
            endchar
          </CharString>
          <CharString index="107">
            -86 -16 -86 return
          </CharString>
          <CharString index="108">
            48 callsubr
            -57 callgsubr
            return
          </CharString>
          <CharString index="109">
            30 -20 callsubr
            -26 return
          </CharString>
          <CharString index="110">
            -59 -310 -85 -10 return
          </CharString>
          <CharString index="111">
            549 45 callsubr
            3 37 -9 callgsubr
            endchar
          </CharString>
          <CharString index="112">
            rmoveto
            34 -5 38 70 rlineto
            44 81 43 77 40 vvcurveto
            23 -8 16 -29 -16 -16 -4 -11 -17 vhcurveto
            return
          </CharString>
          <CharString index="113">
            24 178 rlineto
            -462 hlineto
            return
          </CharString>
          <CharString index="114">
            39 178 rlineto
            -51 hlineto
            return
          </CharString>
          <CharString index="115">
            rmoveto
            -33 hlineto
            -96 -314 -28 -79 -47 vvcurveto
            -30 14 -16 31 28 24 15 62 12 vhcurveto
            5 28 11 89 13 135 rrcurveto
            94 309 rmoveto
            34 -25 24 -31 -38 -33 -31 -37 return
          </CharString>
          <CharString index="116">
            20 137 22 return
          </CharString>
          <CharString index="117">
            97 40 79 89 96 vvcurveto
            17 -4 12 -7 11 vhcurveto
            7 -14 -18 5 -14 hhcurveto
            -44 -18 -28 -30 -20 7 -19 11 -12 hvcurveto
            28 -33 -33 -50 -38 -33 -47 -24 rlinecurve
            endchar
          </CharString>
          <CharString index="118">
            -250 98 139 return
          </CharString>
          <CharString index="119">
            46.5 -46 46 return
          </CharString>
          <CharString index="120">
            46 128 rlineto
            150 hlineto
            -14 -86 -15 -87 -16 -86 -58 -309 rcurveline
            -97 -11 return
          </CharString>
          <CharString index="121">
            19 -21 1 vhcurveto
            -266 -207 90 457 -6 8 return
          </CharString>
          <CharString index="122">
            -127 -105 -82 -185 -31 hvcurveto
            -3 -1 -3 -3 vvcurveto
            return
          </CharString>
          <CharString index="123">
            -37 callsubr
            3 3 0 1 4 hvcurveto
            return
          </CharString>
          <CharString index="124">
            69 365 66 10 -20 return
          </CharString>
          <CharString index="125">
            72 0 50 -50 178 313 179 -51 51 return
          </CharString>
          <CharString index="126">
            -47 -33 -28 -32 -37 vvcurveto
            -21 9 -28 35 -17 vhcurveto
            return
          </CharString>
          <CharString index="127">
            96 64 callgsubr
            -275 hlineto
            return
          </CharString>
          <CharString index="128">
            98 -13 callgsubr
            hstemhm
            return
          </CharString>
          <CharString index="129">
            -58 -13 69 388 43 return
          </CharString>
          <CharString index="130">
            -37 callsubr
            4 return
          </CharString>
          <CharString index="131">
            45 185 rlineto
            8 33 9 33 32 vvcurveto
            46 return
          </CharString>
          <CharString index="132">
            hhcurveto
            -29 -21 19 38 return
          </CharString>
          <CharString index="133">
            29 callgsubr
            -74 -30 rlineto
            return
          </CharString>
          <CharString index="134">
            rmoveto
            -88 callgsubr
            return
          </CharString>
          <CharString index="135">
            -8 29 -15 -21 261 29 100 31 223 31 -20 -20 hstemhm
            76 70 161 69 159 70 161 69 return
          </CharString>
          <CharString index="136">
            10 rmoveto
            7 -10 rlineto
            76 hlineto
            358 596 10 51 rlineto
            -391 hlineto
            -15 -75 rlineto
            331 hlineto
            endchar
          </CharString>
          <CharString index="137">
            rmoveto
            -16 -11 -2 -6 -15 hvcurveto
            -43 -218 return
          </CharString>
          <CharString index="138">
            195.5 62 callgsubr
            return
          </CharString>
          <CharString index="139">
            -95 callgsubr
            16 14 9 23 7 hvcurveto
            return
          </CharString>
          <CharString index="140">
            70 64 55 39 44 hhcurveto
            37 23 -32 -64 -82 -35 -86 -54 -52 hvcurveto
            -35 -37 -40 -19 -41 hhcurveto
            return
          </CharString>
          <CharString index="141">
            346 219 64 hstem
            56 731 vstem
            56 219 rmoveto
            731 64 -731 hlineto
            endchar
          </CharString>
          <CharString index="142">
            -39 32 17 -16 30 hhcurveto
            18 14 10 24 7 hvcurveto
            return
          </CharString>
          <CharString index="143">
            90.5 237.5 81 vstem
            return
          </CharString>
          <CharString index="144">
            -205 -177 -172 -236 hvcurveto
            return
          </CharString>
          <CharString index="145">
            hstemhm
            45 78 188 75 return
          </CharString>
          <CharString index="146">
            3 callsubr
            rlineto
            return
          </CharString>
          <CharString index="147">
            26 124 rlineto
            58 72 56 28 36 hhcurveto
            22 13 -11 -35 -20 -8 -33 -8 -34 hvcurveto
            return
          </CharString>
          <CharString index="148">
            42 callgsubr
            rrcurveto
            return
          </CharString>
          <CharString index="149">
            vvcurveto
            -226 -105 -177 -93 vhcurveto
            -7 -42 rmoveto
            148 137 197 235 return
          </CharString>
          <CharString index="150">
            30 163 31 160 30 return
          </CharString>
          <CharString index="151">
            15 86 16 86 rlinecurve
            return
          </CharString>
          <CharString index="152">
            rmoveto
            55 60 40 74 55 -47 34 -51 -53 -60 -40 -72 -56 43 -35 53 hvcurveto
            return
          </CharString>
          <CharString index="153">
            rmoveto
            22 22 22 26 25 -16 17 -24 -22 -21 -21 -27 -26 16 -16 23 hvcurveto
            return
          </CharString>
          <CharString index="154">
            61 287 129 -4 return
          </CharString>
          <CharString index="155">
            -18 callsubr
            265 hlineto
            return
          </CharString>
          <CharString index="156">
            -214 -250 1000 hstem
            113 57 vstem
            113 -250 rmoveto
            57 return
          </CharString>
          <CharString index="157">
            37 474 37 hstem
            return
          </CharString>
          <CharString index="158">
            hstemhm
            72 -35 callgsubr
            return
          </CharString>
          <CharString index="159">
            rlineto
            25 hlineto
            131 222 -29 -194 -38 -4 -4 -24 rlineto
            return
          </CharString>
          <CharString index="160">
            -12 8 -171 -50 -4 -29 101 -7 return
          </CharString>
          <CharString index="161">
            25 127 22 137 20 127 return
          </CharString>
          <CharString index="162">
            29 179 rlineto
            -522 hlineto
            return
          </CharString>
          <CharString index="163">
            -15 50 600 50 return
          </CharString>
          <CharString index="164">
            46.5 774.5 53 -40 40 hstemhm
            return
          </CharString>
          <CharString index="165">
            hlineto
            -34 -96 rlineto
            return
          </CharString>
          <CharString index="166">
            -24 -24 hhcurveto
            -11 -64 callsubr
            return
          </CharString>
          <CharString index="167">
            25 126 21 137 21 127 129 -4 rcurveline
            return
          </CharString>
          <CharString index="168">
            43 callsubr
            hstemhm
            return
          </CharString>
          <CharString index="169">
            rlineto
            5 21 5 21 18 vvcurveto
            35 return
          </CharString>
          <CharString index="170">
            vhcurveto
            16 callgsubr
            return
          </CharString>
          <CharString index="171">
            40 787.5 46.5 hstem
            return
          </CharString>
          <CharString index="172">
            -92 callsubr
            -46 46 return
          </CharString>
          <CharString index="173">
            239 32 hstem
            82 80 241 79 vstem
            162 return
          </CharString>
          <CharString index="174">
            53 38 53 hstem
            79 47 312 47 vstem
            299 return
          </CharString>
          <CharString index="175">
            65 203 53 147 53 hstem
            59 444 vstem
            return
          </CharString>
          <CharString index="176">
            -3 -23 64 -5 -55 -259 8 -6 rlineto
            endchar
          </CharString>
          <CharString index="177">
            -9 42 580 43 hstem
            return
          </CharString>
          <CharString index="178">
            -104 -85 -88 -109 hvcurveto
            return
          </CharString>
          <CharString index="179">
            76 491 rmoveto
            51 hlineto
            return
          </CharString>
          <CharString index="180">
            -33 25 -24 34 return
          </CharString>
          <CharString index="181">
            rmoveto
            -70 9 -30 25 40 65 66 99 88 vvcurveto
            return
          </CharString>
          <CharString index="182">
            55 95.5 24.5 return
          </CharString>
          <CharString index="183">
            rmoveto
            38 4 25 16 76 vhcurveto
            return
          </CharString>
          <CharString index="184">
            vhcurveto
            38 34 43 24 43 hhcurveto
            return
          </CharString>
          <CharString index="185">
            11 -52 callsubr
            return
          </CharString>
          <CharString index="186">
            hstem
            120 85 return
          </CharString>
          <CharString index="187">
            69 0 70 164 74 -23 69 hintmask 11010100
            return
          </CharString>
          <CharString index="188">
            hlineto
            -189 hlineto
            1 4 0 3 1 4 return
          </CharString>
          <CharString index="189">
            405 -9 30 -15 -21 199 31 39 return
          </CharString>
          <CharString index="190">
            rlineto
            -261 hlineto
            return
          </CharString>
          <CharString index="191">
            14 -21 26 -21 420 69 hstemhm
            return
          </CharString>
          <CharString index="192">
            68 35 42 96 12 vhcurveto
            endchar
          </CharString>
          <CharString index="193">
            -13 159 -48 48 return
          </CharString>
          <CharString index="194">
            75 250 76 vstem
            return
          </CharString>
          <CharString index="195">
            hlineto
            -10 -50 rlineto
            return
          </CharString>
          <CharString index="196">
            240 hintmask 01110000
            return
          </CharString>
          <CharString index="197">
            60 120 hstemhm
            return
          </CharString>
          <CharString index="198">
            -45 -44 -50 -56 vvcurveto
            return
          </CharString>
          <CharString index="199">
            rmoveto
            231 64 -231 hlineto
            endchar
          </CharString>
          <CharString index="200">
            13 rlineto
            -29 -24 -24 -16 -16 hhcurveto
            return
          </CharString>
          <CharString index="201">
            -167 283 hstem
            73 114 return
          </CharString>
          <CharString index="202">
            -231 32 return
          </CharString>
        <CharString name=".notdef">
          175 0 50 569 51 hstem
          80 60 360 60 vstem
          80 hmoveto
          480 670 -480 hlineto
          92 -620 rmoveto
          148 236 148 -236 rlineto
          -328 524 rmoveto
          150 -239 -150 -239 rlineto
          211 239 rmoveto
          149 239 rlineto
          -478 vlineto
          -327 523 rmoveto
          294 hlineto
          -147 -235 rlineto
          endchar
        </CharString>
        <CharString name="A">
          -70 callsubr
          hstemhm
          -29 668 hintmask 10111000
          -29 hmoveto
          -1 callgsubr
          262 249 rmoveto
          150 283 38 -283 rlineto
          endchar
        </CharString>
        <CharString name="AE">
          415 -51 callgsubr
          65 46 30 46 127 178 -56 56 -51 51 -92 callsubr
          hstemhm
          691.5 41.5 88 51 hintmask 0101000101100000
          462 360 rmoveto
          -13 -71 rlineto
          -171 hlineto
          hintmask 0101001001100000
          223 325 rlineto
          5 hlineto
          hintmask 0101000101100000
          -14 -85 -14 -85 -16 -84 rrcurveto
          -500 -360 rmoveto
          224 hlineto
          8 40 -79 12 131 191 rlineto
          194 hlineto
          hintmask 1001000101100000
          -36 -192 -87 -11 rlineto
          hintmask 0101000101100000
          -18 callsubr
          500 hlineto
          hintmask 0011000101100000
          7 callsubr
          hintmask 0101100101100000
          -45 -128 rlineto
          -260 hlineto
          14 87 18 callgsubr
          2 9 rcurveline
          154 hlineto
          -3 -95 rlineto
          43 hlineto
          45 237 rlineto
          -43 58 callsubr
          -154 hlineto
          48 254 rlineto
          226 hlineto
          hintmask 0101010001100000
          -127 51 vlineto
          hintmask 0101000101100000
          24 178 rlineto
          -524 hlineto
          hintmask 0101000011100000
          -8 -41 89 -11 -394 -566 -89 -12 rlineto
          endchar
        </CharString>
        <CharString name="Aacute">
          -45 callgsubr
          418 695 -103 callsubr
        </CharString>
        <CharString name="Abreve">
          -70 callsubr
          81 59 hstemhm
          -29 668 hintmask 10111100
          -29 hmoveto
          -81 callgsubr
          hintmask 01111100
          -30 callgsubr
          hintmask 10111100
          -60 callgsubr
          12 442 -22 callsubr
        </CharString>
        <CharString name="Acircumflex">
          -70 callsubr
          hstemhm
          -29 668 hintmask 10111000
          -29 hmoveto
          -1 callgsubr
          262 249 rmoveto
          150 283 38 -283 rlineto
          44 572 -43 callsubr
        </CharString>
        <CharString name="Adieresis">
          -70 callsubr
          98 103 hstemhm
          275 86 callgsubr
          hintmask 10111110
          -29 hmoveto
          -81 callgsubr
          hintmask 01111110
          -30 callgsubr
          hintmask 10111110
          -60 callgsubr
          -108 459 -82 callsubr
        </CharString>
        <CharString name="Agrave">
          -45 callgsubr
          501 706 -76 callgsubr
        </CharString>
        <CharString name="Amacron">
          -70 callsubr
          109 58 hstemhm
          -29 668 hintmask 10111100
          -29 hmoveto
          -81 callgsubr
          hintmask 01111100
          -30 callgsubr
          hintmask 10111100
          -343 -618 -83 -12 rlineto
          298 719 6 callgsubr
          -47 -528 rmoveto
          150 283 38 -283 rlineto
          endchar
        </CharString>
        <CharString name="Aogonek">
          211 -240 46 194 45 -45 -74 callgsubr
          197.5 46 381 -20 hstemhm
          402 62 hintmask 11011100
          -29 hmoveto
          224 hlineto
          8 40 -87 13 101 190 rlineto
          218 hlineto
          26 -193 -87 -10 -18 callsubr
          137 -28 callsubr
          94 hlineto
          hintmask 10111100
          -30 callgsubr
          hintmask 11011100
          -60 callgsubr
          endchar
        </CharString>
        <CharString name="Aring">
          -70 callsubr
          63 33 119 33 hstemhm
          353 41 111 41 hintmask 10111111
          -29 hmoveto
          -81 callgsubr
          hintmask 01111111
          -30 callgsubr
          hintmask 10111111
          -60 callgsubr
          17 457 9 callgsubr
        </CharString>
        <CharString name="Atilde">
          -70 callsubr
          74 92 callgsubr
          -29 673 hintmask 10111010
          -29 hmoveto
          -81 callgsubr
          hintmask 01111010
          -30 callgsubr
          hintmask 10111110
          -60 callgsubr
          -167 446 2 callgsubr
          hintmask 10111010
          -32 callgsubr
          hintmask 10111110
          30 callgsubr
        </CharString>
        <CharString name="B">
          159 0 -84 callgsubr
          46 281 46 250 47 -92 callsubr
          hstemhm
          477 93 -78 87 hintmask 10101100
          -80 callsubr
          hintmask 01110100
          -18 callsubr
          277 hlineto
          163 114 72 114 77 -53 68 -97 22 hvcurveto
          hintmask 01110010
          92 24 67 63 84 vvcurveto
          81 -61 65 -133 vhcurveto
          -255 hlineto
          113 -360 rmoveto
          3 17 rlineto
          74 hlineto
          hintmask 01110100
          91 66 -46 -82 -85 -53 -68 -141 hvcurveto
          -86 hlineto
          hintmask 01110010
          14 88 16 88 16 88 rrcurveto
          129 313 rmoveto
          81 39 -47 -66 -77 -55 -60 -127 hvcurveto
          -55 hlineto
          47 250 rlineto
          endchar
        </CharString>
        <CharString name="C">
          -46 callsubr
          endchar
        </CharString>
        <CharString name="Cacute">
          -46 callsubr
          68 750 -103 callsubr
        </CharString>
        <CharString name="Ccaron">
          128 56 callsubr
          44 52 hstem
          58 91 380 57 vstem
          330 -15 rmoveto
          85 -81 callsubr
          -178 105 -118 167 hvcurveto
          883 vmoveto
          -70 callgsubr
        </CharString>
        <CharString name="Ccedilla">
          128 95 callsubr
          184 50 -49 49 600 50 hstemhm
          58 91 195 57 128 57 hintmask 11011110
          270 -87 rmoveto
          -90 callsubr
          25 54 rlineto
          81 -81 callsubr
          hvcurveto
          hintmask 10111110
          -169 95 -115 153 -11 vhcurveto
          endchar
        </CharString>
        <CharString name="D">
          236 0 -84 callgsubr
          46 577 47 -92 callsubr
          hstemhm
          590 95 hintmask 10011000
          -80 callsubr
          hintmask 01101000
          -32 callsubr
          113 -360 rmoveto
          59 313 -36 callgsubr
          rrcurveto
          endchar
        </CharString>
        <CharString name="Dcaron">
          236 0 -84 callgsubr
          46 577 47 -92 callsubr
          59 52 hstemhm
          590 95 hintmask 10010100
          -80 callsubr
          hintmask 01101100
          -32 callsubr
          113 -360 rmoveto
          59 313 -36 callgsubr
          rrcurveto
          60 558 rmoveto
          -70 callgsubr
        </CharString>
        <CharString name="Dcroat">
          -71 callgsubr
        </CharString>
        <CharString name="E">
          -104 callsubr
          endchar
        </CharString>
        <CharString name="Eacute">
          -104 callsubr
          239 65 -103 callsubr
        </CharString>
        <CharString name="Ecaron">
          -85 callsubr
          59 52 hstemhm
          398.5 3 callgsubr
          79 50 hintmask 1001001011000000
          -80 callsubr
          hintmask 0101010011000000
          -18 callsubr
          499 hlineto
          hintmask 0011010011000000
          7 callsubr
          hintmask 0101010011000000
          -100 callgsubr
          hintmask 0101100011000000
          -127 50 vlineto
          hintmask 0101010111000000
          6 callsubr
          185 198 rmoveto
          -70 callgsubr
        </CharString>
        <CharString name="Ecircumflex">
          -104 callsubr
          300 191 -43 callsubr
        </CharString>
        <CharString name="Edieresis">
          -85 callsubr
          78 103 hstemhm
          249 101 48.5 3 callgsubr
          31 100 -52 50 hintmask 1001001011010000
          -80 callsubr
          hintmask 0101010011010000
          -18 callsubr
          499 hlineto
          hintmask 0011010011010000
          7 callsubr
          hintmask 0101010011010000
          -100 callgsubr
          hintmask 0101100011010000
          -127 50 vlineto
          hintmask 0101010111100000
          6 callsubr
          165 78 -82 callsubr
        </CharString>
        <CharString name="Edotaccent">
          -85 callsubr
          90 callsubr
          362 112 -75.5 3 callgsubr
          79 50 hintmask 1001001001100000
          -80 callsubr
          hintmask 0101010001100000
          -18 callsubr
          499 hlineto
          hintmask 0011010001100000
          7 callsubr
          hintmask 0101010001100000
          -100 callgsubr
          hintmask 0101100001100000
          -127 50 vlineto
          hintmask 0101010110100000
          6 callsubr
          286 60 -43 callgsubr
        </CharString>
        <CharString name="Egrave">
          -104 callsubr
          307 76 -76 callgsubr
        </CharString>
        <CharString name="Emacron">
          -85 callsubr
          89 58 hstemhm
          398.5 3 callgsubr
          79 50 hintmask 1001001111000000
          -80 callsubr
          hintmask 0101010111000000
          -18 callsubr
          499 hlineto
          hintmask 0011010111000000
          7 callsubr
          hintmask 0101010111000000
          -100 callgsubr
          hintmask 0101100111000000
          -127 50 vlineto
          hintmask 0101010111000000
          6 callsubr
          123 89 6 callgsubr
          endchar
        </CharString>
        <CharString name="Eogonek">
          122 -240 46 194 -84 callgsubr
          50 269 -58 callsubr
          hstemhm
          294 62 42.5 3 callgsubr
          79 50 hintmask 1101001111000000
          -80 callsubr
          hintmask 1011010111000000
          -18 callsubr
          379 -28 callsubr
          86 hlineto
          7 callsubr
          -100 callgsubr
          hintmask 1011100111000000
          -127 50 vlineto
          hintmask 1011010111000000
          6 callsubr
          endchar
        </CharString>
        <CharString name="Eth">
          -71 callgsubr
        </CharString>
        <CharString name="Euro">
          46 -15 45 204 50 82 50 196 46 hstemhm
          85 78 -77 79 296.5 94.5 hintmask 11111010
          307 -15 rmoveto
          82 81 48 86 16 hvcurveto
          24 -8 -15 10 -18 hhcurveto
          -29 -12 -15 -43 -22 hvcurveto
          -33 -63 rlineto
          -1 -10 -9 -1 -10 hhcurveto
          -96 -59 68 136 -2 hvcurveto
          229 89 callgsubr
          hintmask 11110110
          -237 hlineto
          2 29 4 27 7 26 rrcurveto
          240 89 callgsubr
          -235 hlineto
          118 42 83 78 89 hhcurveto
          16 17 -2 -5 19 hvcurveto
          5 -69 rlineto
          -50 4 9 -16 34 hhcurveto
          20 19 15 28 6 hvcurveto
          94 -5 -60 51 -85 hhcurveto
          -127 -116 -95 -147 -51 hvcurveto
          -56 88 callsubr
          52 hlineto
          -6 -26 -4 -27 -2 -29 rrcurveto
          hintmask 11111010
          -56 88 callsubr
          65 hlineto
          -145 5 71 -104 146 hhcurveto
          endchar
        </CharString>
        <CharString name="F">
          85 0 45 -45 46 273 -58 callsubr
          hstemhm
          398.5 3 callgsubr
          87 50 hintmask 10100111
          11 callgsubr
          hintmask 01101011
          -18 callsubr
          270 hlineto
          8 40 -96 32 callgsubr
          2 9 rlineto
          155 hlineto
          -3 -105 rlineto
          42 hlineto
          44 247 rlineto
          -42 58 callsubr
          -154 hlineto
          48 254 rlineto
          225 hlineto
          hintmask 01110011
          -127 50 vlineto
          hintmask 01101011
          29 178 rlineto
          -475 hlineto
          endchar
        </CharString>
        <CharString name="G">
          -14 callsubr
          hstemhm
          58 91 400 56 hintmask 11011000
          -8 callsubr
          hintmask 10111000
          44 239 72 9 rlineto
          hintmask 11011100
          -79 callgsubr
          hintmask 11011000
          37 callsubr
          endchar
        </CharString>
        <CharString name="Gbreve">
          -14 callsubr
          46 59 hstemhm
          58 91 400 56 hintmask 11011100
          -8 callsubr
          hintmask 10111100
          44 239 72 9 rlineto
          hintmask 11011110
          -79 callgsubr
          hintmask 11011100
          37 callsubr
          396 454 -22 callsubr
        </CharString>
        <CharString name="Gdotaccent">
          -14 callsubr
          45 120 hstemhm
          58 91 256 112 32 56 hintmask 11010100
          -8 callsubr
          hintmask 10110100
          44 239 72 9 rlineto
          hintmask 11010101
          -79 callgsubr
          hintmask 11010100
          37 callsubr
          hintmask 11011110
          401 453 -43 callgsubr
        </CharString>
        <CharString name="H">
          299 -20 callgsubr
          274.5 46 257.5 12 callsubr
          hstemhm
          17 783 hintmask 10110100
          527 629 rmoveto
          92 -11 -14 -84 -15 -84 -15 -84 rlinecurve
          -321 hlineto
          hintmask 10101100
          47 253 86 10 rlineto
          hintmask 10110100
          -52 callsubr
          -8 -41 92 -11 -14 -86 -16 0 callsubr
          rlinecurve
          -59 -310 -84 -10 48 callsubr
          hintmask 01110100
          8 40 -92 11 14 87 44 callsubr
          2 10 rlineto
          321 hlineto
          hintmask 10101100
          -51 -270 -85 -10 48 callsubr
          8 40 -92 12 14 86 15 86 -10 callsubr
          hintmask 10110100
          -52 callsubr
          endchar
        </CharString>
        <CharString name="I">
          -52 callgsubr
          hstemhm
          16 379 -78 callgsubr
          endchar
        </CharString>
        <CharString name="Iacute">
          -52 callgsubr
          hstemhm
          16 426 -78 callgsubr
          94 65 -103 callsubr
        </CharString>
        <CharString name="Icircumflex">
          -52 callgsubr
          hstemhm
          16 414 -78 callgsubr
          181 191 -43 callsubr
        </CharString>
        <CharString name="Idieresis">
          -52 callgsubr
          78 103 hstemhm
          123 86 callgsubr
          hintmask 01100110
          -92 callgsubr
          hintmask 10100110
          39 callsubr
          hintmask 01010110
          1 callsubr
          hintmask 01101110
          -52 callsubr
          39 78 -82 callsubr
        </CharString>
        <CharString name="Idotaccent">
          -52 callgsubr
          90 callsubr
          227 112 hintmask 01100100
          -92 callgsubr
          hintmask 10100100
          39 callsubr
          hintmask 01010100
          1 callsubr
          hintmask 01101100
          -52 callsubr
          151 60 -43 callgsubr
        </CharString>
        <CharString name="Igrave">
          -52 callgsubr
          hstemhm
          16 379 -78 callgsubr
          190 76 -76 callgsubr
        </CharString>
        <CharString name="Imacron">
          -52 callgsubr
          89 58 hstemhm
          16 423 hintmask 01101100
          -92 callgsubr
          hintmask 10101100
          39 callsubr
          hintmask 01011100
          1 callsubr
          hintmask 01101100
          -52 callsubr
          -2 89 6 callgsubr
          endchar
        </CharString>
        <CharString name="Iogonek">
          -107 -240 46 194 45 -45 -74 callgsubr
          578 12 callsubr
          hstemhm
          32 62 hintmask 11010100
          -92 callgsubr
          3 callsubr
          -18 callsubr
          117 -28 callsubr
          114 hlineto
          hintmask 10101100
          -57 callgsubr
          hintmask 11010100
          -52 callsubr
          endchar
        </CharString>
        <CharString name="J">
          -61 -44 97 570.5 46.5 hstem
          -28 487 vstem
          176 629 rmoveto
          96 -11 -12 -87 -14 -86 -13 -85 rlinecurve
          -20 -125 -5 -47 -10 -48 -13 -59 -25 -43 -37 -28 rrcurveto
          32 -43 -19 11 -21 hhcurveto
          -32 -28 -16 -30 -8 hvcurveto
          -35 6 40 -16 46 hhcurveto
          68 85 49 95 41 hvcurveto
          18 39 13 49 12 75 59 355 rcurveline
          91 11 8 41 rlineto
          -275 hlineto
          endchar
        </CharString>
        <CharString name="K">
          24 callgsubr
          15 698 -57 callsubr
          endchar
        </CharString>
        <CharString name="L">
          -53 callgsubr
          endchar
        </CharString>
        <CharString name="Lacute">
          -53 callgsubr
          157 65 -103 callsubr
        </CharString>
        <CharString name="Lcaron">
          103 0 -84 callgsubr
          50 -50 188 435 47 -92 callsubr
          hstemhm
          16 589 hintmask 01010100
          571 738 30 callsubr
          31 -3 33 62 rlineto
          24 45 31 59 33 vvcurveto
          13 -4 17 -30 vhcurveto
          hintmask 10001100
          -449 -109 rmoveto
          -91 callgsubr
          -58 -309 -86 -11 rlineto
          hintmask 01010100
          -8 -40 rlineto
          -53 callsubr
          58 307 rcurveline
          20 callsubr
          endchar
        </CharString>
        <CharString name="Ldot">
          103 0 -84 callgsubr
          50 -50 188 121 126 188 47 -92 callsubr
          hstemhm
          423 129 hintmask 10000110
          -80 callsubr
          hintmask 01001010
          72 callgsubr
          hintmask 00101010
          36 188 rlineto
          -56 hlineto
          hintmask 01011010
          -48 -138 rlineto
          -255 hlineto
          14 87 18 callgsubr
          58 307 rcurveline
          20 callsubr
          352 -361 rmoveto
          -58 callgsubr
          endchar
        </CharString>
        <CharString name="Lslash">
          103 0 -84 callgsubr
          50 -50 188 435 47 -92 callsubr
          hstemhm
          16 541 hintmask 10001100
          -92 callgsubr
          -4 -19 -116 -60 -11 -55 117 60 -44 -235 -86 -11 rlineto
          hintmask 01010100
          -8 -40 rlineto
          -53 callsubr
          4 19 rcurveline
          177 91 11 56 -178 -93 44 234 20 callsubr
          endchar
        </CharString>
        <CharString name="M">
          462 0 47 -47 47.5 576.5 46 -41 41 hstemhm
          -7 950 hintmask 01101000
          -7 hmoveto
          230 hlineto
          8 40 -92 13 122 514 130 -566 rlineto
          29 hlineto
          335 573 rlineto
          hintmask 10101000
          -77 -522 -81 -10 rlineto
          hintmask 01011000
          -6 -42 rlineto
          260 hlineto
          5 42 -90 11 11 86 11 88 12 85 rlinecurve
          44 305 95 12 rlineto
          hintmask 01101000
          4 41 rlineto
          -176 hlineto
          -319 -541 -115 541 rlineto
          -185 hlineto
          -8 -41 86 -10 -133 -566 -92 -13 rlineto
          endchar
        </CharString>
        <CharString name="N">
          -2 callgsubr
          hstemhm
          9 783 -69 callsubr
          endchar
        </CharString>
        <CharString name="Nacute">
          -2 callgsubr
          hstemhm
          9 783 -69 callsubr
          -146 55 -103 callsubr
        </CharString>
        <CharString name="Ncaron">
          -2 callgsubr
          49 52 hstemhm
          9 783 hintmask 10011100
          548 629 rmoveto
          107 -13 -86 -470 rlineto
          hintmask 10101100
          -77 callsubr
          hintmask 01101100
          -42 callgsubr
          -205 188 rmoveto
          -70 callgsubr
        </CharString>
        <CharString name="Ntilde">
          -2 callgsubr
          54 92 callgsubr
          9 783 hintmask 10011010
          548 629 rmoveto
          107 -13 -86 -470 rlineto
          hintmask 10101010
          -77 callsubr
          hintmask 01101110
          -42 callgsubr
          -257 65 2 callgsubr
          hintmask 10101010
          -32 callgsubr
          hintmask 10101110
          18 -19 -19 16 -37 hhcurveto
          hintmask 01101110
          -61 -41 -41 -87 -26 hvcurveto
          endchar
        </CharString>
        <CharString name="O">
          195 -14 50 82 callgsubr
          -102 callsubr
          endchar
        </CharString>
        <CharString name="OE">
          424 -15 50 -35 50 269 46 127 178 -51 51 -35 50 hstemhm
          66 89 545.5 3 callgsubr
          78.5 50.5 hintmask 1010011000000000
          155 262 rmoveto
          213 122 160 174 22 23 -3 -4 20 vhcurveto
          -14 -89 -16 -90 -16 -89 -60 -319 rcurveline
          -4 -21 -22 -2 -21 hhcurveto
          -120 -71 76 151 hvcurveto
          hintmask 0110101110000000
          289 -262 rmoveto
          373 hlineto
          7 callsubr
          -100 callgsubr
          hintmask 0111001010000000
          -1 -127 rlineto
          51 hlineto
          hintmask 0110101000000000
          24 178 rlineto
          -327 hlineto
          hintmask 1010011000000000
          8 -36 -40 7 -47 hhcurveto
          -222 -156 -194 -229 -182 110 -95 157 hvcurveto
          hintmask 0110101110000000
          40 33 6 9 38 hvcurveto
          endchar
        </CharString>
        <CharString name="Oacute">
          195 -14 50 82 callgsubr
          -102 callsubr
          87 699 -103 callsubr
        </CharString>
        <CharString name="Ocircumflex">
          195 -14 50 82 callgsubr
          316 36 rmoveto
          -111 -50 89 132 214 110 163 138 113 49 -87 -136 -213 -110 -162 -139 hvcurveto
          -14 -50 rmoveto
          202 150 193 230 162 -93 113 -146 -197 -152 -193 -232 -169 94 -104 142 hvcurveto
          162 875 -43 callsubr
        </CharString>
        <CharString name="Odieresis">
          77 callgsubr
          64 103 hstemhm
          66 89 110 86 callgsubr
          -21 89 hintmask 11111010
          -102 callsubr
          -5 712 rmoveto
          2 callsubr
          -28 -28 -23 -35 -28 22 -17 24 hvcurveto
          hintmask 11111100
          218 hmoveto
          31 26 24 35 25 -20 19 -26 -28 -26 -23 -35 -28 21 -17 22 hvcurveto
          endchar
        </CharString>
        <CharString name="Ograve">
          195 -14 50 82 callgsubr
          -102 callsubr
          153 710 -76 callgsubr
        </CharString>
        <CharString name="Ohungarumlaut">
          195 -14 50 82 callgsubr
          -102 callsubr
          29 701 -54 callsubr
        </CharString>
        <CharString name="Omacron">
          77 callgsubr
          75 58 21 callgsubr
          -102 callsubr
          -40 723 6 callgsubr
          endchar
        </CharString>
        <CharString name="Oslash">
          195 -14 49 -34 -21 655 49 -27 -20 hstemhm
          66 86 416 86 hintmask 10011100
          691 657 rmoveto
          hintmask 01101100
          -37 33 -72 -75 rlineto
          44 -41 -57 25 -69 hhcurveto
          -197 -152 -193 -232 -59 11 -50 21 -42 hvcurveto
          -91 -95 37 -33 rlineto
          hintmask 10011100
          82 85 rlineto
          -51 41 61 -28 74 hhcurveto
          202 150 193 230 64 -15 57 -27 45 hvcurveto
          -460 -311 rmoveto
          hintmask 10101100
          208 111 163 142 61 44 -21 -47 27 vhcurveto
          -377 -394 rlineto
          hintmask 10011100
          -5 26 -3 31 34 vvcurveto
          162 -229 rmoveto
          -66 -46 27 57 -25 hvcurveto
          379 397 rlineto
          8 -30 4 -37 -44 vvcurveto
          -207 -111 -163 -143 vhcurveto
          endchar
        </CharString>
        <CharString name="Otilde">
          77 callgsubr
          40 92 callgsubr
          66 89 410 89 hintmask 11101100
          -102 callsubr
          hintmask 11111100
          -73 699 2 callgsubr
          hintmask 11101100
          -32 callgsubr
          hintmask 11111100
          30 callgsubr
        </CharString>
        <CharString name="P">
          98 0 45 -45 46 214 46 317 47 -92 callsubr
          hstemhm
          492 93 hintmask 01110100
          343 623 rmoveto
          97 52 -48 -92 -104 -63 -73 -128 hvcurveto
          -59 hlineto
          1 4 59 313 rlineto
          hintmask 10101100
          -180 6 -15 callgsubr
          hintmask 01110100
          -18 callsubr
          270 hlineto
          8 40 -96 12 11 69 12 70 13 69 rlinecurve
          69 hlineto
          181 101 99 135 104 -75 72 -152 hvcurveto
          -228 hlineto
          endchar
        </CharString>
        <CharString name="Q">
          195 -249 63 175 47 82 callgsubr
          316 36 rmoveto
          -111 -50 89 132 214 110 163 138 113 49 -87 -136 -213 -110 -162 -139 hvcurveto
          180 -285 rmoveto
          65 51 26 37 42 hvcurveto
          -15 29 rlineto
          -20 -39 -34 -9 -53 hhcurveto
          -102 -59 65 110 -8 hvcurveto
          180 24 130 182 214 vvcurveto
          162 -93 113 -146 -197 -152 -193 -232 -152 76 -99 118 -19 vhcurveto
          -140 11 85 -98 140 hhcurveto
          endchar
        </CharString>
        <CharString name="R">
          -5 callsubr
          507 92 hintmask 01011010
          386 623 -3 callgsubr
          hintmask 10010110
          -180 6 -15 callgsubr
          hintmask 01011010
          -29 callgsubr
          hintmask 00111010
          -67 callgsubr
          endchar
        </CharString>
        <CharString name="Racute">
          -5 callsubr
          507 92 hintmask 10010110
          11 callgsubr
          hintmask 01011010
          -29 callgsubr
          hintmask 00111010
          -26 callsubr
          69 112 -103 callsubr
        </CharString>
        <CharString name="Rcaron">
          181 0 45 -45 46 -35 -21 320 45 268 47 -92 callsubr
          59 52 hstemhm
          507 -63 callgsubr
          -1 245 rmoveto
          -70 callgsubr
        </CharString>
        <CharString name="S">
          -54 callgsubr
          endchar
        </CharString>
        <CharString name="Sacute">
          -54 callgsubr
          264 563 -103 callsubr
        </CharString>
        <CharString name="Scaron">
          29 56 callsubr
          44 52 hstem
          122 76 156 80 vstem
          -93 callsubr
          208 696 rmoveto
          -70 callgsubr
        </CharString>
        <CharString name="T">
          104 0 -84 callgsubr
          46 445 179 -51 51 hstemhm
          554 51 hintmask 01101000
          72 callsubr
          hintmask 10011000
          13 callsubr
          rlineto
          hintmask 01011000
          -18 callsubr
          285 hlineto
          -7 callgsubr
          hintmask 01101000
          -128 51 vlineto
          hintmask 01011000
          55 callsubr
          endchar
        </CharString>
        <CharString name="Tcaron">
          104 0 -84 callgsubr
          46 445 179 -51 51 59 52 hstemhm
          554 51 hintmask 01100100
          72 callsubr
          hintmask 10010100
          13 callsubr
          rlineto
          hintmask 01010100
          -18 callsubr
          285 hlineto
          -7 callgsubr
          hintmask 01100100
          -128 51 vlineto
          hintmask 01011100
          55 callsubr
          169 198 rmoveto
          -70 callgsubr
        </CharString>
        <CharString name="Thorn">
          97 -20 callgsubr
          109.5 46 288 46 88.5 12 callsubr
          hstemhm
          473 91 hintmask 01111010
          243 310 rmoveto
          34 179 rlineto
          45 hlineto
          104 47 -42 -84 -95 -63 -67 -129 hvcurveto
          -58 hlineto
          7 36 6 37 7 36 rrcurveto
          -121 319 rmoveto
          -91 callgsubr
          hintmask 10111010
          39 callsubr
          hintmask 01110110
          48 callsubr
          8 40 -91 11 6 35 5 34 6 35 rlinecurve
          58 hlineto
          184 107 86 124 104 -78 66 -157 hvcurveto
          -43 hlineto
          15 84 86 10 rlineto
          hintmask 01111010
          -52 callsubr
          endchar
        </CharString>
        <CharString name="U">
          -102 callgsubr
          endchar
        </CharString>
        <CharString name="Uacute">
          -102 callgsubr
          -80 65 -103 callsubr
        </CharString>
        <CharString name="Ucircumflex">
          -102 callgsubr
          -7 191 -43 callsubr
        </CharString>
        <CharString name="Udieresis">
          247 -15 70 568.5 46.5 78 103 79 callsubr
          125 86 callgsubr
          -106 callsubr
          -160 78 -82 callsubr
        </CharString>
        <CharString name="Ugrave">
          -102 callgsubr
          -21 76 -76 callgsubr
        </CharString>
        <CharString name="Uhungarumlaut">
          -102 callgsubr
          -156 67 -54 callsubr
        </CharString>
        <CharString name="Umacron">
          247 -15 70 568.5 46.5 89 58 79 callsubr
          -106 callsubr
          -202 89 6 callgsubr
          endchar
        </CharString>
        <CharString name="Uogonek">
          247 -240 46 179 70 568.5 46.5 79 callsubr
          117 62 vstem
          528 629 rmoveto
          103 -13 -61 -318 rlineto
          -190 -36 -56 -53 -139 hhcurveto
          -73 -61 46 84 47 6 24 5 26 hvcurveto
          62 336 87 78 callsubr
          -8 -41 92 -93 callgsubr
          -14 -74 rlineto
          -7 -37 -6 -37 -33 vvcurveto
          -125 73 -69 135 34 31 4 9 29 vhcurveto
          -52 -49 -48 -52 -59 vvcurveto
          -23 callgsubr
          65 61 61 60 53 hvcurveto
          51 45 40 65 23 122 65 343 rcurveline
          86 64 callgsubr
          -242 hlineto
          endchar
        </CharString>
        <CharString name="Uring">
          247 -15 70 568.5 46.5 43 33 119 33 79 callsubr
          187 41 111 41 -106 callsubr
          -51 76 9 callgsubr
        </CharString>
        <CharString name="V">
          140 11 -21 627 53 -47 47 -46 46 hstemhm
          62 653 hintmask 11001000
          483 629 rmoveto
          83 -12 -264 -495 rlineto
          hintmask 10101000
          -71 495 96 12 -52 callsubr
          hintmask 10011000
          -8 -41 78 -10 101 -629 rlineto
          43 hlineto
          hintmask 10101000
          335 626 88 13 8 41 rlineto
          -224 hlineto
          endchar
        </CharString>
        <CharString name="W">
          407 11 -21 627 53 -47 47 65 callsubr
          -41 41 hstemhm
          62 920 hintmask 10000110
          750 629 rmoveto
          89 -13 -221 -489 rlineto
          hintmask 10010010
          -54 491 93 11 rlineto
          hintmask 10100010
          8 41 rlineto
          -263 hlineto
          -8 -41 96 -12 -233 -484 rlineto
          hintmask 11000010
          -28 484 rlineto
          hintmask 10100010
          94 12 8 41 83 callsubr
          hintmask 10001010
          -8 -41 78 -10 56 -629 rlineto
          41 hlineto
          259 534 69 -534 rlineto
          40 hlineto
          hintmask 10100010
          287 627 82 64 callgsubr
          -223 hlineto
          endchar
        </CharString>
        <CharString name="X">
          196 0 44.5 -44.5 -84 callgsubr
          61 callgsubr
          -41 41 hstemhm
          -2 722 hintmask 00100110
          471 629 rmoveto
          92 -13 -178 -220 rlineto
          hintmask 00110010
          -96 222 92 11 9 41 rlineto
          -266 hlineto
          hintmask 01001010
          -8 -41 80 -10 127 -292 -228 -276 -90 -11 rlineto
          hintmask 00110010
          -7 -40 rlineto
          244 hlineto
          7 40 -95 13 186 235 rlineto
          hintmask 10010010
          104 -239 -82 -9 rlineto
          hintmask 00100110
          -9 -40 rlineto
          271 hlineto
          8 40 -97 12 -132 305 218 260 92 12 rlineto
          hintmask 00110010
          7 41 rlineto
          -242 hlineto
          endchar
        </CharString>
        <CharString name="Y">
          -45 callsubr
          endchar
        </CharString>
        <CharString name="Yacute">
          -45 callsubr
          286 65 -103 callsubr
        </CharString>
        <CharString name="Ydieresis">
          49 callgsubr
          78 103 hstemhm
          244 86 callgsubr
          hintmask 10010110
          62 629 rmoveto
          80 -10 117 -339 -43 -230 -96 -10 rlineto
          hintmask 01101110
          -18 callsubr
          285 hlineto
          8 40 -101 12 12 75 13 76 14 75 rlinecurve
          222 338 90 13 8 41 rlineto
          -223 hlineto
          -8 -41 84 -13 -186 -287 -91 289 88 78 callsubr
          220 78 -82 callsubr
        </CharString>
        <CharString name="Z">
          -28 callgsubr
          endchar
        </CharString>
        <CharString name="Zacute">
          -28 callgsubr
          218 65 -103 callsubr
        </CharString>
        <CharString name="Zcaron">
          18 callsubr
          59 52 hstemhm
          1 588 -12 callgsubr
          157 198 rmoveto
          -70 callgsubr
        </CharString>
        <CharString name="Zdotaccent">
          18 callsubr
          90 callsubr
          322 112 -12 callgsubr
          253 60 -43 callgsubr
        </CharString>
        <CharString name="a">
          -7 callsubr
          38 callsubr
          hintmask 11011000
          123 146 rmoveto
          88 38 79 48 50 vhcurveto
          37 36 42 21 32 hhcurveto
          21 21 -8 -11 19 hvcurveto
          -54 -250 rlineto
          -72 -66 -42 -24 -35 hhcurveto
          -36 -24 29 61 hvcurveto
          240 -159 -31 callgsubr
          endchar
        </CharString>
        <CharString name="a.sups">
          -66 callsubr
        </CharString>
        <CharString name="aacute">
          -66 callgsubr
          214 403 -97 callgsubr
        </CharString>
        <CharString name="abreve">
          -7 callsubr
          98 64 84 -20 38 callsubr
          hintmask 11011110
          -99 callgsubr
          hintmask 10111110
          -18 9 rlineto
          hintmask 11011110
          -98 callsubr
          6 588 -44 callsubr
          endchar
        </CharString>
        <CharString name="acircumflex">
          -7 callsubr
          38 callsubr
          hintmask 11011000
          123 146 rmoveto
          88 38 79 48 50 vhcurveto
          37 36 42 21 32 hhcurveto
          21 21 -8 -11 19 hvcurveto
          -54 -250 rlineto
          -72 -66 -42 -24 -35 hhcurveto
          -36 -24 29 61 hvcurveto
          240 -159 -31 callgsubr
          110 559 -62 callsubr
        </CharString>
        <CharString name="acute">
          -65 88 callgsubr
          220 164 vstem
          220 549 -97 callgsubr
        </CharString>
        <CharString name="acutecmb.cap">
          -465 713 154 hstem
          49 218 vstem
          49 735 -103 callsubr
        </CharString>
        <CharString name="adieresis">
          -7 callsubr
          147 103 hstemhm
          45 78 111 101 -24 75 43 100 hintmask 11011011
          -99 callgsubr
          hintmask 10111011
          -18 9 rlineto
          hintmask 11011011
          -98 callsubr
          hintmask 11011101
          -83 637 rmoveto
          -80 callgsubr
        </CharString>
        <CharString name="ae">
          202 -13 69 365 66 -43 43 hstemhm
          45 78 192 70 225 66 hintmask 10111100
          123 146 rmoveto
          hintmask 11011100
          88 38 79 48 50 vhcurveto
          37 36 42 21 32 hhcurveto
          27 26 -8 -19 24 hvcurveto
          -49 -59 -32 -80 -82 vvcurveto
          -11 0 -10 1 -10 vhcurveto
          -64 -60 -38 -22 -35 hhcurveto
          hintmask 10111100
          -36 -24 29 61 hvcurveto
          431 298 rmoveto
          33 23 -22 -37 -54 -59 -69 -166 -48 hvcurveto
          125 10 97 105 62 hhcurveto
          -88 -457 rmoveto
          73 65 56 68 42 hvcurveto
          -23 18 rlineto
          -34 -27 -45 -39 -63 hhcurveto
          -61 -38 34 85 -4 hvcurveto
          228 66 63 90 64 vvcurveto
          59 -35 33 -65 -49 -47 -19 -31 -40 vhcurveto
          30 -22 -27 20 -37 hhcurveto
          -129 -180 -208 -174 -83 47 -35 48 55 68 48 71 59 hvcurveto
          -81 18 55 -38 71 hhcurveto
          endchar
        </CharString>
        <CharString name="agrave">
          -66 callgsubr
          282 403 -86 callgsubr
        </CharString>
        <CharString name="amacron">
          -7 callsubr
          136 61 38 callsubr
          hintmask 11011100
          -99 callgsubr
          hintmask 10111100
          -18 9 rlineto
          hintmask 11011100
          -98 callsubr
          -127 626 -24 callgsubr
        </CharString>
        <CharString name="ampersand">
          229 -13 66 199 48 -22 22 45 84 221 35 hstemhm
          66 75 65 61 237 46 hintmask 11011111
          320 -13 rmoveto
          139 91 72 108 hvcurveto
          hintmask 10111111
          43 -17 47 -48 21 vhcurveto
          114 16 75 51 49 115 -67 30 rcurveline
          hintmask 11011111
          -49 -126 -65 -62 -142 -2 -7 -48 rcurveline
          78 -5 33 -29 -55 vvcurveto
          -66 -70 -44 -104 -99 -90 58 108 69 31 70 81 31 vhcurveto
          -27 25 34 -17 38 hhcurveto
          23 16 13 24 31 -37 16 -59 hvcurveto
          -6 hlineto
          -13 23 -7 25 29 vvcurveto
          90 55 54 92 9 8 0 -1 8 vhcurveto
          16 -37 rlineto
          -30 14 17 -13 24 hhcurveto
          24 9 13 18 5 hvcurveto
          58 -14 -57 27 -63 hhcurveto
          -130 -78 -87 -96 -28 8 -29 15 -24 hvcurveto
          -107 -29 -56 -98 -93 vvcurveto
          -137 103 -77 151 vhcurveto
          endchar
        </CharString>
        <CharString name="ampersand.alt">
          565 -15 45 -45 71 493 103 -56 56 -3 36 hstemhm
          50 81 115 76 141 70 361 86 hintmask 1000111110000000
          322 572 rmoveto
          51 29 26 48 41 23 -21 -53 -50 -23 -31 -64 -32 vhcurveto
          -28 31 -26 38 41 vvcurveto
          450 -587 rmoveto
          121 87 76 69 22 -10 24 -28 6 hvcurveto
          -34 -14 -30 -26 -16 5 -22 11 -22 hvcurveto
          -22 -30 -34 -14 -50 hhcurveto
          -46 -56 18 77 -54 hvcurveto
          -30 44 -30 44 -32 43 rrcurveto
          hintmask 1001011110000000
          112 191 109 132 110 17 rrcurveto
          hintmask 1010011110000000
          -39 38 18 -8 18 hhcurveto
          18 20 11 24 4 hvcurveto
          hintmask 1001011110000000
          44 -9 -33 24 -52 hhcurveto
          -130 -132 -161 -204 -115 hvcurveto
          -40 52 -42 51 -46 50 rrcurveto
          87 43 50 34 65 vvcurveto
          hintmask 0100111110000000
          70 -59 33 -73 -86 -69 -51 -81 -49 23 -35 32 -37 vhcurveto
          -180 -66 -71 -102 -103 vvcurveto
          -106 65 -70 111 101 95 45 150 80 vhcurveto
          17 -24 16 -24 16 -24 rrcurveto
          hintmask 1000111110000000
          -90 61 64 -33 96 hhcurveto
          hintmask 0100111110000000
          -641 205 rmoveto
          82 52 72 140 64 vhcurveto
          56 -61 51 -65 47 -67 rrcurveto
          -116 -67 -79 -43 -72 hhcurveto
          -72 -56 52 82 hvcurveto
          endchar
        </CharString>
        <CharString name="aogonek">
          57 -240 46 181 17 callsubr
          hstemhm
          45 78 169 63 -44 75 hintmask 11101100
          123 146 rmoveto
          88 38 79 48 50 vhcurveto
          37 36 42 21 32 hhcurveto
          21 21 -8 -11 19 hvcurveto
          -54 -250 rlineto
          -72 -66 -42 -24 -35 hhcurveto
          -36 -24 29 61 hvcurveto
          169 -308 rmoveto
          -26 callgsubr
          -31 78 callgsubr
          58 43 52 49 42 hvcurveto
          33 28 30 33 22 33 -24 19 rcurveline
          hintmask 11101010
          -43 -35 -38 -29 -25 hhcurveto
          -13 -19 callgsubr
          3 21 6 25 hvcurveto
          80 353 rlineto
          hintmask 11011100
          -18 9 rlineto
          hintmask 11101010
          -98 callsubr
          hintmask 11101100
          6 7 1 1 6 hvcurveto
          -46 91 callsubr
          endchar
        </CharString>
        <CharString name="approxequal">
          65 138 53 38 53 96 67 callsubr
          230 rmoveto
          -55 callgsubr
          240 vmoveto
          -55 callgsubr
          endchar
        </CharString>
        <CharString name="aring">
          -7 callsubr
          72 90 callgsubr
          hstemhm
          45 78 163 45 -20 75 65 46 hintmask 1101111010000000
          123 146 rmoveto
          88 38 79 48 50 vhcurveto
          37 36 42 21 32 hhcurveto
          21 21 -8 -11 19 hvcurveto
          -54 -250 rlineto
          -72 -66 -42 -24 -35 hhcurveto
          -36 -24 29 61 hvcurveto
          hintmask 1101110110000000
          240 -159 -88 callsubr
          hintmask 1011111010000000
          -18 9 rlineto
          hintmask 1101110110000000
          -98 callsubr
          hintmask 1101111010000000
          22 5 callgsubr
        </CharString>
        <CharString name="asciicircum">
          65 422 59 hstem
          112 357 vstem
          112 243 rmoveto
          44 -33 134 212 134 -212 45 33 -147 238 rlineto
          -63 hlineto
          endchar
        </CharString>
        <CharString name="asciitilde">
          65 273 67 callsubr
          365 rmoveto
          -55 callgsubr
          endchar
        </CharString>
        <CharString name="asterisk">
          15 530 30 -30 69 hstemhm
          108 216 -27 27 hintmask 01010000
          282 750 rmoveto
          -24 -9 -18 -16 hvcurveto
          hintmask 10010000
          -22 17 -46 31 -88 vhcurveto
          hintmask 01100000
          28 -99 -36 11 -23 hhcurveto
          -23 -8 -18 -15 -42 48 3 136 3 hvcurveto
          -61 -91 -28 -30 -27 vvcurveto
          -23 14 -8 15 33 17 51 116 36 vhcurveto
          73 -96 25 -40 33 4 15 3 14 16 -3 18 -5 28 -40 20 -92 68 rrcurveto
          119 43 45 6 35 vvcurveto
          25 -15 9 -15 vhcurveto
          hintmask 01010000
          -27 -35 -30 -63 -86 hvcurveto
          -2 93 -2 43 -2 16 rrcurveto
          26 -4 -13 8 -19 hhcurveto
          endchar
        </CharString>
        <CharString name="at">
          407 -155 60 callgsubr
          66 59 callgsubr
          335 185 -77 callgsubr
        </CharString>
        <CharString name="at.cap">
          407 -130 60 callgsubr
          71 59 callgsubr
          340 210 -77 callgsubr
        </CharString>
        <CharString name="atilde">
          -7 callsubr
          98 53 33 53 38 callsubr
          hintmask 11011110
          -99 callgsubr
          hintmask 10111110
          -18 9 rlineto
          hintmask 11011110
          -98 callsubr
          -159 599 -87 callsubr
        </CharString>
        <CharString name="b">
          29 -13 63 370 67 hstem
          86 77 258 75 vstem
          163 104 76 callsubr
          15 69 rlineto
          69 64 55 39 43 hhcurveto
          37 24 -32 -64 -82 -36 -86 -54 -52 hvcurveto
          -35 -37 -40 -19 -41 hhcurveto
          91 callgsubr
          6 -117 rmoveto
          162 165 208 169 90 -42 33 -49 -59 -78 -48 -80 -61 hvcurveto
          77 373 -11 8 -173 -50 -5 -29 99 -7 -85 -427 rlineto
          -13 -67 -10 -48 -42 vvcurveto
          -52 38 -31 45 vhcurveto
          endchar
        </CharString>
        <CharString name="b.sups">
          -119 416 44 235 75 callsubr
          hstem
          135 59 167 61 vstem
          194 495 rmoveto
          21 3 20 9 43 vhcurveto
          13 60 rlineto
          35 38 35 21 28 hhcurveto
          25 16 -20 -40 -87 -69 -88 -64 -22 -12 13 22 hvcurveto
          1 -79 rmoveto
          113 114 129 119 63 -29 23 -36 -40 -52 -29 -48 -39 hvcurveto
          47 227 -8 7 -124 -37 -4 -22 64 -5 -50 -255 rlineto
          -8 -42 -8 -36 -30 vvcurveto
          -42 26 -22 34 vhcurveto
          endchar
        </CharString>
        <CharString name="backslash">
          -152 -160 870 hstem
          112 146 vstem
          258 -160 rmoveto
          -89 870 rlineto
          -57 hlineto
          89 -870 rlineto
          endchar
        </CharString>
        <CharString name="bar">
          49 callsubr
          1000 -57 hlineto
          endchar
        </CharString>
        <CharString name="braceleft">
          -86 -159 3 callgsubr
          794 79 callgsubr
          hstemhm
          101 69 -3 50 -25 69 -54 54 hintmask 11010000
          67 258 -47 callgsubr
        </CharString>
        <CharString name="braceleft.cap">
          -86 -124 3 callgsubr
          794 79 callgsubr
          hstemhm
          108 69 -3 50 -25 69 -54 54 hintmask 11010000
          74 293 -47 callgsubr
        </CharString>
        <CharString name="braceright">
          -86 -159 79 callgsubr
          794 3 callgsubr
          hstemhm
          162 54 -54 69 -25 50 -3 69 hintmask 11001000
          356 298 74 callsubr
          hintmask 11010100
          60 -44 31 -82 vhcurveto
          -51 hlineto
          -8 -39 33 -3 rlineto
          57 -5 26 -14 -38 vvcurveto
          hintmask 11001000
          67 callgsubr
          hintmask 11010000
          14 callgsubr
          hintmask 11100000
          85 callsubr
        </CharString>
        <CharString name="braceright.cap">
          -86 -124 79 callgsubr
          794 3 callgsubr
          -39 -20 hstemhm
          169 54 -54 69 -25 50 -3 69 hintmask 11000100
          363 333 74 callsubr
          hintmask 11001010
          60 -44 31 -82 vhcurveto
          -51 hlineto
          hintmask 10101000
          -8 -39 rlineto
          hintmask 11001010
          33 -3 rlineto
          57 -5 26 -14 -38 vvcurveto
          hintmask 10100100
          67 callgsubr
          hintmask 10101000
          14 callgsubr
          hintmask 10110000
          85 callsubr
        </CharString>
        <CharString name="bracketleft">
          -140 -159 64 callsubr
          35 359 vstem
          35 -159 -11 callgsubr
        </CharString>
        <CharString name="bracketleft.cap">
          -140 -124 64 callsubr
          42 359 vstem
          42 -124 -11 callgsubr
        </CharString>
        <CharString name="bracketleft.dnom">
          -92 -110 50 callsubr
          78 95 callgsubr
          78 -110 -15 callsubr
        </CharString>
        <CharString name="bracketleft.numr">
          -92 144 50 callsubr
          132 95 callgsubr
          132 144 -15 callsubr
        </CharString>
        <CharString name="bracketleft.subs">
          -92 -321 50 callsubr
          33 95 callgsubr
          33 -321 -15 callsubr
        </CharString>
        <CharString name="bracketleft.sups">
          -92 316 50 callsubr
          169 95 callgsubr
          169 316 -15 callsubr
        </CharString>
        <CharString name="bracketright">
          -140 -159 57 callsubr
          -25 359 hintmask 11010000
          334 715 -19 callsubr
        </CharString>
        <CharString name="bracketright.cap">
          -140 -124 57 callsubr
          -18 359 hintmask 11010000
          341 750 -19 callsubr
        </CharString>
        <CharString name="bracketright.dnom">
          -92 -110 50 callsubr
          47 95 callgsubr
          151 405 -25 callsubr
        </CharString>
        <CharString name="bracketright.numr">
          -92 144 50 callsubr
          101 95 callgsubr
          205 659 -25 callsubr
        </CharString>
        <CharString name="bracketright.subs">
          -92 -321 50 callsubr
          2 95 callgsubr
          106 194 -25 callsubr
        </CharString>
        <CharString name="bracketright.sups">
          -92 316 50 callsubr
          138 95 callgsubr
          242 831 -25 callsubr
        </CharString>
        <CharString name="breve">
          -65 575 64 hstem
          131 306 vstem
          266 575 -44 callsubr
          endchar
        </CharString>
        <CharString name="brevecmb.cap">
          -465 731 59 hstem
          -19 295 vstem
          113 731 -22 callsubr
        </CharString>
        <CharString name="brokenbar">
          49 callsubr
          450 -57 hlineto
          57 120 rmoveto
          430 -57 -430 vlineto
          endchar
        </CharString>
        <CharString name="bullet">
          -169 242 203 hstem
          82 200 vstem
          173 242 rmoveto
          53 56 45 70 52 -39 36 -52 -53 -56 -47 -67 -54 38 -35 53 hvcurveto
          endchar
        </CharString>
        <CharString name="c">
          -75 callgsubr
          endchar
        </CharString>
        <CharString name="c.sups">
          -173 416 56 249 29 hstem
          116 60 vstem
          222 416 rmoveto
          51 53 42 49 28 hvcurveto
          -17 13 rlineto
          -26 -21 -28 -22 -35 hhcurveto
          -45 -32 25 56 71 43 70 58 27 hvcurveto
          21 -29 rlineto
          -16 12 13 -13 17 hhcurveto
          15 16 12 20 3 hvcurveto
          34 -9 -26 21 -44 hhcurveto
          -91 -88 -98 -112 -80 44 -44 62 hvcurveto
          endchar
        </CharString>
        <CharString name="cacute">
          -75 callgsubr
          105 562 -97 callgsubr
        </CharString>
        <CharString name="caron">
          -65 554 197 hstem
          154 287 vstem
          181 751 -68 callgsubr
        </CharString>
        <CharString name="caroncmb.cap">
          -465 729 52 hstem
          -4 286 vstem
          23 868 rmoveto
          -70 callgsubr
        </CharString>
        <CharString name="ccaron">
          -75 callgsubr
          35 764 -68 callgsubr
        </CharString>
        <CharString name="ccedilla">
          -58 95 callsubr
          187 68 -47 -21 461 38 hstemhm
          54 75 94 57 hintmask 10111100
          149 -87 rmoveto
          -90 callsubr
          hintmask 11011100
          26 56 65 5 68 52 38 67 rlinecurve
          -23 18 rlineto
          -34 -28 -41 -39 -53 hhcurveto
          -66 -45 42 87 123 73 111 86 30 hvcurveto
          30 -34 rlineto
          -20 18 19 -16 22 hhcurveto
          19 19 10 25 4 hvcurveto
          43 -11 -36 30 -61 hhcurveto
          -126 -131 -144 -169 -116 54 -62 78 -8 hvcurveto
          endchar
        </CharString>
        <CharString name="cedilla">
          -65 95 callsubr
          hstem
          169 57 vstem
          95 -87 rmoveto
          -90 callsubr
          32 69 rlineto
          -28 hlineto
          endchar
        </CharString>
        <CharString name="cent">
          46 -45 171 -68 68 384 45 -45 150 hstemhm
          84 75 228.5 89.5 hintmask 10011100
          234 -45 rmoveto
          21 104 62 9 62 49 36 64 rlinecurve
          -23 18 -26 -34 -39 -36 -58 -3 rlinecurve
          78 384 14 -1 12 -3 12 -5 rlinecurve
          5 -61 rlineto
          -41 3 15 -20 30 hhcurveto
          19 20 13 36 hvcurveto
          hintmask 00101100
          74 -54 45 -66 8 vhcurveto
          hintmask 01011100
          21 105 rlineto
          -37 hlineto
          -21 -103 rlineto
          -116 -10 -120 -140 -163 vvcurveto
          -117 55 -62 79 -7 vhcurveto
          hintmask 10001000
          -21 -103 rlineto
          -38 299 rmoveto
          130 73 117 79 10 vhcurveto
          -78 -381 rlineto
          -43 12 -31 41 71 vvcurveto
          endchar
        </CharString>
        <CharString name="circumflex">
          -65 546 197 hstem
          148 288 vstem
          409 546 -62 callsubr
        </CharString>
        <CharString name="circumflexcmb.cap">
          -465 717 144 hstem
          -24 303 vstem
          160 861 -43 callsubr
        </CharString>
        <CharString name="colon">
          -164 -10 126 -105 -21 363 126 hstemhm
          61 129 -52 129 hintmask 01110000
          120 -10 rmoveto
          39 31 29 40 hvcurveto
          hintmask 10110000
          31 -23 26 -35 -38 -33 -29 -40 vhcurveto
          hintmask 01110000
          73 callsubr
          vhcurveto
          hintmask 01101000
          77 363 rmoveto
          -58 callgsubr
          endchar
        </CharString>
        <CharString name="colon.sups">
          -255 416 100 132 102 hstemhm
          109 103 -53 102 hintmask 11100000
          156 416 -34 callsubr
          hintmask 11010000
          50 232 rmoveto
          29 26 24 31 27 -20 20 -27 -30 -25 -23 -33 -25 19 -21 28 hvcurveto
          endchar
        </CharString>
        <CharString name="comma">
          -165 -160 277 hstem
          72 119 vstem
          15 -160 rmoveto
          10 callsubr
        </CharString>
        <CharString name="comma.dnom">
          -261 -122 212 hstem
          23 96 vstem
          -27 -122 -59 callgsubr
        </CharString>
        <CharString name="comma.numr">
          -261 132 212 hstem
          77 96 vstem
          27 132 -59 callgsubr
        </CharString>
        <CharString name="comma.subs">
          -261 -333 212 hstem
          -22 96 vstem
          -72 -333 -59 callgsubr
        </CharString>
        <CharString name="comma.sups">
          -261 304 212 hstem
          114 96 vstem
          64 304 -59 callgsubr
        </CharString>
        <CharString name="copyright">
          311 -15 39 111 37 332 37 104 40 hstem
          75 50 124 62 206 42 165 51 vstem
          -30 callsubr
          24 150 rmoveto
          41 32 12 14 31 hvcurveto
          16 93 rlineto
          -44 hlineto
          -23 -76 rlineto
          -4 -14 -14 -2 -14 hhcurveto
          -63 -57 47 101 101 56 83 97 19 18 -3 -5 16 hvcurveto
          -76 42 vlineto
          13 90 rlineto
          24 -36 -30 7 -37 hhcurveto
          -127 -93 -98 -129 -108 72 -71 99 hvcurveto
          endchar
        </CharString>
        <CharString name="currency">
          46 166 51 224 50 hstem
          123 57 216 57 vstem
          180 329 rmoveto
          66 49 46 59 59 49 -46 -66 -66 -49 -46 -59 -59 -49 46 66 vhcurveto
          -57 hmoveto
          -42 14 -36 23 -27 vhcurveto
          -36 -22 rlineto
          -45 -27 -12 -14 -18 vvcurveto
          -20 16 -16 20 17 15 13 45 26 vhcurveto
          22 37 rlineto
          -23 29 37 -13 39 hhcurveto
          39 37 13 23 29 hvcurveto
          22 -37 rlineto
          -45 27 15 -13 17 hhcurveto
          20 16 16 20 18 -12 14 -45 27 hvcurveto
          -37 22 rlineto
          23 27 14 36 42 vvcurveto
          42 -14 36 -23 27 vhcurveto
          37 22 rlineto
          45 27 12 14 17 vvcurveto
          20 -16 17 -20 -17 -15 -13 -45 -27 vhcurveto
          -22 -37 rlineto
          22 -29 -37 13 -39 hhcurveto
          -39 -37 -13 -22 -29 hvcurveto
          -22 37 rlineto
          45 -26 -15 13 -17 hhcurveto
          -20 -16 -17 -20 -17 12 -14 45 -27 hvcurveto
          37 -22 rlineto
          -24 -27 -14 -36 -42 vvcurveto
          endchar
        </CharString>
        <CharString name="d">
          59 69 callgsubr
          124 151 rmoveto
          81 31 77 45 50 77 callsubr
          20 21 -7 -17 20 hvcurveto
          -48 -239 rlineto
          -76 -67 -43 37 callgsubr
          121 597 53 callsubr
          -38 -182 rlineto
          10 -15 -15 5 -19 hhcurveto
          -135 -168 -208 -166 -50 callsubr
        </CharString>
        <CharString name="d.sups">
          -95 416 52 -52 55 29 -20 224 46 hstemhm
          112 62 125 62 hintmask 01111100
          174 532 rmoveto
          88 51 84 75 14 14 -4 -9 14 vhcurveto
          -34 -167 rlineto
          -37 -40 -27 -16 -24 hhcurveto
          -25 -18 18 43 hvcurveto
          hintmask 10111100
          191 -16 rmoveto
          79 384 -9 7 -123 -37 -3 -22 66 -6 -20 -100 rlineto
          6 -10 -11 2 -12 hhcurveto
          -95 -115 -134 -112 hvcurveto
          hintmask 01111100
          -65 30 -23 34 38 47 28 42 40 vhcurveto
          -2 -11 0 -9 -7 vvcurveto
          -26 17 -17 23 vhcurveto
          hintmask 10111100
          47 43 41 43 27 hvcurveto
          -17 13 rlineto
          -28 -23 -25 -17 -15 hhcurveto
          -17 -1 13 35 7 hvcurveto
          endchar
        </CharString>
        <CharString name="dagger">
          20 446 72 -54 39 -38.5 79 callgsubr
          -7 -20 240 -20 hstemhm
          72 454 hintmask 00101100
          349 717 rmoveto
          -25 -14 -16 -26 -5 hvcurveto
          hintmask 00011100
          -7 -32 1 -45 -5 -47 -5 -54 rcurveline
          hintmask 00101100
          -51 7 rlineto
          hintmask 10001100
          4 -35 -54 10 -25 hhcurveto
          -31 -21 -13 -31 -18 12 -10 26 hvcurveto
          hintmask 00101100
          25 58 11 5 37 hvcurveto
          54 5 -21 -69 -15 -35 -11 -56 rlinecurve
          -8 -41 -21 -128 -32 -209 rrcurveto
          27 hlineto
          57 221 24 100 11 58 rrcurveto
          hintmask 01001100
          5 26 3 20 2 22 3 23 2 28 3 40 54 -6 rcurveline
          hintmask 10001100
          -5 34 49 -10 24 hhcurveto
          34 18 19 27 17 -12 9 -25 hvcurveto
          hintmask 01001100
          -25 -53 -11 -4 -36 hvcurveto
          hintmask 00011100
          -56 -6 17 54 rlineto
          14 46 29 68 24 vvcurveto
          hintmask 00101100
          20 -11 8 -19 vhcurveto
          endchar
        </CharString>
        <CharString name="daggerdbl">
          20 109 71 -53.5 35 -34.5 35.5 283.5 72 -53.5 38.5 -38 39 -7 -20 240 -20 hstemhm
          224 27 hintmask 0010010110000000
          348 717 rmoveto
          -24 -15 -16 -26 -4 hvcurveto
          hintmask 0010001110000000
          -7 -32 0 -45 -4 -47 -5 -54 rcurveline
          hintmask 0010010110000000
          -52 7 rlineto
          hintmask 0011000110000000
          4 -34 -54 10 -26 hhcurveto
          -30 -21 -13 -31 -18 11 -10 26 hvcurveto
          hintmask 0010010110000000
          26 58 11 5 36 hvcurveto
          58 6 -25 -66 -10 -34 -9 -54 rlinecurve
          -9 -53 -2 -32 -70 vvcurveto
          -55 7 rlineto
          hintmask 1000010110000000
          4 -34 -50 10 -24 hhcurveto
          -34 -19 -18 -27 -17 13 -9 26 hvcurveto
          hintmask 0010010110000000
          24 54 11 4 36 hvcurveto
          55 6 -16 -54 rlineto
          -14 -46 -30 -68 -25 vvcurveto
          -19 12 -8 19 24 14 16 26 4 vhcurveto
          hintmask 0100010110000000
          8 32 0 45 4 47 4 54 rcurveline
          53 -7 rlineto
          hintmask 1000010110000000
          -4 34 53 -10 26 hhcurveto
          31 20 12 32 18 -10 9 -26 hvcurveto
          hintmask 0100100110000000
          -27 -57 -11 -4 -36 hvcurveto
          -59 -7 25 66 10 38 9 52 rlinecurve
          10 55 2 33 -1 66 56 -7 rcurveline
          hintmask 0011000110000000
          -5 34 49 -10 24 hhcurveto
          35 18 19 27 17 -12 9 -26 hvcurveto
          hintmask 0010100110000000
          -25 -53 -11 -4 -36 hvcurveto
          hintmask 0010001110000000
          -56 -6 17 54 rlineto
          14 46 30 68 24 vvcurveto
          hintmask 0010010110000000
          20 -12 8 -19 vhcurveto
          endchar
        </CharString>
        <CharString name="dcaron">
          80 69 callgsubr
          650 749 28 callgsubr
          -526 -598 rmoveto
          81 31 77 45 50 77 callsubr
          20 21 -7 -17 20 hvcurveto
          -48 -239 rlineto
          -76 -67 -43 37 callgsubr
          121 597 53 callsubr
          -38 -182 rlineto
          10 -15 -15 5 -19 hhcurveto
          -135 -168 -208 -166 -50 callsubr
        </CharString>
        <CharString name="dcroat">
          59 -13 69 352 66 69 37 hstem
          47 77 191 79 vstem
          124 151 rmoveto
          76 32 70 44 49 77 callsubr
          19 20 -6 -16 19 hvcurveto
          -45 -228 rlineto
          -76 -68 -42 37 callgsubr
          83 408 rlineto
          105 hlineto
          8 37 rlineto
          -106 hlineto
          31 152 53 callsubr
          -16 -74 rlineto
          -163 hlineto
          -7 -37 rlineto
          163 hlineto
          -17 -83 rlineto
          10 -15 -14 4 -18 hhcurveto
          -136 -167 -201 -160 -50 callsubr
        </CharString>
        <CharString name="degree">
          -137 428 36 185 36 hstem
          118 42 170 42 vstem
          245 464 rmoveto
          -48 -37 40 52 52 37 41 48 48 37 -41 -52 -52 -37 -40 -48 hvcurveto
          -36 vmoveto
          69 58 49 79 78 -58 51 -69 -69 -58 -51 -78 -79 58 -49 69 hvcurveto
          endchar
        </CharString>
        <CharString name="dieresis">
          -65 624 103 hstem
          151 101 94 100 vstem
          197 624 rmoveto
          -80 callgsubr
        </CharString>
        <CharString name="dieresiscmb.cap">
          -465 748 103 hstem
          -32 86 callgsubr
          vstem
          14 748 -82 callsubr
        </CharString>
        <CharString name="divide">
          65 72 124 107 53 107 125 hstem
          217 128 vstem
          281 72 rmoveto
          35 29 25 74 callgsubr
          -25 35 hvcurveto
          391 vmoveto
          35 29 26 74 callgsubr
          -26 35 hvcurveto
          222 -160 rmoveto
          63 callgsubr
          endchar
        </CharString>
        <CharString name="dollar">
          46 -115 140 -37 37 -37 38 593 40 hstemhm
          52 93 -14 71 181 72 -27 89 hintmask 10010110
          184 -115 rmoveto
          38 hlineto
          21 102 rlineto
          130 7 82 81 101 vvcurveto
          81 -35 38 -88 55 vhcurveto
          -14 9 rlineto
          hintmask 01010101
          52 260 18 -1 19 -2 21 -7 rlinecurve
          -59 vlineto
          -46 23 -14 22 21 18 11 30 5 vhcurveto
          -5 75 -45 46 -89 7 19 91 rcurveline
          -39 hlineto
          -18 -90 rlineto
          -135 -6 -74 -84 -99 vvcurveto
          -76 35 -46 71 -45 vhcurveto
          29 -18 rlineto
          hintmask 01011010
          -53 -261 -23 1 -21 4 -22 7 rlinecurve
          -4 58 rlineto
          54 -4 -18 14 -27 hhcurveto
          -22 -12 -12 -23 -8 hvcurveto
          7 -94 51 -41 95 -5 rrcurveto
          178 160 rmoveto
          hintmask 00110110
          -67 -47 -49 -85 -6 vhcurveto
          48 238 rlineto
          hintmask 01011010
          51 -32 33 -26 -58 vvcurveto
          hintmask 01010110
          -181 353 rmoveto
          71 50 42 79 5 vhcurveto
          -48 -238 rlineto
          -47 29 -34 23 68 vvcurveto
          endchar
        </CharString>
        <CharString name="dotaccent">
          -65 626 115 hstem
          254 107 vstem
          306 626 -38 callgsubr
          endchar
        </CharString>
        <CharString name="dotaccentcmb.cap">
          -465 730 120 hstem
          75 112 vstem
          129 730 -43 callgsubr
        </CharString>
        <CharString name="dotlessi">
          -83 callsubr
          endchar
        </CharString>
        <CharString name="e">
          22 callsubr
          hstem
          54 70 225 66 vstem
          -105 callsubr
          endchar
        </CharString>
        <CharString name="e.sups">
          13 callgsubr
          283 718 -71 callsubr
        </CharString>
        <CharString name="eacute">
          22 callsubr
          hstem
          54 70 225 66 vstem
          -105 callsubr
          107 562 -97 callgsubr
        </CharString>
        <CharString name="eacute.sups">
          13 callgsubr
          299 792 rmoveto
          19 -14 77 83 rlineto
          14 15 6 13 14 vvcurveto
          20 -13 11 -15 -16 -12 -11 -27 -12 vhcurveto
          -64 -178 -71 callsubr
        </CharString>
        <CharString name="ecaron">
          22 callsubr
          hstem
          54 70 225 66 vstem
          -105 callsubr
          35 764 -68 callgsubr
        </CharString>
        <CharString name="ecircumflex">
          22 callsubr
          hstem
          54 70 225 66 vstem
          -105 callsubr
          238 559 -62 callsubr
        </CharString>
        <CharString name="edieresis">
          22 callsubr
          137 103 hstemhm
          54 70 70 101 54 66 -26 100 hintmask 11111100
          -105 callsubr
          35 637 46 callgsubr
          hintmask 11111010
          193 hmoveto
          31 -20 callsubr
          -27 -27 -27 -23 -34 -29 21 -17 23 hvcurveto
          endchar
        </CharString>
        <CharString name="edotaccent">
          22 callsubr
          139 115 hstemhm
          54 70 167 107 -49 66 hintmask 11010100
          -105 callsubr
          hintmask 11111000
          138 639 -38 callgsubr
          endchar
        </CharString>
        <CharString name="egrave">
          22 callsubr
          hstem
          54 70 225 66 vstem
          -105 callsubr
          147 562 -86 callgsubr
        </CharString>
        <CharString name="egrave.sups">
          13 callgsubr
          316 792 rmoveto
          -49 105 rlineto
          26 -11 -11 12 -18 hhcurveto
          -14 -15 -12 -19 -14 6 -13 14 -15 hvcurveto
          79 -84 rlineto
          -14 -60 -71 callsubr
        </CharString>
        <CharString name="eight">
          46 -11 34 600 37 hstemhm
          66 80 callsubr
          205 -56 callgsubr
        </CharString>
        <CharString name="eight.cap">
          44 -11 34 625 37 hstemhm
          71 69 5 71 158 74 -17 69 hintmask 11010100
          216 522 rmoveto
          77 49 49 72 64 30 -45 -65 -72 -26 -53 -90 -47 vhcurveto
          -74 49 -25 41 66 vvcurveto
          hintmask 11101000
          22 -533 rmoveto
          117 93 70 107 74 -28 51 -78 56 hvcurveto
          hintmask 11010100
          118 51 40 53 95 vvcurveto
          78 -60 61 -97 -110 -88 -79 -102 -60 25 -59 64 -54 vhcurveto
          hintmask 11100100
          -96 -40 -67 -78 -85 vvcurveto
          hintmask 11101000
          -88 64 -51 103 vhcurveto
          -98 150 rmoveto
          70 37 61 82 42 vhcurveto
          96 -66 19 -37 -65 vvcurveto
          -75 -53 -46 -76 -68 -37 44 72 vhcurveto
          endchar
        </CharString>
        <CharString name="eight.dnom">
          -9 28 358 28 hstemhm
          33 12 callgsubr
          hintmask 11010100
          135 315 -96 callgsubr
        </CharString>
        <CharString name="eight.lf">
          44 -11 34 600 37 hstemhm
          71 80 callsubr
          210 -56 callgsubr
        </CharString>
        <CharString name="eight.numr">
          245 28 358 28 hstemhm
          87 12 callgsubr
          hintmask 11010100
          189 569 -96 callgsubr
        </CharString>
        <CharString name="eight.osf">
          34 -12 34 602 36 hstemhm
          73 81 callgsubr
          213 -56 callsubr
        </CharString>
        <CharString name="eight.subs">
          -220 28 358 28 hstemhm
          -12 12 callgsubr
          hintmask 11010100
          90 104 -96 callgsubr
        </CharString>
        <CharString name="eight.sups">
          417 28 358 28 hstemhm
          124 12 callgsubr
          hintmask 11010100
          226 741 -96 callgsubr
        </CharString>
        <CharString name="eight.tosf">
          46 -12 34 602 36 hstemhm
          81 81 callgsubr
          221 -56 callsubr
        </CharString>
        <CharString name="ellipsis">
          436 -10 126 hstem
          63 129 171 129 172 129 vstem
          122 -10 rmoveto
          -58 callgsubr
          300 hmoveto
          -58 callgsubr
          301 hmoveto
          -58 callgsubr
          endchar
        </CharString>
        <CharString name="emacron">
          22 callsubr
          126 61 hstem
          54 70 225 66 vstem
          -105 callsubr
          -11 626 -24 callgsubr
        </CharString>
        <CharString name="emdash">
          34 callsubr
        </CharString>
        <CharString name="emdash.cap">
          34 callgsubr
        </CharString>
        <CharString name="emdash.sups">
          69 559 49 hstem
          109 469 vstem
          109 559 rmoveto
          469 49 -469 hlineto
          endchar
        </CharString>
        <CharString name="endash">
          46 219 64 hstem
          56 431 vstem
          56 219 93 callgsubr
        </CharString>
        <CharString name="endash.cap">
          46 274 64 hstem
          68 431 vstem
          68 274 93 callgsubr
        </CharString>
        <CharString name="endash.sups">
          -120 559 49 hstem
          109 280 vstem
          109 559 rmoveto
          280 49 -280 hlineto
          endchar
        </CharString>
        <CharString name="eogonek">
          -58 -240 46 181 69 388 43 hstemhm
          54 70 20 63 142 66 hintmask 11110100
          293 444 rmoveto
          33 23 -22 -37 -54 -59 -69 -166 -48 hvcurveto
          125 10 97 105 62 hhcurveto
          hintmask 11111100
          -60 -684 rmoveto
          44 45 28 29 26 hvcurveto
          -12 17 rlineto
          -16 -23 -32 -12 -24 25 callsubr
          61 47 53 52 44 hvcurveto
          34 28 23 28 22 34 -23 18 rcurveline
          -34 -27 -45 -39 -63 hhcurveto
          hintmask 11110100
          -61 -38 34 85 -4 hvcurveto
          228 66 63 90 64 vvcurveto
          59 -35 33 -65 -140 -121 -153 -161 -128 63 -58 88 vhcurveto
          hintmask 11111100
          11 11 1 3 10 hvcurveto
          -49 -46 -44 -51 -56 vvcurveto
          -48 32 -30 57 vhcurveto
          endchar
        </CharString>
        <CharString name="equal">
          68 callsubr
          503 203 rmoveto
          63 callgsubr
          444 200 rmoveto
          63 callgsubr
          endchar
        </CharString>
        <CharString name="estimated">
          335 -12 20 308 18 306 20 hstem
          46 130 450 128 vstem
          180 334 rmoveto
          -2 -2 2 4 hvcurveto
          180 vlineto
          8 4 8 4 6 vhcurveto
          60 56 76 38 86 hhcurveto
          82 76 -36 -58 56 hvcurveto
          6 -6 4 -8 -8 vvcurveto
          -184 vlineto
          -4 -2 -2 -4 vhcurveto
          -436 -226 rmoveto
          -4 6 -4 6 8 vvcurveto
          184 vlineto
          2 2 2 2 vhcurveto
          574 8 hlineto
          186 -158 150 -196 -196 -158 -150 -186 -186 158 -150 196 114 102 52 80 66 vhcurveto
          -52 hlineto
          -68 -56 -82 -44 -90 hhcurveto
          -86 -78 38 62 -54 hvcurveto
          endchar
        </CharString>
        <CharString name="eth">
          23 -13 40 414 43 232 -20 hstem
          54 82 265 77 vstem
          226 -13 rmoveto
          126 126 127 222 117 -36 107 -70 82 hvcurveto
          103 56 -17 35 -114 -62 -31 31 -38 26 -42 21 rlinecurve
          -27 -33 36 -22 31 -23 25 -25 rlinecurve
          -122 -67 17 -35 132 72 37 -46 23 -54 13 -67 rlinecurve
          23 -23 -29 12 -38 hhcurveto
          -127 -127 -128 -182 -117 69 -70 103 hvcurveto
          7 40 rmoveto
          -60 -37 50 109 143 76 112 96 55 38 -34 -98 -166 -77 -116 -91 hvcurveto
          endchar
        </CharString>
        <CharString name="exclam">
          -175 -12 128 -107 -21 hstemhm
          58 127 hintmask 01100000
          133 198 rmoveto
          33 hlineto
          96 314 28 79 47 vvcurveto
          30 -14 16 -31 -28 -24 -15 -62 -12 vhcurveto
          -5 -28 -11 -89 -13 -135 rrcurveto
          -94 -309 rmoveto
          -34 25 -24 31 38 33 31 37 vhcurveto
          hintmask 10100000
          33 -22 27 -35 vhcurveto
          hintmask 01100000
          -37 -33 -31 -39 hvcurveto
          endchar
        </CharString>
        <CharString name="exclamdown">
          -175 360 128 0 -20 hstemhm
          132 127 hintmask 01100000
          184 278 8 callsubr
          vhcurveto
          hintmask 10100000
          -33 22 -27 35 vhcurveto
          hintmask 01100000
          37 33 31 39 hvcurveto
          endchar
        </CharString>
        <CharString name="exclamdown.cap">
          -175 9 -21 568 128 hstem
          174 127 vstem
          226 474 8 callsubr
          -33 22 -27 35 37 33 31 39 vhcurveto
          endchar
        </CharString>
        <CharString name="f">
          -171 -250 98 575 51 -24 callsubr
          247.5 33 hstemhm
          -151 634 hintmask 01011000
          370 750 rmoveto
          -65 -115 -46 -221 -34 hvcurveto
          -1 -9 rlineto
          hintmask 10111000
          -104 -9 -8 -38 rlineto
          104 hlineto
          -21 -135 -20 -107 callgsubr
          rrcurveto
          hintmask 01011000
          60 callsubr
          42 callgsubr
          16 -19 rcurveline
          35 callsubr
          37 -8 -46 36 -59 hhcurveto
          endchar
        </CharString>
        <CharString name="f.sups">
          -252 264 76 364.5 36.5 -34 31.5 154.5 22 hstemhm
          -22 434 hintmask 01011000
          332 915 rmoveto
          -29 -24 -10 -17 -22 hvcurveto
          hintmask 10111000
          -34 -26 -26 -42 -15 -78 -67 -7 rcurveline
          -6 -28 rlineto
          68 hlineto
          -14 -88 -11 -82 -15 -85 -11 -59 -11 -37 -17 -28 -9 -14 -9 -10 -8 -7 -10 12 rcurveline
          17 -15 -15 14 -20 hhcurveto
          -17 -14 -13 -18 -3 hvcurveto
          -30 7 28 -15 33 hhcurveto
          24 26 11 26 28 hvcurveto
          37 33 18 50 13 68 rrcurveto
          hintmask 01011000
          16 81 13 88 13 85 87 -3 rcurveline
          6 38 rlineto
          -87 hlineto
          1 3 0 4 1 3 15 94 18 25 24 15 5 3 4 2 5 3 14 -21 rcurveline
          -26 18 15 -10 21 hhcurveto
          13 13 11 19 5 hvcurveto
          27 -6 -34 22 -40 hhcurveto
          endchar
        </CharString>
        <CharString name="f_b">
          303 11 callsubr
          63 370 67 -64 51 -24 callsubr
          248.5 32 hstemhm
          359 78 257 76 hintmask 11010111
          437 104 76 callsubr
          14 68 rlineto
          hintmask 11100111
          33 callsubr
          hintmask 11010111
          91 callgsubr
          -51 646 rmoveto
          -49 callsubr
          hintmask 11001111
          -64 callgsubr
          hintmask 11010111
          -36 callsubr
          -18 callgsubr
          hintmask 11100111
          45 callgsubr
          hintmask 11010111
          21 -20 -32 16 -38 hhcurveto
          endchar
        </CharString>
        <CharString name="f_f">
          93 26 callgsubr
          898 hintmask 00010011
          -82 callgsubr
          rrcurveto
          hintmask 00100011
          -103 -9 rlineto
          hintmask 10010011
          -104 callgsubr
          193 hlineto
          -21 -135 -20 -107 callgsubr
          rrcurveto
          hintmask 01000011
          60 callsubr
          hintmask 00010101
          41 callsubr
          hintmask 00011001
          16 -19 rlineto
          35 callsubr
          hintmask 00010101
          37 -8 -46 36 -59 hhcurveto
          -38 -56 -16 -58 -46 hvcurveto
          1 3 rlineto
          hintmask 00010011
          7 callgsubr
          -158 -265 1 callgsubr
          endchar
        </CharString>
        <CharString name="f_f_b">
          568 11 callsubr
          63 370 67 -64 51 22 callgsubr
          624 78 257 76 hintmask 1100011110000000
          -82 callgsubr
          rrcurveto
          hintmask 1100101110000000
          -103 -9 rlineto
          hintmask 1100011110000000
          -101 callgsubr
          hintmask 1101001110000000
          -36 callsubr
          hintmask 1100011110000000
          -18 callgsubr
          hintmask 1110001110000000
          45 callgsubr
          21 -20 -32 16 -38 -9 callsubr
          hintmask 1100011110000000
          -189 -89 callgsubr
          16 14 9 23 7 hvcurveto
          7 callgsubr
          316 -646 76 callsubr
          14 68 rlineto
          hintmask 1110001110000000
          33 callsubr
          hintmask 1100011110000000
          91 callgsubr
          endchar
        </CharString>
        <CharString name="f_f_f">
          358 26 callgsubr
          1163 hintmask 10010011
          493 485 1 callgsubr
          hintmask 10010101
          406 265 rmoveto
          -38 -56 -16 -58 -46 hvcurveto
          1 3 rlineto
          hintmask 10010011
          36 -8 -45 35 -56 -9 callsubr
          -189 -89 callgsubr
          16 14 9 23 7 hvcurveto
          36 -8 -45 35 -56 51 callgsubr
          hintmask 10100011
          -103 -9 rlineto
          hintmask 10010011
          -101 callsubr
          25 127 9 callsubr
          128 rrcurveto
          193 hlineto
          -21 -135 -20 -107 callgsubr
          rrcurveto
          hintmask 11000011
          60 callsubr
          hintmask 10010101
          41 callsubr
          hintmask 10011001
          16 -19 rlineto
          35 callsubr
          hintmask 10010101
          37 -8 -46 36 -59 hhcurveto
          endchar
        </CharString>
        <CharString name="f_f_h">
          623 11 callsubr
          69 364 67 -64 51 22 callgsubr
          871 81 -6 81 hintmask 1100011010000000
          -82 callgsubr
          rrcurveto
          hintmask 1100101010000000
          -103 -9 rlineto
          hintmask 1100011010000000
          -101 callgsubr
          hintmask 1101001010000000
          -36 callsubr
          hintmask 1100011010000000
          -13 callsubr
          hintmask 1110001010000000
          40 callsubr
          hintmask 1100011100000000
          -76 callsubr
          -24 hhcurveto
          -12 -8 7 14 10 6 20 7 28 hvcurveto
          hintmask 1110001010000000
          26 callsubr
          23 -20 -34 17 -39 -9 callsubr
          hintmask 1100011010000000
          -189 -89 callgsubr
          16 14 9 23 7 hvcurveto
          7 callgsubr
          endchar
        </CharString>
        <CharString name="f_f_i">
          369 11 callsubr
          69 368 50 19 callgsubr
          237 39 -32 32 hstemhm
          619 79 hintmask 00010011
          33 callgsubr
          hintmask 10001101
          -104 callgsubr
          194 -61 callsubr
          hintmask 01100101
          -11 callsubr
          hintmask 00001101
          71 342 -13 10 -44 -13 rlineto
          -230 31 callgsubr
          65 66 97 5 10 -13 rcurveline
          -39 32 16 -16 31 15 callgsubr
          15 callsubr
          -5 81 callsubr
          rrcurveto
          hintmask 00001011
          32 callsubr
          hintmask 00010011
          7 callgsubr
          endchar
        </CharString>
        <CharString name="f_f_j">
          323 -250 98 576 50 19 callgsubr
          237 39 -32 32 hstemhm
          -151 962 hintmask 00100110
          33 callgsubr
          hintmask 10011010
          -104 callgsubr
          194 -61 callsubr
          hintmask 01001010
          54 callsubr
          211 -4 rcurveline
          -72 -374 -23 -121 -26 -50 -33 -43 rlinecurve
          -20 -25 -25 -14 -36 -15 8 -28 rcurveline
          35 6 34 16 32 27 62 53 40 76 19 93 rrcurveto
          hintmask 00011010
          88 454 -13 10 -44 -13 rlineto
          -229 31 callgsubr
          66 67 96 4 11 -13 rcurveline
          -39 31 17 -16 30 15 callgsubr
          15 callsubr
          -5 81 callsubr
          rrcurveto
          hintmask 00010110
          32 callsubr
          hintmask 00100110
          7 callgsubr
          endchar
        </CharString>
        <CharString name="f_f_k">
          554 11 callsubr
          45 391 51 22 callgsubr
          -151 1188 hintmask 11001110
          -82 callgsubr
          rrcurveto
          hintmask 11010110
          -103 -9 rlineto
          hintmask 11001110
          -101 callgsubr
          hintmask 11100110
          -36 callsubr
          hintmask 11001110
          23 callsubr
          4 1 1 4 hvcurveto
          -10 -65 -10 -54 -11 -53 -96 -477 rcurveline
          9 -8 67 20 callgsubr
          34 -10 16 -18 24 -56 rlinecurve
          -65 callgsubr
          14 14 18 vvcurveto
          21 -15 14 callsubr
          -75 -31 rlineto
          23 -19 -34 18 -40 -9 callsubr
          -189 -89 callgsubr
          16 14 9 23 7 hvcurveto
          7 callgsubr
          endchar
        </CharString>
        <CharString name="f_f_l">
          360 11 callsubr
          69 367 51 22 callgsubr
          620 78 hintmask 11001110
          -82 callgsubr
          rrcurveto
          hintmask 11010110
          -103 -9 rlineto
          hintmask 11001110
          -101 callgsubr
          hintmask 11100110
          -36 callsubr
          hintmask 11001110
          16 callsubr
          -10 -65 -10 -53 -11 -53 -72 -365 rcurveline
          -7 -35 -3 -18 -14 vvcurveto
          -39 25 -19 32 70 51 63 59 43 63 callsubr
          -46 -40 -33 -35 callsubr
          39 callgsubr
          -73 -29 rlineto
          22 -20 -33 17 -39 -9 callsubr
          -189 -89 callgsubr
          16 14 9 23 7 hvcurveto
          7 callgsubr
          endchar
        </CharString>
        <CharString name="f_f_t">
          383 11 callsubr
          69 366 52 -49 49 22 callgsubr
          609 79 hintmask 11000111
          -82 callgsubr
          rrcurveto
          hintmask 11001011
          -103 -9 rlineto
          hintmask 11000111
          -101 callsubr
          25 127 9 callsubr
          128 rrcurveto
          101 -2 102 hlineto
          -67 -314 rlineto
          -67 callsubr
          hintmask 11100011
          47 callsubr
          rlineto
          hintmask 11010011
          -10 callgsubr
          hintmask 11000111
          -47 -134 -6 -1 rlineto
          -202 -89 callgsubr
          16 14 9 23 7 hvcurveto
          36 -8 -45 35 -56 -9 callsubr
          -189 -89 callgsubr
          16 14 9 23 7 hvcurveto
          7 callgsubr
          endchar
        </CharString>
        <CharString name="f_h">
          358 11 callsubr
          69 364 67 -64 51 -24 callsubr
          248.5 32 hstemhm
          606 81 -6 81 hintmask 00010101
          -82 callgsubr
          rrcurveto
          hintmask 10001101
          -64 callgsubr
          hintmask 00010101
          -36 callsubr
          -13 callsubr
          hintmask 00100101
          40 callsubr
          hintmask 01010110
          -76 callsubr
          -24 hhcurveto
          -12 -8 7 14 10 6 20 7 28 hvcurveto
          hintmask 00100101
          26 callsubr
          hintmask 00010101
          23 -20 -34 17 -39 hhcurveto
          endchar
        </CharString>
        <CharString name="f_i">
          104 11 callsubr
          69 368 50 -24 callsubr
          17.5 -20 244 39 hstemhm
          354 79 hintmask 01100110
          419 750 rmoveto
          15 callsubr
          hintmask 11010110
          -104 -9 -8 -38 rlineto
          104 -61 callsubr
          hintmask 01100110
          -11 callsubr
          hintmask 01001110
          71 342 -13 10 rlineto
          hintmask 01100110
          -44 -13 rlineto
          -230 31 callgsubr
          65 66 97 5 10 -13 rcurveline
          -39 32 16 -16 31 15 callgsubr
          endchar
        </CharString>
        <CharString name="f_j">
          59 -250 98 576 50 -24 callsubr
          241.5 39 hstemhm
          -151 697 hintmask 01011000
          419 750 rmoveto
          15 callsubr
          hintmask 10111000
          -104 -9 -8 -38 rlineto
          104 -61 callsubr
          hintmask 01011000
          54 callsubr
          211 -4 rcurveline
          -72 -374 -23 -121 -26 -50 -33 -43 rlinecurve
          -20 -25 -25 -14 -36 -15 8 -28 rcurveline
          35 6 34 16 32 27 62 53 40 76 19 93 88 454 rcurveline
          -13 10 -44 -13 rlineto
          -229 31 callgsubr
          66 67 96 4 11 -13 rcurveline
          -39 31 17 -16 30 15 callgsubr
          endchar
        </CharString>
        <CharString name="f_k">
          289 11 callsubr
          45 391 51 -24 callsubr
          248.5 32 hstemhm
          -151 923 hintmask 11101100
          -82 callgsubr
          rrcurveto
          hintmask 11011100
          -64 callgsubr
          hintmask 11101100
          -36 callsubr
          23 callsubr
          4 1 1 4 hvcurveto
          -10 -65 -10 -54 -11 -53 -96 -477 rcurveline
          9 -8 67 20 callgsubr
          34 -10 16 -18 24 -56 rlinecurve
          -65 callgsubr
          14 14 18 vvcurveto
          21 -15 14 callsubr
          -75 -31 rlineto
          23 -19 -34 18 -40 hhcurveto
          endchar
        </CharString>
        <CharString name="f_l">
          95 11 callsubr
          69 367 51 -24 callsubr
          241.5 -20 27 32 hstemhm
          355 78 hintmask 11010110
          33 callgsubr
          -62 callgsubr
          hintmask 11100110
          -36 callsubr
          16 callsubr
          -10 -65 -10 -53 -11 -53 -72 -365 rcurveline
          -7 -35 -3 -18 -14 vvcurveto
          -39 25 -19 32 70 51 63 59 43 63 callsubr
          -46 -40 -33 -35 callsubr
          hintmask 11101010
          39 callgsubr
          -73 -29 rlineto
          hintmask 11010110
          22 -20 -33 17 -39 hhcurveto
          endchar
        </CharString>
        <CharString name="f_t">
          118 11 callsubr
          69 366 52 -49 49 22 callgsubr
          344 79 hintmask 11000111
          -82 callgsubr
          rrcurveto
          hintmask 11001011
          -103 -9 rlineto
          hintmask 11000111
          -104 callgsubr
          101 -2 102 hlineto
          -67 -314 rlineto
          -67 callsubr
          hintmask 11100011
          47 callsubr
          rlineto
          hintmask 11010011
          -10 callgsubr
          hintmask 11000111
          -47 -134 -6 -1 rlineto
          -202 -89 callgsubr
          16 14 9 23 7 hvcurveto
          7 callgsubr
          endchar
        </CharString>
        <CharString name="figuredash">
          33 219 64 hstem
          56 418 vstem
          56 219 rmoveto
          418 64 -418 hlineto
          endchar
        </CharString>
        <CharString name="five">
          46 -13 39 323 40 177 81 hstem
          54 36 callsubr
          216 -40 callgsubr
        </CharString>
        <CharString name="five.cap">
          27 -13 39 346 40 177 81 hstem
          49 36 callsubr
          211 -13 rmoveto
          134 113 78 156 115 -63 76 -124 -30 -31 -5 -7 -27 hvcurveto
          49 189 rlineto
          273 hlineto
          18 81 rlineto
          -313 hlineto
          -80 -311 27 -6 rlineto
          12 22 31 7 41 hhcurveto
          82 44 -59 -100 -122 -73 -65 -95 -28 -20 3 11 -20 hvcurveto
          -3 58 rlineto
          55 -4 -9 21 -32 hhcurveto
          -17 -18 -8 -21 -9 hvcurveto
          -103 4 52 -55 106 hhcurveto
          endchar
        </CharString>
        <CharString name="five.dnom">
          -9 56 callgsubr
          17 67 133 71 vstem
          122 -9 -87 callgsubr
        </CharString>
        <CharString name="five.lf">
          27 -13 39 323 40 177 81 hstem
          49 36 callsubr
          211 -40 callgsubr
        </CharString>
        <CharString name="five.numr">
          245 56 callgsubr
          71 67 133 71 vstem
          176 245 -87 callgsubr
        </CharString>
        <CharString name="five.osf">
          4 83 callgsubr
          348 80 vstem
          178 -42 callsubr
        </CharString>
        <CharString name="five.subs">
          -220 56 callgsubr
          -28 67 133 71 vstem
          77 -220 -87 callgsubr
        </CharString>
        <CharString name="five.sups">
          417 56 callgsubr
          108 67 133 71 vstem
          213 417 -87 callgsubr
        </CharString>
        <CharString name="five.tosf">
          46 83 callgsubr
          381 80 vstem
          211 -42 callsubr
        </CharString>
        <CharString name="fiveeighths">
          71 callgsubr
          260 30 102 28 58 34 90 62 -9 -20 hstemhm
          71 67 133 71 204 12 callgsubr
          hintmask 0111101111001000
          230 -73 callsubr
          -20 235 rmoveto
          93 73 52 92 65 -42 43 -77 -21 -22 -5 -7 -20 hvcurveto
          hintmask 1011110111001000
          25 102 rlineto
          182 hlineto
          13 62 rlineto
          -210 hlineto
          -48 -193 19 -7 rlineto
          8 14 18 6 25 hhcurveto
          47 26 -30 -51 -70 -45 -37 -53 -14 -11 1 3 -9 hvcurveto
          -2 37 rlineto
          36 -2 -6 16 -26 hhcurveto
          -13 -12 -6 -15 -7 hvcurveto
          hintmask 0111101111001000
          -65 -1 38 -37 68 hhcurveto
          hintmask 1011110110101000
          472 70 -68 callsubr
          hintmask 1011110111010000
          -41 callgsubr
          hintmask 1011110110101000
          -65 callsubr
          hintmask 1011110111001000
          -61 -24 -39 -40 -51 vvcurveto
          hintmask 1011110111010000
          -83 callgsubr
        </CharString>
        <CharString name="four">
          46 187 61 hstem
          30 480 vstem
          497 -6 callgsubr
        </CharString>
        <CharString name="four.cap">
          46 187 61 hstem
          37 480 vstem
          504 187 rmoveto
          13 61 rlineto
          -109 hlineto
          89 428 rlineto
          -53 hlineto
          -396 -438 -11 -51 rlineto
          290 hlineto
          -43 -206 rlineto
          69 hlineto
          43 206 rlineto
          -289 61 rmoveto
          302 336 -69 -336 rlineto
          endchar
        </CharString>
        <CharString name="four.dnom">
          86 callsubr
          hstemhm
          0 311 hintmask 01100000
          302 98 -55 callsubr
          hintmask 10100000
          -23 -111 rlineto
          62 hlineto
          hintmask 01100000
          23 111 rlineto
          -188 48 rmoveto
          174 189 -38 -189 rlineto
          endchar
        </CharString>
        <CharString name="four.lf">
          46 187 61 hstem
          37 480 vstem
          504 -6 callgsubr
        </CharString>
        <CharString name="four.numr">
          352 48 hstem
          54 311 vstem
          356 352 -44 callgsubr
        </CharString>
        <CharString name="four.osf">
          95 66 61 hstem
          41 486 vstem
          514 -5 callgsubr
        </CharString>
        <CharString name="four.subs">
          -113 48 hstem
          -45 311 vstem
          257 -113 -44 callgsubr
        </CharString>
        <CharString name="four.sups">
          524 48 hstem
          91 311 vstem
          393 524 -44 callgsubr
        </CharString>
        <CharString name="four.tosf">
          46 66 61 hstem
          29 486 vstem
          502 -5 callgsubr
        </CharString>
        <CharString name="fraction">
          -378 -15 681 hstem
          -190 530 vstem
          -156 -73 callsubr
          endchar
        </CharString>
        <CharString name="g">
          -3 callsubr
          55 callgsubr
          198 69 hintmask 1011100011000000
          239 187 -29 callsubr
          -156 103 rmoveto
          -46 17 -37 32 -23 vhcurveto
          hintmask 1011100101000000
          19 callsubr
          hintmask 1101101011000000
          -21 callsubr
          hintmask 1101010101000000
          -79 callsubr
          hintmask 1011100011000000
          73 callgsubr
          71 callsubr
          hintmask 1011101011000000
          -30 -392 -49 callgsubr
        </CharString>
        <CharString name="g.sups">
          -119 268 34 116 55.5 52.5 24 176 24 hstemhm
          63 57 -4 55 -36 60 117 135 -121 54 hintmask 1011001100000000
          247 550 rmoveto
          -35 -17 31 44 60 21 41 45 28 23 -28 -45 -72 -25 -31 -40 hvcurveto
          -112 68 rmoveto
          -29 13 -26 23 -17 vhcurveto
          hintmask 1011010010000000
          -34 -23 -21 -22 -30 vvcurveto
          -17 7 -17 23 -11 vhcurveto
          hintmask 1111101010000000
          -46 -19 -37 -33 -38 vvcurveto
          -46 49 -22 66 117 85 55 71 40 -26 26 -75 9 vhcurveto
          hintmask 1111010100000000
          -72 9 rlineto
          -28 3 -8 13 11 vvcurveto
          9 1 7 15 16 vhcurveto
          -7 15 17 -4 20 hhcurveto
          62 47 43 81 19 hvcurveto
          4 16 4 14 5 13 rrcurveto
          40 9 27 15 25 vvcurveto
          6 -1 6 -3 4 vhcurveto
          2 -6 -6 1 -9 hhcurveto
          -32 -23 -22 -50 -12 hvcurveto
          35 -11 -33 26 -44 hhcurveto
          hintmask 1011001100000000
          -73 -59 -60 -72 hvcurveto
          hintmask 1111101010000000
          -15 -259 rmoveto
          24 16 18 32 19 vhcurveto
          -1 4 3 -1 4 hhcurveto
          62 -7 rlineto
          68 -8 17 -16 -24 vvcurveto
          -37 -44 -24 -72 -55 -35 21 36 vhcurveto
          endchar
        </CharString>
        <CharString name="gbreve">
          -3 callsubr
          97 64 84 -20 55 callgsubr
          198 69 hintmask 1011101100110000
          239 187 -29 callsubr
          -156 103 rmoveto
          -46 17 -37 32 -23 vhcurveto
          hintmask 1011101101010000
          19 callsubr
          hintmask 1101101110110000
          -21 callsubr
          hintmask 1101011101010000
          -79 callsubr
          hintmask 1011101100110000
          73 callgsubr
          71 callsubr
          233 285 -44 callsubr
          hintmask 1011101110110000
          -263 -677 -49 callgsubr
        </CharString>
        <CharString name="gdotaccent">
          -3 callsubr
          148 115 55 callgsubr
          104 107 -13 69 hintmask 1011100001010000
          239 187 -29 callsubr
          hintmask 1011101001100000
          77 439 -38 callgsubr
          -233 -336 rmoveto
          -46 17 -37 32 -23 vhcurveto
          hintmask 1011100010010000
          19 callsubr
          hintmask 1101100101010000
          -21 callsubr
          hintmask 1101010010010000
          -79 callsubr
          hintmask 1011100001010000
          73 callgsubr
          hintmask 1011101001100000
          71 callsubr
          hintmask 1011100101010000
          -30 -392 -49 callgsubr
        </CharString>
        <CharString name="germandbls">
          40 11 callsubr
          35 695 34 hstemhm
          288 65 78 68 -32 67 hintmask 11110100
          82 35 rmoveto
          -12 callsubr
          rrcurveto
          154 27 44 78 92 hhcurveto
          42 35 -30 -57 -37 -16 -38 -52 -45 hvcurveto
          -67 -57 -44 -46 -67 vvcurveto
          -52 30 -44 49 -36 vhcurveto
          hintmask 11111000
          54 -39 10 -24 -32 vvcurveto
          -54 -44 -37 -70 -6 -5 0 1 -5 vhcurveto
          -10 42 rlineto
          28 -6 -13 16 -28 hhcurveto
          -17 -15 -12 -16 -5 hvcurveto
          -60 7 40 -34 78 hhcurveto
          99 68 59 79 62 -20 29 -62 46 hvcurveto
          -45 34 -19 28 43 vvcurveto
          46 24 33 49 35 vhcurveto
          hintmask 11110100
          63 46 45 45 67 vvcurveto
          65 -49 47 -84 -122 -94 -83 -185 -30 vhcurveto
          -25 -157 -21 -139 -27 -152 rrcurveto
          endchar
        </CharString>
        <CharString name="grave">
          -65 87 callgsubr
          205 163 vstem
          368 549 -86 callgsubr
        </CharString>
        <CharString name="gravecmb.cap">
          -465 721 156 hstem
          -44 193 vstem
          149 746 -76 callgsubr
        </CharString>
        <CharString name="greater">
          65 97 466 hstem
          86 391 vstem
          477 353 rmoveto
          -362 210 -29 -50 327 -183 -327 -183 29 -50 362 211 rlineto
          endchar
        </CharString>
        <CharString name="greaterequal">
          65 0 53 hstem
          69 444 vstem
          69 hmoveto
          444 53 -444 hlineto
          419 245 rmoveto
          45 vlineto
          -373 193 -30 -50 332 -165 -332 -166 30 -49 rlineto
          endchar
        </CharString>
        <CharString name="guillemotleft">
          88 50 405 hstem
          74 460 vstem
          251 50 -47 callsubr
          380 -176 -47 callsubr
          endchar
        </CharString>
        <CharString name="guillemotleft.cap">
          88 95 405 hstem
          84 460 vstem
          261 95 -47 callsubr
          380 -176 -47 callsubr
          endchar
        </CharString>
        <CharString name="guillemotright">
          88 50 405 hstem
          52 460 vstem
          335 455 -46 callgsubr
          -380 176 -46 callgsubr
          endchar
        </CharString>
        <CharString name="guillemotright.cap">
          88 95 405 hstem
          62 460 vstem
          345 500 -46 callgsubr
          -380 176 -46 callgsubr
          endchar
        </CharString>
        <CharString name="guilsinglleft">
          -115 50 405 hstem
          74 257 vstem
          251 50 -47 callsubr
          endchar
        </CharString>
        <CharString name="guilsinglleft.cap">
          -115 95 405 hstem
          84 257 vstem
          261 95 -47 callsubr
          endchar
        </CharString>
        <CharString name="guilsinglright">
          -115 50 405 hstem
          52 257 vstem
          132 455 -46 callgsubr
          endchar
        </CharString>
        <CharString name="guilsinglright.cap">
          -115 95 405 hstem
          62 257 vstem
          142 500 -46 callgsubr
          endchar
        </CharString>
        <CharString name="h">
          79 -13 69 -43 -21 29 -21 420 67 171 32 hstemhm
          327 81 -6 81 hintmask 01011010
          72 -8 rmoveto
          67 8 11 70 13 70 14 70 rlinecurve
          26 123 rlineto
          59 73 55 28 36 hhcurveto
          22 13 -11 -35 -20 -8 -33 -8 -34 hvcurveto
          hintmask 10011100
          -43 -176 rlineto
          -10 -41 -6 -17 -23 vvcurveto
          -26 19 -17 32 68 65 63 59 44 callgsubr
          -45 -36 -38 -27 -24 hhcurveto
          -12 -8 7 14 10 6 20 7 28 hvcurveto
          hintmask 00111010
          29 callgsubr
          -173 -50 -4 -29 95 -6 -10 17 callgsubr
          -97 -477 rlineto
          endchar
        </CharString>
        <CharString name="h.sups">
          -78 416 52 32 -20 215 75 callsubr
          hstemhm
          310 64 -17 64 hintmask 11111000
          131 420 rmoveto
          54 5 8 47 8 42 10 51 rlinecurve
          17 80 rlineto
          hintmask 11110100
          33 46 37 17 23 hhcurveto
          14 9 84 callgsubr
          hintmask 11111000
          43 callgsubr
          13 -13 24 49 45 42 42 27 vhcurveto
          -18 93 callsubr
          -15 -1 9 39 10 hvcurveto
          hintmask 11110100
          31 123 62 callsubr
          -16 16 -30 -41 -55 -30 -43 -45 vhcurveto
          46 223 -7 53 callgsubr
          -61 -297 rlineto
          endchar
        </CharString>
        <CharString name="horizontalbar.cap">
          34 callgsubr
        </CharString>
        <CharString name="hungarumlaut">
          -65 556 197 hstem
          138 308 vstem
          138 574 -74 callsubr
        </CharString>
        <CharString name="hungarumlautcmb.cap">
          -465 717 166 hstem
          8 318 vstem
          8 737 -54 callsubr
        </CharString>
        <CharString name="hyphen">
          -154 219 64 hstem
          56 231 vstem
          56 219 92 callsubr
        </CharString>
        <CharString name="hyphen.cap">
          -154 274 64 hstem
          68 231 vstem
          68 274 92 callsubr
        </CharString>
        <CharString name="hyphen.sups">
          -248 559 49 hstem
          109 154 vstem
          109 559 rmoveto
          154 49 -154 hlineto
          endchar
        </CharString>
        <CharString name="i">
          -160 -13 69 348 32 51 -20 156 121 hstemhm
          90 79 14 113 vstemhm
          -100 callsubr
          hintmask 11110100
          147 585 -8 callgsubr
          endchar
        </CharString>
        <CharString name="i.sups">
          -249 416 52 32 -20 208 25 114 90 hstemhm
          139 64 5 83 hintmask 11111000
          139 454 rmoveto
          -25 19 -13 21 51 36 42 42 30 vhcurveto
          -17 13 rlineto
          -30 -27 -20 -15 -15 hhcurveto
          -16 -2 10 38 8 hvcurveto
          48 227 -10 8 -122 -38 -3 -23 64 -4 -36 -176 rlineto
          -5 -24 -4 -19 -13 vvcurveto
          hintmask 11110100
          108 373 46 callsubr
          endchar
        </CharString>
        <CharString name="i.trk">
          -160 -13 69 348 32 51 -20 156 121 hstemhm
          90 79 14 113 vstemhm
          -100 callsubr
          hintmask 11110100
          147 585 -8 callgsubr
          endchar
        </CharString>
        <CharString name="iacute">
          -83 callsubr
          132 511 -97 callgsubr
        </CharString>
        <CharString name="icircumflex">
          -83 callsubr
          249 508 -62 callsubr
        </CharString>
        <CharString name="idieresis">
          -160 -13 69 348 32 51 -20 157 103 hstemhm
          90 79 -65 101 94 100 hintmask 11111010
          -100 callsubr
          hintmask 11110110
          60 586 rmoveto
          -80 callgsubr
        </CharString>
        <CharString name="igrave">
          -83 callsubr
          154 511 -86 callgsubr
        </CharString>
        <CharString name="imacron">
          -160 -13 69 348 32 51 -20 146 61 hstem
          90 79 vstem
          -100 callsubr
          22 575 -24 callgsubr
        </CharString>
        <CharString name="infinity">
          332 164 60 -60 73 183 73 -59 59 hstemhm
          94 47 569 47 hintmask 10101100
          141 329 rmoveto
          53 36 38 61 56 47 -53 -62 48 vhcurveto
          -56 -45 -33 -25 -63 hhcurveto
          -59 -48 43 62 hvcurveto
          hintmask 01011100
          462 105 rmoveto
          59 48 -43 -62 -53 -36 -39 -60 -56 -48 54 61 -48 hvcurveto
          57 46 33 25 62 hhcurveto
          hintmask 10011100
          154 -100 rmoveto
          93 -63 66 -83 -60 -58 -32 -80 -54 vhcurveto
          hintmask 10101100
          58 -47 -58 54 -82 hhcurveto
          -94 -64 -73 -96 -94 63 -66 83 60 57 32 81 54 hvcurveto
          -59 49 57 -54 82 hhcurveto
          hintmask 10011100
          94 64 74 96 hvcurveto
          endchar
        </CharString>
        <CharString name="integral">
          -106 -250 99 823 98 hstem
          -87 579 vstem
          174 280 rmoveto
          -12 -97 -14 -94 -19 -93 -14 -72 -30 -89 -56 -41 -13 22 rcurveline
          26 -15 -17 7 -18 hhcurveto
          -27 -18 -19 -26 -8 hvcurveto
          -31 2 26 -23 42 hhcurveto
          73 103 66 215 40 hvcurveto
          17 86 16 85 10 89 19 160 10 49 5 24 20 100 27 69 52 34 13 -23 rcurveline
          -23 16 16 -9 20 hhcurveto
          26 18 18 26 8 hvcurveto
          31 -2 -28 23 -41 hhcurveto
          -78 -100 -68 -213 -38 hvcurveto
          -4 -20 -9 -42 -18 -147 rrcurveto
          endchar
        </CharString>
        <CharString name="iogonek">
          -160 -240 46 181 69 -46 -21 415 32 51 -20 156 121 hstemhm
          75 63 -48 79 14 113 hintmask 1011111010000000
          237 623 -8 callgsubr
          hintmask 1011110110000000
          -147 -585 rmoveto
          -34 27 -17 27 vhcurveto
          hintmask 1011111010000000
          7 7 1 1 7 hvcurveto
          -46 91 callsubr
          -26 callgsubr
          -31 78 callgsubr
          hvcurveto
          hintmask 1101111010000000
          60 44 52 47 43 vhcurveto
          29 27 29 31 25 33 -25 19 rcurveline
          hintmask 1101110110000000
          -48 -40 -32 59 callsubr
          71 342 -13 10 -170 -51 -4 -29 99 -6 -60 -290 rlineto
          hintmask 1011110110000000
          -9 -41 -2 -17 -15 vvcurveto
          endchar
        </CharString>
        <CharString name="j">
          -205 404 32 51 -20 156 121 hstem
          183 113 vstem
          237 623 -8 callgsubr
          -299 -871 -1 callsubr
        </CharString>
        <CharString name="j.sups">
          -275 687.5 57 callgsubr
          0 -20 134 90 hstemhm
          208 83 hintmask 01110000
          247 827 46 callsubr
          -207 -562 rmoveto
          29 5 27 14 28 25 36 32 24 46 13 65 56 291 rcurveline
          -9 8 -121 -38 rlineto
          hintmask 10110000
          -2 -23 63 -5 -44 -227 -14 -76 -15 -36 -22 -25 rlinecurve
          -15 -17 -16 -10 -24 -9 rrcurveto
          endchar
        </CharString>
        <CharString name="k">
          7 -13 45 -19 -21 29 -21 658 32 hstemhm
          61 430 hintmask 00111000
          61 hmoveto
          10 -8 rlineto
          hintmask 01011000
          66 20 callgsubr
          35 -10 15 -18 24 -56 rlinecurve
          hintmask 10011000
          -65 callgsubr
          15 14 18 vvcurveto
          21 -16 14 callsubr
          -173 -50 -4 -29 95 -6 -10 17 callgsubr
          endchar
        </CharString>
        <CharString name="k.sups">
          416 31.5 135 13 250 24.5 hstem
          122 302 vstem
          122 426 rmoveto
          8 -6 53 5 8 47 7 42 11 51 rlinecurve
          4 18 3 -1 23 -7 11 -11 15 -36 rlinecurve
          22 -54 rlineto
          -49 20 23 -9 34 hhcurveto
          17 14 2 7 21 hvcurveto
          3 21 -31 3 -21 2 -11 5 -14 30 rlinecurve
          -20 44 -16 36 -23 22 -41 6 rlinecurve
          -18 3 159 69 rlineto
          29 13 12 12 18 vvcurveto
          19 -11 17 -17 2 vhcurveto
          -178 -137 58 290 -5 7 -124 -37 -3 -22 61 -5 -7 -40 -7 -40 -8 -40 rlinecurve
          endchar
        </CharString>
        <CharString name="l">
          -186 -13 69 602 32 hstem
          74 77 vstem
          130 -13 -90 callgsubr
          endchar
        </CharString>
        <CharString name="l.sups">
          -261 416 52 32 -20 365.5 24.5 hstem
          134 62 vstem
          175 416 rmoveto
          50 36 42 42 29 hvcurveto
          -17 13 rlineto
          -29 -26 -22 -16 -13 hhcurveto
          -15 -6 6 37 8 hvcurveto
          80 389 -8 53 callgsubr
          -40 -206 rlineto
          -6 -30 -3 -17 -13 vvcurveto
          -27 17 -14 24 vhcurveto
          endchar
        </CharString>
        <CharString name="lacute">
          -186 -13 69 602 32 hstem
          74 77 vstem
          130 -13 -90 callgsubr
          91 798 -103 callsubr
        </CharString>
        <CharString name="lcaron">
          -162 -13 69 602 32 hstem
          74 77 vstem
          408 749 30 callsubr
          30 -3 34 61 rlineto
          24 45 31 60 33 vvcurveto
          13 -5 17 -29 vhcurveto
          -278 -762 -90 callgsubr
          endchar
        </CharString>
        <CharString name="ldot">
          -174 -13 69 252 126 224 32 hstem
          74 77 108 129 vstem
          130 -13 -90 callgsubr
          188 321 rmoveto
          -58 callgsubr
          endchar
        </CharString>
        <CharString name="less">
          65 97 466 hstem
          86 391 vstem
          86 307 rmoveto
          362 -210 29 50 -327 183 327 183 -29 50 -362 -211 rlineto
          endchar
        </CharString>
        <CharString name="lessequal">
          65 0 53 hstem
          49 444 vstem
          493 hmoveto
          63 callgsubr
          25 298 rmoveto
          373 -192 30 49 -332 166 332 165 -30 50 -373 -193 rlineto
          endchar
        </CharString>
        <CharString name="logicalnot">
          65 339 54 hstem
          441 57 vstem
          54 339 rmoveto
          387 -172 57 226 -444 hlineto
          endchar
        </CharString>
        <CharString name="longs">
          -171 -250 98 870 32 hstem
          -151 634 vstem
          370 750 rmoveto
          -41 -32 -15 -24 -31 hvcurveto
          -51 -40 -38 -57 -22 -131 -26 -157 -20 -139 -27 -152 -12 callsubr
          27 152 28 33 36 28 11 9 10 6 10 5 16 -20 rcurveline
          -39 32 17 -16 30 hhcurveto
          17 15 10 24 7 hvcurveto
          37 -8 -47 36 -58 hhcurveto
          endchar
        </CharString>
        <CharString name="lozenge">
          116 -55 756 hstem
          115 414 vstem
          473 325 rmoveto
          -151 -299 -152 299 152 294 rlineto
          207 -294 rmoveto
          -201 376 rlineto
          -13 hlineto
          -200 -376 200 -380 rlineto
          13 hlineto
          endchar
        </CharString>
        <CharString name="lslash">
          -186 -13 69 602 32 hstem
          74 77 vstem
          130 -13 rmoveto
          71 50 63 59 43 hvcurveto
          -23 19 rlineto
          -46 -40 -34 -35 callsubr
          49 241 98 46 10 49 -99 -47 62 306 -11 8 -172 -50 -4 -29 94 -6 -9 17 callgsubr
          -16 -83 -94 -43 -10 -49 94 44 -46 -234 rlineto
          -6 -35 -3 -18 -14 vvcurveto
          -39 25 -19 31 vhcurveto
          endchar
        </CharString>
        <CharString name="m">
          353 -13 callgsubr
          hstemhm
          420 80 101 81 -6 81 hintmask 10001110
          652 -13 rmoveto
          71 58 61 61 43 hvcurveto
          16 callgsubr
          -48 -40 -31 -24 -27 hhcurveto
          -11 -9 7 14 10 6 20 7 28 hvcurveto
          hintmask 00101101
          24 callsubr
          -22 23 -41 -60 -76 -50 -61 -63 vhcurveto
          3 15 2 14 13 vvcurveto
          46 -22 23 -41 -62 -82 -50 -63 -65 vhcurveto
          21 103 -13 10 rlineto
          hintmask 00110101
          -27 callsubr
          hintmask 01001101
          67 8 13 71 12 69 15 70 rlinecurve
          27 121 rlineto
          60 73 56 29 36 hhcurveto
          22 13 -11 -32 -16 -5 -18 -3 -17 hvcurveto
          hintmask 00101101
          -69 -326 10 -8 rlineto
          hintmask 01001101
          65 8 13 71 13 69 16 70 rlinecurve
          26 122 rlineto
          58 70 51 30 34 hhcurveto
          23 12 -11 -35 -20 -8 -33 -8 -34 hvcurveto
          hintmask 10001110
          -43 -176 rlineto
          -10 -41 -6 -17 -23 vvcurveto
          -26 19 -17 32 vhcurveto
          endchar
        </CharString>
        <CharString name="m.sups">
          106 40 callgsubr
          363 64 68 65 -18 64 hintmask 11001110
          65 callgsubr
          hintmask 11010101
          18 79 rlineto
          34 45 37 17 24 hhcurveto
          13 8 -7 -18 1 hvcurveto
          -11 -2 -13 -3 -14 vhcurveto
          -44 -206 7 -6 53 5 8 47 9 46 10 47 rlinecurve
          18 79 rlineto
          33 44 33 18 23 hhcurveto
          15 8 -7 -20 hvcurveto
          1 -12 -5 -19 -5 -21 rrcurveto
          hintmask 11001110
          43 callgsubr
          13 -13 24 50 41 41 43 29 vhcurveto
          -17 13 rlineto
          -30 -26 -21 -15 -17 hhcurveto
          -13 -2 8 32 8 hvcurveto
          hintmask 11010101
          32 131 62 callsubr
          -17 16 -28 -41 -51 -30 -43 -44 vhcurveto
          1 8 1 7 7 vvcurveto
          35 1 -17 16 -29 hhcurveto
          -42 -54 -30 -43 -45 hvcurveto
          hintmask 11001110
          13 65 -10 9 -121 -38 rlineto
          hintmask 11100110
          69 callsubr
        </CharString>
        <CharString name="macron">
          -65 613 61 hstem
          145 274 vstem
          145 613 -24 callgsubr
        </CharString>
        <CharString name="macroncmb.cap">
          -465 759 58 hstem
          -35 311 vstem
          -35 759 6 callgsubr
          endchar
        </CharString>
        <CharString name="minus">
          65 303 53 hstem
          59 444 vstem
          503 303 rmoveto
          63 callgsubr
          endchar
        </CharString>
        <CharString name="multiply">
          65 121 418 hstem
          72 419 vstem
          452 121 rmoveto
          39 38 -171 171 171 171 -39 38 -170 -170 -171 170 -39 -38 171 -171 -171 -171 39 -38 171 171 rlineto
          endchar
        </CharString>
        <CharString name="n">
          -94 callgsubr
          endchar
        </CharString>
        <CharString name="n.sups">
          -71 40 callgsubr
          317 63 -16 64 hintmask 11001010
          65 callgsubr
          hintmask 11010010
          18 79 rlineto
          34 46 36 17 24 hhcurveto
          15 8 84 callgsubr
          hintmask 11001100
          43 callgsubr
          14 -13 23 49 45 42 42 27 vhcurveto
          -17 93 callsubr
          -8 -6 4 9 7 4 12 4 16 hvcurveto
          hintmask 11010010
          30 123 62 callsubr
          -16 16 -29 -42 -55 -30 -43 -45 vhcurveto
          hintmask 11001010
          13 65 -10 9 -121 -38 rlineto
          hintmask 11100010
          69 callsubr
        </CharString>
        <CharString name="nacute">
          -94 callgsubr
          248 557 -97 callgsubr
        </CharString>
        <CharString name="ncaron">
          -94 callgsubr
          192 759 -68 callgsubr
        </CharString>
        <CharString name="nine">
          46 265 47 307 40 hstem
          108 87 callsubr
          183 -37 callgsubr
        </CharString>
        <CharString name="nine.cap">
          39 266 46 332 40 hstem
          109 87 callsubr
          184 469 rmoveto
          98 61 77 76 76 37 -69 -113 -42 -5 -39 -9 -37 vhcurveto
          -22 -42 -34 -10 -34 hhcurveto
          -79 -47 61 96 hvcurveto
          -112 -445 rmoveto
          9 -38 rlineto
          270 71 159 179 226 vvcurveto
          134 -63 88 -115 -121 -102 -96 -133 -111 65 -78 102 44 43 14 28 46 vhcurveto
          -47 -130 -111 -94 -179 -60 rrcurveto
          endchar
        </CharString>
        <CharString name="nine.dnom">
          12 -21 159 35 191 29 hstem
          43 66 140 67 vstem
          109 265 -84 callsubr
        </CharString>
        <CharString name="nine.lf">
          39 265 47 307 40 hstem
          103 87 callsubr
          178 -37 callgsubr
        </CharString>
        <CharString name="nine.numr">
          404 35 191 29 hstem
          97 66 140 67 vstem
          163 519 -84 callsubr
        </CharString>
        <CharString name="nine.osf">
          90 143 44 313 40 hstem
          113 75 251 75 vstem
          188 -33 callsubr
        </CharString>
        <CharString name="nine.subs">
          -61 35 191 29 hstem
          -2 66 140 67 vstem
          64 54 -84 callsubr
        </CharString>
        <CharString name="nine.sups">
          576 35 191 29 hstem
          134 66 140 67 vstem
          200 691 -84 callsubr
        </CharString>
        <CharString name="nine.tosf">
          46 143 44 313 40 hstem
          102 75 251 75 vstem
          177 -33 callsubr
        </CharString>
        <CharString name="notequal">
          68 callsubr
          144 59 rmoveto
          81 144 rlineto
          278 53 -248 hlineto
          84 147 rlineto
          164 53 -134 hlineto
          72 128 -33 16 -81 -144 rlineto
          -268 -53 238 hlineto
          -83 -147 rlineto
          -155 -53 125 hlineto
          -72 -128 rlineto
          endchar
        </CharString>
        <CharString name="ntilde">
          98 -13 callgsubr
          88 53 33 53 hstemhm
          346 81 -6 80 hintmask 0100111010000000
          -69 callgsubr
          hintmask 1000111100000000
          -75 callsubr
          hintmask 0010111010000000
          -50 callgsubr
          hintmask 0011011010000000
          -27 callsubr
          110 594 -87 callsubr
        </CharString>
        <CharString name="numbersign">
          90 21 -21 180 81 132 81 hstem
          45 525 vstem
          209 261 rmoveto
          35 132 rlineto
          168 hlineto
          -35 -132 rlineto
          -285 -261 rmoveto
          46 hlineto
          49 180 rlineto
          168 hlineto
          -49 -180 rlineto
          46 hlineto
          49 180 rlineto
          97 hlineto
          16 81 rlineto
          -91 hlineto
          35 132 rlineto
          96 hlineto
          16 81 rlineto
          -90 76 callgsubr
          -168 76 callgsubr
          -103 hlineto
          -16 -81 rlineto
          97 hlineto
          -35 -132 rlineto
          -102 hlineto
          -16 -81 rlineto
          96 hlineto
          endchar
        </CharString>
        <CharString name="o">
          23 callgsubr
          hstem
          54 82 260 81 vstem
          -98 callgsubr
          endchar
        </CharString>
        <CharString name="o.sups">
          -21 callgsubr
        </CharString>
        <CharString name="oacute">
          23 callgsubr
          hstem
          54 82 260 81 vstem
          -98 callgsubr
          62 522 -97 callgsubr
        </CharString>
        <CharString name="ocircumflex">
          23 callgsubr
          hstem
          54 82 260 81 vstem
          232 27 rmoveto
          -56 -40 43 105 149 73 123 95 54 38 -42 -108 -134 -66 -136 -98 hvcurveto
          -11 -40 rmoveto
          140 116 151 174 113 -68 62 -94 -142 -119 -144 -180 -114 74 -62 93 hvcurveto
          223 559 -62 callsubr
        </CharString>
        <CharString name="odieresis">
          23 callgsubr
          137 103 hstemhm
          54 82 59 101 94 100 -94 81 hintmask 11111010
          -98 callgsubr
          9 597 46 callgsubr
          hintmask 11111100
          193 hmoveto
          31 -20 callsubr
          -27 -27 -27 -23 -34 -29 21 -17 23 hvcurveto
          endchar
        </CharString>
        <CharString name="oe">
          278 -13 40 -40 69 388 43 -40 40 hstemhm
          54 82 260 65 225 66 hintmask 10011110
          232 27 rmoveto
          -56 -40 43 105 149 73 123 95 54 38 -42 -108 -134 -66 -136 -98 hvcurveto
          hintmask 10101110
          398 417 rmoveto
          33 23 -22 -37 -54 -59 -69 -166 -48 hvcurveto
          125 10 97 105 62 hhcurveto
          -88 -457 rmoveto
          73 65 56 68 42 hvcurveto
          hintmask 01011110
          -23 18 rlineto
          -34 -27 -45 -39 -63 hhcurveto
          -61 -38 34 85 -4 hvcurveto
          228 66 63 90 64 vvcurveto
          59 -35 33 -65 -74 -68 -42 -64 -49 vhcurveto
          69 -24 -54 37 -68 hhcurveto
          -142 -119 -144 -180 hvcurveto
          hintmask 10011110
          -114 74 -62 92 71 65 41 64 46 vhcurveto
          hintmask 10101110
          -72 21 52 -33 67 hhcurveto
          endchar
        </CharString>
        <CharString name="ogonek">
          -65 -240 46 hstem
          37 62 vstem
          37 -162 rmoveto
          -23 callgsubr
          58 42 50 44 42 hvcurveto
          -33 hlineto
          -54 -51 -61 -58 -66 vvcurveto
          endchar
        </CharString>
        <CharString name="ograve">
          23 callgsubr
          hstem
          54 82 260 81 vstem
          -98 callgsubr
          118 522 -86 callgsubr
        </CharString>
        <CharString name="ohungarumlaut">
          23 callgsubr
          hstem
          54 82 260 81 vstem
          -98 callgsubr
          3 547 -74 callsubr
        </CharString>
        <CharString name="omacron">
          23 callgsubr
          126 61 hstem
          54 82 260 81 vstem
          -98 callgsubr
          -39 586 -24 callgsubr
        </CharString>
        <CharString name="one">
          46 0 42 hstem
          53 370 vstem
          176 603 rmoveto
          -8 -40 138 11 -106 -525 -140 -14 -7 -35 rlineto
          362 hlineto
          8 35 -149 15 11 53 10 54 11 54 rlinecurve
          59 292 70 callgsubr
        </CharString>
        <CharString name="one.cap">
          -77 0 35 hstem
          21 331 vstem
          150 633 rmoveto
          -8 -40 118 10 -112 -554 35 callgsubr
          65 321 70 callgsubr
        </CharString>
        <CharString name="one.dnom">
          0 -33 callgsubr
          hstemhm
          20 89 callsubr
          255 hmoveto
          -51 callsubr
        </CharString>
        <CharString name="one.lf">
          -77 0 35 hstem
          21 329 vstem
          144 604 rmoveto
          -8 -40 118 10 -106 -525 35 callgsubr
          59 292 70 callgsubr
        </CharString>
        <CharString name="one.numr">
          254 -33 callgsubr
          hstemhm
          74 89 callsubr
          309 254 rmoveto
          -51 callsubr
        </CharString>
        <CharString name="one.osf">
          -49 0 35 491 -20 hstem
          53 304 vstem
          53 hmoveto
          296 hlineto
          8 35 -114 17 9 50 13 65 9 45 rlinecurve
          35 171 32 143 -11 10 -198 -52 -7 -35 125 10 -80 -408 -109 -16 rlineto
          endchar
        </CharString>
        <CharString name="one.subs">
          -211 -33 callgsubr
          hstemhm
          -25 89 callsubr
          210 -211 rmoveto
          -51 callsubr
        </CharString>
        <CharString name="one.sups">
          426 -33 callgsubr
          hstemhm
          111 89 callsubr
          346 426 rmoveto
          -51 callsubr
        </CharString>
        <CharString name="one.tosf">
          46 0 35 491 -20 hstem
          68 383 vstem
          68 hmoveto
          375 hlineto
          8 35 -153 17 9 51 13 65 9 44 rlinecurve
          35 171 32 143 -11 10 -218 -52 -7 -35 145 10 -80 -407 -149 -17 rlineto
          endchar
        </CharString>
        <CharString name="oneeighth">
          71 callgsubr
          269 30.5 -30.5 31 92 28 31 callsubr
          546 12 callgsubr
          hintmask 0101101100100000
          230 -73 callsubr
          113 244 rmoveto
          5 26 -85 10 rlineto
          hintmask 1010110100100000
          -41 callsubr
          -63 -314 -81 -9 rlineto
          hintmask 1001101010100000
          -6 -26 rlineto
          574 61 -68 callsubr
          hintmask 1001101101000000
          -41 callgsubr
          hintmask 1001101010100000
          -65 callsubr
          hintmask 1001101100100000
          -61 -24 -39 -40 -51 vvcurveto
          hintmask 1001101101000000
          -83 callgsubr
        </CharString>
        <CharString name="onehalf">
          405 0 62 -56 -21 269 30.5 -30.5 31 88 32 31 callsubr
          582 -2 callsubr
          hintmask 0101101010000000
          230 -73 callsubr
          113 244 rmoveto
          5 26 -85 10 rlineto
          hintmask 1010110010000000
          -41 callsubr
          -63 -314 -81 -9 rlineto
          hintmask 1001101110000000
          -6 -26 rlineto
          460 -254 rmoveto
          -91 callsubr
        </CharString>
        <CharString name="onequarter">
          405 86 callsubr
          108 -33 callgsubr
          16 -20 hstemhm
          74 750 hintmask 10010110
          250 -73 callsubr
          hintmask 01010110
          599 88 -55 callsubr
          hintmask 10010110
          -23 -111 rlineto
          62 hlineto
          hintmask 01011010
          23 111 rlineto
          -440 156 rmoveto
          -23 callsubr
          hintmask 01100110
          -63 -314 -81 -9 rlineto
          hintmask 01010110
          -6 -26 rlineto
          487 -108 rmoveto
          174 189 -38 -189 rlineto
          endchar
        </CharString>
        <CharString name="onethird">
          82 callsubr
          30.5 -30.5 31 90 30 31 callsubr
          531 -35 callgsubr
          hintmask 0110110111000000
          230 -73 callsubr
          113 244 rmoveto
          5 26 -85 10 rlineto
          hintmask 1011011011000000
          -41 callsubr
          -63 -314 -81 -9 rlineto
          hintmask 1010110111000000
          -6 -26 rlineto
          571 -263 -22 callgsubr
          hintmask 1010110110100000
          -97 callsubr
          hintmask 1010110111000000
          -73 callgsubr
        </CharString>
        <CharString name="ordfeminine">
          -66 callsubr
        </CharString>
        <CharString name="ordmasculine">
          -21 callgsubr
        </CharString>
        <CharString name="oslash">
          23 -13 40 -26 -21 28 -21 460 40 14 -20 hstemhm
          54 78 267 78 hintmask 10001110
          523 475 rmoveto
          -27 26 rlineto
          hintmask 00110110
          -62 -62 rlineto
          32 -29 -42 16 -48 hhcurveto
          -142 -119 -144 -180 -31 6 -28 10 -23 hvcurveto
          -77 -76 rlineto
          hintmask 01010110
          29 -25 rlineto
          hintmask 10001110
          68 67 rlineto
          -39 30 47 -21 54 hhcurveto
          140 116 151 174 38 -8 32 -13 26 hvcurveto
          -324 -233 rmoveto
          hintmask 10010110
          149 75 123 97 36 29 -13 -42 16 vhcurveto
          -252 -249 rlineto
          hintmask 10001110
          -1 10 0 11 11 vvcurveto
          100 -148 rmoveto
          -42 -34 17 54 -15 hvcurveto
          255 251 rlineto
          2 -15 1 -17 -20 vvcurveto
          -134 -67 -136 -100 vhcurveto
          endchar
        </CharString>
        <CharString name="otilde">
          23 callgsubr
          91 53 33 53 hstem
          54 82 260 81 vstem
          -98 callgsubr
          -71 562 -87 callsubr
        </CharString>
        <CharString name="p">
          47 -241 34 194 68 349 32 -16 67 hstemhm
          437 77 hintmask 11011000
          -58 -241 rmoveto
          253 hlineto
          8 34 -92 15 8 50 11 58 18 86 41 callgsubr
          -79 -46 -76 -62 hvcurveto
          24 112 -13 10 rlineto
          hintmask 11101000
          -170 -51 -4 -29 99 -6 -126 -594 -86 -14 rlineto
          hintmask 11011000
          427 627 rmoveto
          39 22 52 callgsubr
          -26 8 20 -27 hvcurveto
          50 233 rlineto
          67 63 57 37 41 hhcurveto
          endchar
        </CharString>
        <CharString name="p.sups">
          -104 68 callgsubr
          46 225.5 57 callgsubr
          -18 55 -37 -20 hstemhm
          375 61 hintmask 11010100
          333 695 rmoveto
          26 16 -19 -41 -84 -57 -89 -70 -15 -17 7 15 -17 hvcurveto
          34 157 rlineto
          34 37 36 20 27 hhcurveto
          -291 -425 rmoveto
          177 hlineto
          5 24 -61 9 6 33 7 37 10 51 rlinecurve
          -5 12 12 -3 14 hhcurveto
          100 112 131 117 64 -29 22 -35 -39 -53 -27 -45 -40 hvcurveto
          hintmask 11001100
          14 64 -10 9 -121 -38 rlineto
          hintmask 11100100
          -3 -23 64 -5 -80 -382 -57 -9 rlineto
          endchar
        </CharString>
        <CharString name="paragraph">
          132 623 47 -92 callsubr
          hstemhm
          97 579 hintmask 10100000
          360 -130 rmoveto
          77 hlineto
          16 103 19 104 19 103 rrcurveto
          hintmask 01100000
          81 438 97 11 rlineto
          hintmask 10100000
          7 41 rlineto
          -209 hlineto
          -248 -122 -119 -179 -130 102 -71 145 -21 hvcurveto
          88 473 rlineto
          67 hlineto
          endchar
        </CharString>
        <CharString name="parenleft">
          -90 714 -20 hstem
          82 78 vstem
          234 -211 -4 callsubr
        </CharString>
        <CharString name="parenleft.cap">
          -90 -176 925 hstem
          89 78 vstem
          241 -176 -4 callsubr
        </CharString>
        <CharString name="parenleft.dnom">
          -92 -126 96 callgsubr
          129 61 vstem
          226 -126 -60 callsubr
        </CharString>
        <CharString name="parenleft.numr">
          -92 128 96 callgsubr
          183 61 vstem
          280 128 -60 callsubr
        </CharString>
        <CharString name="parenleft.subs">
          -92 -337 96 callgsubr
          84 61 vstem
          181 -337 -60 callsubr
        </CharString>
        <CharString name="parenleft.sups">
          -92 300 96 callgsubr
          220 61 vstem
          317 300 -60 callsubr
        </CharString>
        <CharString name="parenright">
          -90 714 -20 hstem
          249 78 vstem
          175 714 -4 callgsubr
        </CharString>
        <CharString name="parenright.cap">
          -90 -176 925 hstem
          256 78 vstem
          182 749 -4 callgsubr
        </CharString>
        <CharString name="parenright.dnom">
          -92 -126 96 callgsubr
          189 62 vstem
          154 447 -59 callsubr
        </CharString>
        <CharString name="parenright.numr">
          -92 128 96 callgsubr
          243 62 vstem
          208 701 -59 callsubr
        </CharString>
        <CharString name="parenright.subs">
          -92 -337 96 callgsubr
          144 62 vstem
          109 236 -59 callsubr
        </CharString>
        <CharString name="parenright.sups">
          -92 300 96 callgsubr
          280 62 vstem
          245 873 -59 callsubr
        </CharString>
        <CharString name="partialdiff">
          64 -13 40 334 45 208 46 hstemhm
          56 82 267 84 -81 81 hintmask 11110100
          138 163 rmoveto
          126 74 72 77 vhcurveto
          hintmask 11111000
          43 39 -16 -31 34 hvcurveto
          -190 -16 -82 -97 -74 hhcurveto
          hintmask 11110100
          -51 -44 50 86 hvcurveto
          79 -176 rmoveto
          162 110 175 236 170 -107 92 -104 -57 -42 -15 -22 -39 hvcurveto
          9 -31 rlineto
          15 39 21 7 34 hhcurveto
          93 72 -60 -171 hvcurveto
          -9 0 -9 -9 vvcurveto
          33 -30 -43 17 -51 hhcurveto
          -128 -100 -107 -141 -111 71 -60 90 hvcurveto
          endchar
        </CharString>
        <CharString name="percent">
          405 28 callsubr
          hintmask 0111011111000000
          230 -73 callsubr
          -6 236 rmoveto
          97 89 115 159 hvcurveto
          hintmask 1011101111000000
          93 -45 47 -69 -100 -86 -120 -158 vhcurveto
          hintmask 0111011111000000
          -89 44 -47 70 vhcurveto
          4 29 rmoveto
          -28 -20 22 79 hvcurveto
          hintmask 1011101111000000
          142 59 111 53 27 22 -21 -74 vhcurveto
          hintmask 0111011111000000
          -132 -57 -127 -56 vhcurveto
          hintmask 1011011111000000
          455 -283 -95 callsubr
          endchar
        </CharString>
        <CharString name="period">
          -165 -10 126 -105 -21 hstemhm
          63 129 hintmask 01100000
          122 -10 rmoveto
          39 31 29 40 hvcurveto
          hintmask 10100000
          31 -23 26 -35 -38 -33 -29 -40 vhcurveto
          hintmask 01100000
          73 callsubr
          vhcurveto
          endchar
        </CharString>
        <CharString name="period.dnom">
          -261 -10 100 hstem
          18 103 vstem
          65 -10 -34 callsubr
          endchar
        </CharString>
        <CharString name="period.numr">
          -261 244 100 hstem
          72 103 vstem
          119 244 -34 callsubr
          endchar
        </CharString>
        <CharString name="period.subs">
          -261 -221 100 hstem
          -27 103 vstem
          20 -221 -34 callsubr
          endchar
        </CharString>
        <CharString name="period.sups">
          -261 416 100 hstem
          109 103 vstem
          156 416 -34 callsubr
          endchar
        </CharString>
        <CharString name="periodcentered">
          -165 263 126 hstem
          123 129 vstem
          182 263 rmoveto
          -58 callgsubr
          endchar
        </CharString>
        <CharString name="perthousand">
          751 28 callsubr
          36 70 161 69 hintmask 0110011100000000
          230 -73 callsubr
          -6 236 rmoveto
          97 89 115 159 hvcurveto
          hintmask 0000101100000000
          93 -45 47 -69 -100 -86 -120 -158 vhcurveto
          hintmask 0110011100000000
          -89 44 -47 70 vhcurveto
          4 29 rmoveto
          -28 -20 22 79 hvcurveto
          hintmask 0000101100000000
          142 59 111 53 27 22 -21 -74 vhcurveto
          hintmask 0110011100000000
          -132 -57 -127 -56 vhcurveto
          hintmask 1001000011110000
          455 -283 -95 callsubr
          332 -29 -95 callsubr
          endchar
        </CharString>
        <CharString name="pi">
          128 -13 69 353 68 -65 65 hstemhm
          359 83 -83 187.5 hintmask 10110000
          79 389 rmoveto
          150 21 -22 -106 -26 -106 -31 -104 rlinecurve
          -32 -2 -33 -5 -27 -5 rrcurveto
          -15 -10 -19 -17 -25 vvcurveto
          -30 21 -13 33 58 42 33 86 24 vhcurveto
          28 98 22 105 21 103 rrcurveto
          163 hlineto
          -38 -155 -39 -149 -50 vvcurveto
          -48 27 -23 50 vhcurveto
          hintmask 10101000
          42 39 17 35 31 hvcurveto
          -3 26 rlineto
          hintmask 11010000
          -5 -15 -28 -4 -20 hhcurveto
          -23 -17 10 32 34 7 42 42 237 hvcurveto
          129 -4 rlineto
          hintmask 10110000
          10 70 rlineto
          -351 hlineto
          -103 -39 -13 -39 -58 hvcurveto
          endchar
        </CharString>
        <CharString name="plus">
          65 303 53 hstem
          253 57 vstem
          253 92 rmoveto
          57 211 193 53 -193 207 -57 -207 85 callgsubr
        </CharString>
        <CharString name="plusminus">
          65 0 53 251 53 hstem
          253 56 vstem
          503 hmoveto
          63 callgsubr
          194 112 rmoveto
          56 192 194 53 -194 187 -56 -187 85 callgsubr
        </CharString>
        <CharString name="product">
          320 -130 46.5 701.5 52 hstem
          177 85 329 84 vstem
          177 180 rmoveto
          50 callgsubr
          -1 75 callgsubr
          1 85 vhcurveto
          326 hlineto
          2 -86 0 -86 -86 vvcurveto
          -180 vlineto
          50 callgsubr
          -2 75 callgsubr
          2 85 vhcurveto
          97 11 rlineto
          41 -695 -41 vlineto
          96 -11 rlineto
          2 -86 0 -86 -86 vvcurveto
          endchar
        </CharString>
        <CharString name="q">
          23 -241 34 194 69 365 66 hstem
          47 76 vstem
          123 147 rmoveto
          84 35 80 49 51 vhcurveto
          36 35 44 23 41 hhcurveto
          19 20 -5 -14 23 hvcurveto
          -53 -254 rlineto
          -69 -66 -50 -23 -34 hhcurveto
          -43 -20 35 56 hvcurveto
          354 331 rmoveto
          -18 10 -34 -25 rlineto
          17 -20 -19 7 -26 hhcurveto
          -141 -172 -208 -166 -91 41 -35 49 53 74 43 65 61 hvcurveto
          -61 -287 -90 -15 -7 -34 rlineto
          253 hlineto
          8 34 -89 14 9 52 9 50 11 52 rlinecurve
          endchar
        </CharString>
        <CharString name="q.sups">
          -117 68 callgsubr
          55 233 46 hstem
          112 61 vstem
          173 531 rmoveto
          84 57 89 75 13 14 -3 -8 15 vhcurveto
          -36 -173 rlineto
          -35 -40 -32 -14 -23 hhcurveto
          -28 -15 21 39 hvcurveto
          243 215 rmoveto
          -12 7 -29 -19 rlineto
          11 -14 -14 5 -19 hhcurveto
          -98 -118 -134 -112 -65 30 -23 34 37 50 25 40 40 hvcurveto
          -38 -178 -60 -9 -5 -24 rlineto
          177 hlineto
          6 24 -58 9 6 34 6 34 7 35 rlinecurve
          endchar
        </CharString>
        <CharString name="question">
          -21 -13 128 -107 -21 658 40 hstemhm
          76 126 200 70 hintmask 01111000
          76 45 rmoveto
          -34 25 -24 35 33 33 31 37 vhcurveto
          hintmask 10111000
          33 -22 27 -36 vhcurveto
          hintmask 01111000
          -35 -33 -32 -38 hvcurveto
          57 139 rmoveto
          35 -5 11 75 9 26 22 23 rlinecurve
          12 12 21 16 87 54 rrcurveto
          106 67 36 39 71 vvcurveto
          83 -64 40 -90 -110 -55 -61 -60 -15 vhcurveto
          -22 1 15 -17 21 hhcurveto
          28 12 13 28 12 hvcurveto
          31 75 rlineto
          2 14 17 2 21 hhcurveto
          58 34 -27 -48 -42 -25 -42 -77 -46 hvcurveto
          -93 -56 -16 -18 -19 -20 -26 -28 -8 -39 -5 -95 rrcurveto
          endchar
        </CharString>
        <CharString name="questiondown">
          -21 -209 40 530 128 0 -20 hstemhm
          -1 70 200 126 hintmask 10111000
          395 431 rmoveto
          34 -25 24 -35 -33 -33 -31 -37 vhcurveto
          hintmask 11011000
          -33 22 -27 36 vhcurveto
          hintmask 10111000
          35 33 32 38 hvcurveto
          -39 callgsubr
        </CharString>
        <CharString name="questiondown.cap">
          -21 -13 40 530 128 hstem
          41 70 200 126 vstem
          437 627 rmoveto
          34 -25 24 -35 -33 -33 -31 -37 -33 22 -27 36 35 33 32 38 vhcurveto
          -39 callgsubr
        </CharString>
        <CharString name="quotedbl">
          -42 94 callgsubr
          133 32 vstem
          225 736 rmoveto
          -14 callgsubr
          165 hmoveto
          -14 callgsubr
          endchar
        </CharString>
        <CharString name="quotedblbase">
          30 94 callsubr
          86 114 vstem
          328 116 8 callgsubr
          -200 hmoveto
          -38 callsubr
        </CharString>
        <CharString name="quotedblleft">
          10 730 -20 hstem
          150 114 86 -6 callsubr
          200 hmoveto
          -61 callgsubr
          endchar
        </CharString>
        <CharString name="quotedblright">
          10 717 -20 hstem
          191 114 86 114 vstem
          446 4 callgsubr
          -200 hmoveto
          -38 callsubr
        </CharString>
        <CharString name="quoteleft">
          -17 callgsubr
        </CharString>
        <CharString name="quoteright">
          -16 callsubr
        </CharString>
        <CharString name="quotesinglbase">
          -170 94 callsubr
          vstem
          128 116 rmoveto
          -38 callsubr
        </CharString>
        <CharString name="quotesingle">
          -207 94 callgsubr
          vstem
          225 736 rmoveto
          -14 callgsubr
          endchar
        </CharString>
        <CharString name="r">
          -65 13 38 callgsubr
          62 378 hintmask 01101000
          76 hmoveto
          10 -8 rlineto
          hintmask 10101000
          -72 callgsubr
          hintmask 01011000
          -165 -51 rlineto
          hintmask 01101000
          -4 -29 99 -6 rlineto
          endchar
        </CharString>
        <CharString name="r.sups">
          -179 678 72 -62.5 57 callgsubr
          0 -20 hstemhm
          120 266 hintmask 00110000
          129 426 rmoveto
          8 -6 53 5 9 47 8 46 10 47 rlinecurve
          hintmask 10010000
          5 21 22 43 26 39 35 31 rlinecurve
          -15 17 14 -6 12 hhcurveto
          24 13 20 25 1 hvcurveto
          19 -9 -17 8 -20 hhcurveto
          -38 -38 -46 -57 -30 hvcurveto
          hintmask 00110000
          16 95 -10 9 -117 -38 rlineto
          hintmask 01010000
          -3 -23 64 -5 rlineto
          endchar
        </CharString>
        <CharString name="racute">
          -65 13 38 callgsubr
          62 387 hintmask 01101000
          76 hmoveto
          10 -8 rlineto
          hintmask 10101000
          -72 callgsubr
          hintmask 01011000
          -165 -51 rlineto
          hintmask 01101000
          -4 -29 99 -6 rlineto
          124 148 -97 callgsubr
        </CharString>
        <CharString name="radical">
          92 305 49 hstem
          89 540 vstem
          629 782 rmoveto
          -78 hlineto
          -224 -778 -102 350 rlineto
          -136 -49 78 hlineto
          122 -405 rlineto
          49 hlineto
          endchar
        </CharString>
        <CharString name="rcaron">
          -65 13 38 callgsubr
          62 401 hintmask 01101000
          76 hmoveto
          10 -8 rlineto
          hintmask 10101000
          -72 callgsubr
          hintmask 01011000
          -165 -51 rlineto
          hintmask 01101000
          -4 -29 99 -6 rlineto
          42 350 -68 callgsubr
        </CharString>
        <CharString name="registered">
          -2 317 30 72 16.5 72.5 17 -12 12 78 17 -16.5 16.5 62 30 hstemhm
          107 38 208 38 73 38 hintmask 1110101111000000
          286 347 rmoveto
          -82 -59 54 93 117 84 71 95 80 60 -55 -92 -118 -84 -70 -94 hvcurveto
          2 -30 rmoveto
          111 103 82 139 109 -76 65 -105 -111 -103 -83 -137 -111 76 -64 105 hvcurveto
          40 286 rmoveto
          17 8 -9 -23 -28 -15 -18 -31 hvcurveto
          -17 hlineto
          16 78 rlineto
          hintmask 1110011111000000
          -67 2 rmoveto
          25 -3 -33 -165 -27 -3 -3 -15 rlineto
          92 hlineto
          3 15 -24 3 14 71 rlineto
          9 hlineto
          14 3 -6 -20 6 hvcurveto
          13 -40 rlineto
          -21 6 8 -5 22 hhcurveto
          10 8 0 3 13 hvcurveto
          3 15 -27 3 rlineto
          hintmask 1101101111000000
          -15 43 -6 17 -8 11 -12 5 rlinecurve
          40 7 18 20 29 vvcurveto
          34 -24 17 -38 vhcurveto
          -87 hlineto
          endchar
        </CharString>
        <CharString name="ring">
          -65 549 90 callgsubr
          hstem
          188 45 120 46 vstem
          284 4 callsubr
        </CharString>
        <CharString name="ringcmb.cap">
          -465 713 33 119 33 hstem
          36 41 111 41 vstem
          125 713 rmoveto
          52 52 39 64 52 -37 30 -51 -50 -55 -37 -66 -51 41 -31 48 hvcurveto
          4 33 rmoveto
          -33 -19 23 30 37 28 29 35 34 14 -25 -27 -35 -23 -32 -36 hvcurveto
          endchar
        </CharString>
        <CharString name="s">
          -105 -13 39 422 39 hstem
          103 71 82 73 vstem
          329 129 rmoveto
          -99 callsubr
          -60 7 39 -39 78 hhcurveto
          101 68 59 83 hvcurveto
          endchar
        </CharString>
        <CharString name="s.sups">
          -205 416 24 286 24 hstem
          149 55 54 57 vstem
          315 515 rmoveto
          36 -15 21 -43 31 vhcurveto
          -38 27 -15 15 28 vvcurveto
          27 18 26 45 vhcurveto
          5 hlineto
          9 -28 rlineto
          -23 7 14 -12 16 hhcurveto
          14 12 9 17 3 hvcurveto
          40 -10 -30 21 -50 hhcurveto
          -64 -44 -44 -57 -40 27 -25 37 -28 hvcurveto
          37 -26 8 -16 -21 vvcurveto
          -31 -27 -22 -46 vhcurveto
          -3 -3 0 -3 hhcurveto
          -8 32 rlineto
          24 -6 -8 11 -21 hhcurveto
          -13 -11 -10 -16 -4 hvcurveto
          -42 6 28 -23 55 hhcurveto
          74 47 42 57 hvcurveto
          endchar
        </CharString>
        <CharString name="sacute">
          -105 -13 39 422 39 hstem
          103 71 82 73 vstem
          329 129 rmoveto
          -99 callsubr
          -60 7 39 -39 78 hhcurveto
          101 68 59 83 hvcurveto
          -66 420 -97 callgsubr
        </CharString>
        <CharString name="scaron">
          -105 -13 39 422 39 hstem
          103 71 82 73 vstem
          329 129 rmoveto
          -99 callsubr
          -60 7 39 -39 78 hhcurveto
          101 68 59 83 hvcurveto
          -142 622 -68 callgsubr
        </CharString>
        <CharString name="section">
          0 -111 36 223 27 476 35 hstemhm
          77 63 49 67 21 68 44 66 hintmask 10110110
          341 686 rmoveto
          hintmask 10111110
          -92 -60 -63 -77 -49 26 -31 32 -26 hvcurveto
          -115 -14 -55 -68 -73 vvcurveto
          -65 36 -35 51 -38 vhcurveto
          hintmask 11110110
          48 -36 rlineto
          54 -39 11 -24 -32 vvcurveto
          -55 -44 -36 -71 -6 -5 0 1 -4 vhcurveto
          -10 42 rlineto
          27 -6 -14 16 -28 hhcurveto
          -16 -15 -11 -16 -5 hvcurveto
          -58 7 43 -37 74 hhcurveto
          100 68 60 81 53 -16 26 -50 39 hvcurveto
          117 12 59 61 77 vvcurveto
          59 -23 30 -51 38 vhcurveto
          hintmask 10111110
          -48 36 rlineto
          -57 42 -20 17 44 vvcurveto
          46 30 41 69 5 4 0 -1 4 vhcurveto
          11 -34 rlineto
          -30 10 17 -16 23 hhcurveto
          19 14 8 19 6 hvcurveto
          hintmask 10110110
          65 -15 -45 24 -67 hhcurveto
          -128 -489 rmoveto
          -54 40 -19 23 40 vvcurveto
          56 35 50 106 7 vhcurveto
          48 -36 rlineto
          51 -38 9 -24 -37 vvcurveto
          hintmask 11110110
          -54 -44 -42 -102 -7 vhcurveto
          endchar
        </CharString>
        <CharString name="semicolon">
          -164 353 126 hstemhm
          77 119 -58 129 hintmask 10100000
          197 353 rmoveto
          -58 callgsubr
          -177 -513 rmoveto
          hintmask 11000000
          10 callsubr
        </CharString>
        <CharString name="seven">
          46 0 10 562 75 hstem
          82 451 vstem
          82 29 callsubr
        </CharString>
        <CharString name="seven.cap">
          -2 0 10 585 75 hstem
          68 457 vstem
          68 10 rmoveto
          7 -10 rlineto
          76 hlineto
          364 619 10 51 rlineto
          -391 hlineto
          -15 -75 rlineto
          331 hlineto
          endchar
        </CharString>
        <CharString name="seven.dnom">
          21 -21 335 60 hstem
          33 301 vstem
          33 11 -25 callgsubr
        </CharString>
        <CharString name="seven.lf">
          -2 0 10 562 75 hstem
          68 451 vstem
          68 29 callsubr
        </CharString>
        <CharString name="seven.numr">
          589 60 hstem
          87 301 vstem
          87 265 -25 callgsubr
        </CharString>
        <CharString name="seven.osf">
          40 449 78 hstem
          50 481 vstem
          107 27 callgsubr
        </CharString>
        <CharString name="seven.subs">
          124 60 hstem
          -12 301 vstem
          -12 -200 -25 callgsubr
        </CharString>
        <CharString name="seven.sups">
          761 60 hstem
          124 301 vstem
          124 437 -25 callgsubr
        </CharString>
        <CharString name="seven.tosf">
          46 449 78 hstem
          58 481 vstem
          115 27 callgsubr
        </CharString>
        <CharString name="seveneighths">
          71 callgsubr
          392 28 184 60 -9 -20 hstemhm
          546 12 callgsubr
          hintmask 0110110010000000
          210 -73 callsubr
          -79 255 rmoveto
          4 -11 rlineto
          67 hlineto
          hintmask 1011001010000000
          222 355 8 40 rlineto
          -259 hlineto
          -12 -60 rlineto
          210 hlineto
          311 -274 -68 callsubr
          hintmask 1011010100000000
          -41 callgsubr
          hintmask 1011001010000000
          -65 callsubr
          hintmask 1011010010000000
          -61 -24 -39 -40 -51 vvcurveto
          hintmask 1011010100000000
          -83 callgsubr
        </CharString>
        <CharString name="six">
          46 -13 39 304 57 239 32 hstem
          79 80 241 79 vstem
          159 -39 callsubr
        </CharString>
        <CharString name="six.cap">
          48 -13 39 330 58 66 callsubr
          221 rmoveto
          34 3 32 6 32 vhcurveto
          29 38 48 8 41 hhcurveto
          69 36 -38 -102 -124 -61 -66 -63 -77 -40 62 133 hvcurveto
          102 -234 rmoveto
          103 115 88 155 110 -56 74 -87 -60 -51 -19 -40 -49 hvcurveto
          43 159 123 118 198 21 -2 32 rcurveline
          -285 -8 -174 -215 -239 vvcurveto
          -149 68 -87 114 vhcurveto
          endchar
        </CharString>
        <CharString name="six.dnom">
          -9 47 callgsubr
          24 71 138 70 vstem
          95 122 -85 callgsubr
        </CharString>
        <CharString name="six.lf">
          48 -13 39 304 57 66 callsubr
          -39 callsubr
        </CharString>
        <CharString name="six.numr">
          245 47 callgsubr
          78 71 138 70 vstem
          149 376 -85 callgsubr
        </CharString>
        <CharString name="six.osf">
          85 -13 39 310 51 239 32 hstem
          105 82 250 77 vstem
          187 -40 callsubr
        </CharString>
        <CharString name="six.subs">
          -220 47 callgsubr
          -21 71 138 70 vstem
          50 -89 -85 callgsubr
        </CharString>
        <CharString name="six.sups">
          417 47 callgsubr
          115 71 138 70 vstem
          186 548 -85 callgsubr
        </CharString>
        <CharString name="six.tosf">
          46 -13 39 310 51 239 32 hstem
          82 82 250 77 vstem
          164 -40 callsubr
        </CharString>
        <CharString name="slash">
          -136 -160 870 hstem
          -89 509 vstem
          -89 -160 rmoveto
          63 hlineto
          446 870 rlineto
          -64 hlineto
          endchar
        </CharString>
        <CharString name="slash.frac">
          -378 -15 681 hstem
          -190 530 vstem
          -156 -73 callsubr
          endchar
        </CharString>
        <CharString name="space">
          -231 endchar
        </CharString>
        <CharString name="space.frac">
          -286 endchar
        </CharString>
        <CharString name="sterling">
          46 0 81 203 50 280 46 hstemhm
          131 87 -40 64 156 101 hintmask 11110000
          3 hmoveto
          410 hlineto
          16 81 rlineto
          -329 hlineto
          hintmask 11101000
          78 55 54 72 10 76 rrcurveto
          132 89 callgsubr
          hintmask 11110100
          -142 hlineto
          -6 39 -18 33 68 vvcurveto
          72 47 68 87 15 15 -1 -3 16 vhcurveto
          2 -24 2 -25 2 -25 rrcurveto
          -51 4 15 -16 31 hhcurveto
          18 15 9 22 12 hvcurveto
          107 -59 53 -105 -120 -84 -85 -97 -60 33 -40 11 -44 vhcurveto
          -97 hlineto
          -11 -50 rlineto
          hintmask 11101000
          111 hlineto
          -9 -91 -63 -77 -90 -58 rrcurveto
          endchar
        </CharString>
        <CharString name="summation">
          126 -130 75 546 179 -51 51 hstemhm
          498 85 hintmask 10110000
          63 -130 rmoveto
          516 hlineto
          8 209 rlineto
          -60 hlineto
          -29 -134 rlineto
          -358 hlineto
          253 334 -209 340 rlineto
          294 hlineto
          hintmask 11010000
          27 -128 rlineto
          60 hlineto
          hintmask 10110000
          -8 179 rlineto
          -480 -46 hlineto
          234 -366 -248 -327 rlineto
          endchar
        </CharString>
        <CharString name="t">
          -136 -13 54 callgsubr
          hintmask 11010000
          100 111 rmoveto
          -67 callsubr
          47 callsubr
          -10 callgsubr
          hintmask 10110000
          25 callgsubr
          endchar
        </CharString>
        <CharString name="t.sups">
          -233 416 52 32 -20 226 32.5 -32.5 35 hstemhm
          139 64 hintmask 11011000
          147 511 rmoveto
          -5 -25 -3 -17 -14 vvcurveto
          -26 19 -13 22 49 41 42 42 29 vhcurveto
          -18 13 rlineto
          -30 -26 -20 -15 -18 hhcurveto
          -13 -6 7 41 9 hvcurveto
          40 190 rlineto
          86 hlineto
          5 35 rlineto
          -84 hlineto
          hintmask 11101000
          19 90 rlineto
          -40 hlineto
          -34 -89 -71 -7 rlineto
          hintmask 11011000
          -5 -29 rlineto
          66 hlineto
          endchar
        </CharString>
        <CharString name="tcaron">
          -135 -13 54 callgsubr
          hintmask 11010000
          425 750 28 callgsubr
          -325 -639 rmoveto
          -67 callsubr
          47 callsubr
          -10 callgsubr
          hintmask 10110000
          25 callgsubr
          endchar
        </CharString>
        <CharString name="thorn">
          40 -240 34 193 68 365 67 hstem
          430 77 vstem
          369 420 rmoveto
          38 23 52 callgsubr
          -25 8 20 -27 hvcurveto
          48 233 rlineto
          67 64 57 37 41 hhcurveto
          -172 -626 rmoveto
          -94 15 12 65 12 64 14 64 41 callgsubr
          -80 -46 -77 -62 hvcurveto
          76 368 -11 8 -173 -50 -5 -29 96 -7 -9 -59 -11 -59 -12 -60 rlinecurve
          -139 -668 -86 -14 -7 -34 rlineto
          254 hlineto
          endchar
        </CharString>
        <CharString name="three">
          -72 callsubr
        </CharString>
        <CharString name="three.cap">
          46 -13 40 292 43 -22 22 282 41 hstemhm
          61 82 241 82 -41 78 hintmask 11011010
          234 -13 rmoveto
          hintmask 10111100
          122 110 66 127 85 -45 56 -84 19 hvcurveto
          hintmask 10111010
          96 26 70 63 102 vvcurveto
          89 -59 65 -106 -110 -64 -55 -94 -20 vhcurveto
          -19 2 21 -14 19 hhcurveto
          30 13 23 35 4 hvcurveto
          7 66 rlineto
          12 26 27 5 31 hhcurveto
          55 46 -36 -78 hvcurveto
          hintmask 11011010
          -114 -76 -54 -80 vhcurveto
          -37 hlineto
          -8 -43 rlineto
          33 hlineto
          hintmask 11011100
          87 40 -48 -86 -105 -65 -53 -84 -32 -31 7 15 -29 hvcurveto
          76 vlineto
          38 -12 21 -29 1 vhcurveto
          -20 1 -11 -8 -10 -18 rrcurveto
          hintmask 11011010
          -130 75 -43 98 vhcurveto
          endchar
        </CharString>
        <CharString name="three.dnom">
          -9 61 callsubr
          18 -35 callgsubr
          hintmask 11111000
          132 -9 -96 callsubr
        </CharString>
        <CharString name="three.lf">
          -72 callsubr
        </CharString>
        <CharString name="three.numr">
          245 30 163 31 160 30 51 callsubr
          hintmask 11111000
          186 245 -96 callsubr
        </CharString>
        <CharString name="three.osf">
          17 66 callgsubr
          334 79 -31 75 hintmask 11011000
          180 -63 callsubr
        </CharString>
        <CharString name="three.subs">
          -220 61 callsubr
          -27 -35 callgsubr
          hintmask 11111000
          87 -220 -96 callsubr
        </CharString>
        <CharString name="three.sups">
          417 61 callsubr
          109 -35 callgsubr
          hintmask 11111000
          223 417 -96 callsubr
        </CharString>
        <CharString name="three.tosf">
          46 66 callgsubr
          360 79 -31 75 hintmask 11011000
          206 -63 callsubr
        </CharString>
        <CharString name="threeeighths">
          71 callgsubr
          260 30 102 28 33 31 160 30 -19 -20 51 callsubr
          187 12 callgsubr
          hintmask 0111101110100100
          230 -73 callsubr
          -10 235 -22 callgsubr
          hintmask 1011110101100100
          -97 callsubr
          hintmask 1011101110100100
          -86 callsubr
          hintmask 0111101110100100
          -74 45 -31 69 vhcurveto
          hintmask 1011101110010100
          462 70 -68 callsubr
          hintmask 1011101110101000
          -41 callgsubr
          hintmask 1011101110010100
          -65 callsubr
          hintmask 1011101110100100
          -61 -24 -39 -40 -51 vvcurveto
          hintmask 1011101110101000
          -83 callgsubr
        </CharString>
        <CharString name="threequarters">
          405 86 callsubr
          99 43 callsubr
          -19 -20 51 callsubr
          hintmask 1011011100000000
          260 -73 callsubr
          -40 235 -22 callgsubr
          hintmask 0111101010000000
          -97 callsubr
          hintmask 0111011100000000
          -86 callsubr
          hintmask 1011011100000000
          -74 45 -31 69 vhcurveto
          hintmask 0111011100000000
          629 -147 -55 callsubr
          hintmask 1011011100000000
          -23 -111 rlineto
          62 hlineto
          hintmask 0111011100000000
          23 111 rlineto
          -188 48 rmoveto
          174 189 -38 -189 rlineto
          endchar
        </CharString>
        <CharString name="tilde">
          -65 575 53 33 53 hstem
          111 346 vstem
          111 586 -87 callsubr
        </CharString>
        <CharString name="tildecmb.cap">
          -465 724 92 callgsubr
          -59 382 vstemhm
          -59 735 2 callgsubr
          hintmask 10100000
          -32 callgsubr
          hintmask 11100000
          30 callgsubr
        </CharString>
</ttFont>
